<?xml version="1.0" standalone="no"?>
<!DOCTYPE svg PUBLIC "-//W3C//DTD SVG 1.1//EN" "http://www.w3.org/Graphics/SVG/1.1/DTD/svg11.dtd" >
<svg xmlns="http://www.w3.org/2000/svg" xmlns:xlink="http://www.w3.org/1999/xlink" version="1.1">
<metadata>
Created by FontForge 20170910 at Sun Jun 16 16:44:36 2013
 By Jimmy Wärting
Created by Markus Schro:ppel, (c) 1999, 2013 Rev.1.2
</metadata>
<defs>
<font id="LLPixel" horiz-adv-x="709" >
  <font-face 
    font-family="LLPixel"
    font-weight="400"
    font-stretch="normal"
    units-per-em="1000"
    panose-1="0 0 4 0 0 0 0 0 0 0"
    ascent="800"
    descent="-200"
    x-height="502"
    cap-height="705"
    bbox="-48 -200 1880 1011"
    underline-thickness="20"
    underline-position="-143"
    unicode-range="U+0020-FB02"
  />
<missing-glyph horiz-adv-x="500" 
d="M63 0v1011h375v-1011h-375zM125 63h250v886h-250v-886z" />
    <glyph glyph-name=".notdef" horiz-adv-x="500" 
d="M63 0v1011h375v-1011h-375zM125 63h250v886h-250v-886z" />
    <glyph glyph-name="NULL" horiz-adv-x="0" 
 />
    <glyph glyph-name="nonmarkingreturn" horiz-adv-x="202" 
 />
    <glyph glyph-name="space" unicode=" " horiz-adv-x="202" 
 />
    <glyph glyph-name="exclam" unicode="!" horiz-adv-x="299" 
d="M237 615h-89v90h89v-90zM136 615h-90v90h90v-90zM237 514h-89v89h89v-89zM136 514h-90v89h90v-89zM237 412h-89v90h89v-90zM136 412h-90v90h90v-90zM237 311h-89v89h89v-89zM136 311h-90v89h90v-89zM237 210h-89v89h89v-89zM136 210h-90v89h90v-89zM237 7h-89v89h89v-89z
M136 7h-90v89h90v-89z" />
    <glyph glyph-name="quotedbl" unicode="&#x22;" horiz-adv-x="602" 
d="M550 716h-89v90h89v-90zM449 716h-89v90h89v-90zM550 615h-89v89h89v-89zM449 615h-89v89h89v-89zM550 513h-89v90h89v-90zM246 716h-89v90h89v-90zM145 716h-90v90h90v-90zM246 615h-89v89h89v-89zM145 615h-90v89h90v-89zM246 513h-89v90h89v-90z" />
    <glyph glyph-name="numbersign" unicode="#" horiz-adv-x="1012" 
d="M855 615h-90v90h90v-90zM753 615h-89v90h89v-90zM855 514h-90v89h90v-89zM753 514h-89v89h89v-89zM855 412h-90v90h90v-90zM550 615h-89v90h89v-90zM753 412h-89v90h89v-90zM957 413h-90v89h90v-89zM449 615h-89v90h89v-90zM550 514h-89v89h89v-89zM652 412h-90v90h90
v-90zM753 311h-89v89h89v-89zM855 210h-90v89h90v-89zM449 514h-89v89h89v-89zM550 412h-89v90h89v-90zM652 311h-90v89h90v-89zM753 210h-89v89h89v-89zM449 412h-89v90h89v-90zM652 210h-90v89h90v-89zM348 412h-90v90h90v-90zM652 108h-90v90h90v-90zM449 311h-89v89h89
v-89zM550 210h-89v89h89v-89zM246 412h-89v90h89v-90zM348 311h-90v89h90v-89zM550 108h-89v90h89v-90zM652 7h-90v89h90v-89zM449 210h-89v89h89v-89zM348 210h-90v89h90v-89zM550 7h-89v89h89v-89zM348 108h-90v90h90v-90zM246 210h-89v89h89v-89zM246 108h-89v90h89v-90z
M348 7h-90v89h90v-89zM145 210h-90v89h90v-89zM246 7h-89v89h89v-89z" />
    <glyph glyph-name="dollar" unicode="$" horiz-adv-x="605" 
d="M550 615h-89v90h89v-90zM449 615h-89v90h89v-90zM348 615h-90v90h90v-90zM246 615h-89v90h89v-90zM347 514h-89v89h89v-89zM348 412h-90v90h90v-90zM449 311h-89v89h89v-89zM550 210h-89v89h89v-89zM145 514h-90v89h90v-89zM246 412h-89v90h89v-90zM348 311h-90v89h90
v-89zM550 108h-89v90h89v-90zM449 210h-89v89h89v-89zM145 412h-90v90h90v-90zM246 311h-89v89h89v-89zM346 108h-89v90h89v-90zM449 7h-89v89h89v-89zM348 7h-90v89h90v-89zM246 7h-89v89h89v-89zM145 7h-90v89h90v-89zM346 210h-89v89h89v-89zM348 718h-90v90h90v-90z
M348 -97h-90v89h90v-89z" />
    <glyph glyph-name="percent" unicode="%" horiz-adv-x="1315" 
d="M963 615h-90v90h90v-90zM963 514h-90v89h90v-89zM758 412h-89v90h89v-90zM1052 311h-90v89h90v-89zM440 615h-89v90h89v-90zM541 514h-89v89h89v-89zM339 615h-90v90h90v-90zM440 514h-89v89h89v-89zM541 412h-89v90h89v-90zM742 311h-90v89h90v-89zM847 210h-89v89h89
v-89zM237 615h-89v90h89v-90zM847 108h-89v90h89v-90zM1052 7h-90v89h90v-89zM440 412h-89v90h89v-90zM237 514h-89v89h89v-89zM642 311h-89v89h89v-89zM644 210h-89v89h89v-89zM136 514h-90v89h90v-89zM237 412h-89v90h89v-90zM339 311h-90v89h90v-89zM543 210h-89v89h89
v-89zM136 412h-90v90h90v-90zM237 311h-89v89h89v-89zM543 108h-89v90h89v-90zM442 108h-90v90h90v-90zM442 7h-90v89h90v-89zM340 7h-89v89h89v-89zM1071 615h-90v90h90v-90zM1160 210h-90v89h90v-89zM1160 108h-90v90h90v-90zM863 514h-90v89h90v-89zM863 412h-90v90h90
v-90zM952 311h-90v89h90v-89zM952 210h-90v89h90v-89zM952 108h-90v90h90v-90zM952 7h-90v89h90v-89zM1265 210h-90v89h90v-89zM1265 108h-90v90h90v-90zM1160 7h-90v89h90v-89zM1160 311h-90v89h90v-89zM440 311h-89v89h89v-89z" />
    <glyph glyph-name="ampersand" unicode="&#x26;" horiz-adv-x="896" 
d="M541 615h-89v90h89v-90zM643 514h-90v89h90v-89zM846 311h-90v89h90v-89zM440 615h-89v90h89v-90zM541 514h-89v89h89v-89zM744 311h-89v89h89v-89zM339 615h-90v90h90v-90zM541 412h-89v90h89v-90zM744 210h-89v89h89v-89zM339 514h-90v89h90v-89zM744 108h-89v90h89
v-90zM846 7h-90v89h90v-89zM440 412h-89v90h89v-90zM541 311h-89v89h89v-89zM643 210h-90v89h90v-89zM237 514h-89v89h89v-89zM339 412h-90v90h90v-90zM643 108h-90v90h90v-90zM744 7h-89v89h89v-89zM440 311h-89v89h89v-89zM541 210h-89v89h89v-89zM339 311h-90v89h90v-89z
M541 108h-89v90h89v-90zM237 311h-89v89h89v-89zM541 7h-89v89h89v-89zM237 210h-89v89h89v-89zM440 7h-89v89h89v-89zM237 108h-89v90h89v-90zM339 7h-90v89h90v-89zM136 210h-90v89h90v-89zM136 108h-90v90h90v-90zM237 7h-89v89h89v-89z" />
    <glyph glyph-name="quotesingle" unicode="'" horiz-adv-x="299" 
d="M237 717h-89v90h89v-90zM136 717h-90v90h90v-90zM237 616h-89v89h89v-89zM136 616h-90v89h90v-89zM237 514h-89v90h89v-90z" />
    <glyph glyph-name="parenleft" unicode="(" horiz-adv-x="496" 
d="M440 718h-89v90h89v-90zM339 718h-90v90h90v-90zM339 617h-90v89h90v-89zM237 617h-89v89h89v-89zM237 515h-89v90h89v-90zM237 414h-89v89h89v-89zM136 414h-90v89h90v-89zM237 313h-89v89h89v-89zM237 211h-89v90h89v-90zM136 313h-90v89h90v-89zM136 211h-90v90h90
v-90zM237 110h-89v89h89v-89zM339 8h-90v90h90v-90zM237 8h-89v90h89v-90zM440 -95h-89v90h89v-90zM339 -95h-90v90h90v-90z" />
    <glyph glyph-name="parenright" unicode=")" horiz-adv-x="497" 
d="M237 716h-89v90h89v-90zM339 615h-90v89h90v-89zM136 716h-90v90h90v-90zM237 615h-89v89h89v-89zM339 513h-90v90h90v-90zM440 412h-89v89h89v-89zM339 412h-90v89h90v-89zM440 311h-89v89h89v-89zM339 311h-90v89h90v-89zM440 209h-89v90h89v-90zM339 209h-90v90h90
v-90zM339 108h-90v89h90v-89zM339 6h-90v90h90v-90zM237 6h-89v90h89v-90zM237 -97h-89v90h89v-90zM136 -97h-90v90h90v-90z" />
    <glyph glyph-name="asterisk" unicode="*" horiz-adv-x="889" 
d="M440 716h-89v90h89v-90zM541 513h-89v90h89v-90zM237 716h-89v90h89v-90zM339 615h-90v89h90v-89zM440 513h-89v90h89v-90zM339 513h-90v90h90v-90zM237 513h-89v90h89v-90zM339 412h-90v89h90v-89zM440 311h-89v89h89v-89zM136 513h-90v90h90v-90zM237 311h-89v89h89
v-89z" />
    <glyph glyph-name="plus" unicode="+" horiz-adv-x="597" 
d="M339 412h-90v90h90v-90zM541 210h-89v89h89v-89zM339 311h-90v89h90v-89zM440 210h-89v89h89v-89zM339 210h-90v89h90v-89zM339 108h-90v90h90v-90zM237 210h-89v89h89v-89zM339 7h-90v89h90v-89zM136 210h-90v89h90v-89z" />
    <glyph glyph-name="comma" unicode="," horiz-adv-x="291" 
d="M237 7h-89v89h89v-89zM136 7h-90v89h90v-89zM237 -95h-89v90h89v-90zM136 -198h-90v90h90v-90z" />
    <glyph glyph-name="hyphen" unicode="&#xad;" horiz-adv-x="392" 
d="M339 312h-90v89h90v-89zM237 312h-89v89h89v-89zM136 312h-90v89h90v-89z" />
    <glyph glyph-name="period" unicode="." horiz-adv-x="284" 
d="M237 7h-89v89h89v-89zM136 7h-90v89h90v-89z" />
    <glyph glyph-name="slash" unicode="/" horiz-adv-x="597" 
d="M541 615h-89v90h89v-90zM440 615h-89v90h89v-90zM541 514h-89v89h89v-89zM440 514h-89v89h89v-89zM440 412h-89v90h89v-90zM339 412h-90v90h90v-90zM339 311h-90v89h90v-89zM237 311h-89v89h89v-89zM339 210h-90v89h90v-89zM237 210h-89v89h89v-89zM237 108h-89v90h89
v-90zM136 108h-90v90h90v-90zM237 7h-89v89h89v-89zM136 7h-90v89h90v-89z" />
    <glyph glyph-name="zero" unicode="0" horiz-adv-x="702" 
d="M552 615h-90v90h90v-90zM653 514h-89v89h89v-89zM450 615h-89v90h89v-90zM552 514h-90v89h90v-89zM653 412h-89v90h89v-90zM349 615h-89v90h89v-90zM552 412h-90v90h90v-90zM653 311h-89v89h89v-89zM248 615h-90v90h90v-90zM552 311h-90v89h90v-89zM653 210h-89v89h89
v-89zM248 514h-90v89h90v-89zM653 108h-89v90h89v-90zM552 210h-90v89h90v-89zM146 514h-89v89h89v-89zM248 412h-90v90h90v-90zM552 108h-90v90h90v-90zM146 412h-89v90h89v-90zM248 311h-90v89h90v-89zM552 7h-90v89h90v-89zM146 311h-89v89h89v-89zM248 210h-90v89h90
v-89zM450 7h-89v89h89v-89zM248 108h-90v90h90v-90zM146 210h-89v89h89v-89zM349 7h-89v89h89v-89zM146 108h-89v90h89v-90zM248 7h-90v89h90v-89z" />
    <glyph glyph-name="one" unicode="1" horiz-adv-x="401" 
d="M349 615h-89v90h89v-90zM248 615h-90v90h90v-90zM349 514h-89v89h89v-89zM248 514h-90v89h90v-89zM349 412h-89v90h89v-90zM146 514h-89v89h89v-89zM248 412h-90v90h90v-90zM349 311h-89v89h89v-89zM248 311h-90v89h90v-89zM349 210h-89v89h89v-89zM248 210h-90v89h90
v-89zM349 108h-89v90h89v-90zM248 108h-90v90h90v-90zM349 7h-89v89h89v-89zM248 7h-90v89h90v-89z" />
    <glyph glyph-name="two" unicode="2" horiz-adv-x="695" 
d="M545 615h-89v90h89v-90zM647 514h-90v89h90v-89zM444 615h-89v90h89v-90zM545 514h-89v89h89v-89zM647 412h-90v90h90v-90zM343 615h-90v90h90v-90zM545 412h-89v90h89v-90zM241 615h-89v90h89v-90zM545 311h-89v89h89v-89zM241 514h-89v89h89v-89zM444 311h-89v89h89
v-89zM140 514h-90v89h90v-89zM343 311h-90v89h90v-89zM647 7h-90v89h90v-89zM343 210h-90v89h90v-89zM545 7h-89v89h89v-89zM241 210h-89v89h89v-89zM444 7h-89v89h89v-89zM241 108h-89v90h89v-90zM343 7h-90v89h90v-89zM140 108h-90v90h90v-90zM241 7h-89v89h89v-89zM140 7
h-90v89h90v-89z" />
    <glyph glyph-name="three" unicode="3" horiz-adv-x="715" 
d="M554 615h-89v90h89v-90zM656 514h-90v89h90v-89zM453 615h-89v90h89v-90zM554 514h-89v89h89v-89zM656 412h-90v90h90v-90zM352 615h-90v90h90v-90zM554 412h-89v90h89v-90zM250 615h-89v90h89v-90zM554 311h-89v89h89v-89zM656 210h-90v89h90v-89zM250 514h-89v89h89
v-89zM656 108h-90v90h90v-90zM453 311h-89v89h89v-89zM554 210h-89v89h89v-89zM149 514h-90v89h90v-89zM352 311h-90v89h90v-89zM554 108h-89v90h89v-90zM554 7h-89v89h89v-89zM453 7h-89v89h89v-89zM352 7h-90v89h90v-89zM250 7h-89v89h89v-89zM149 107h-90v89h90v-89z
M250 107h-90v89h90v-89z" />
    <glyph glyph-name="four" unicode="4" horiz-adv-x="702" 
d="M542 615h-89v90h89v-90zM441 615h-89v90h89v-90zM542 514h-89v89h89v-89zM441 514h-89v89h89v-89zM542 412h-89v90h89v-90zM340 514h-90v89h90v-89zM441 412h-89v90h89v-90zM542 311h-89v89h89v-89zM644 210h-90v89h90v-89zM441 311h-89v89h89v-89zM542 210h-89v89h89
v-89zM238 412h-89v90h89v-90zM542 108h-89v90h89v-90zM441 210h-89v89h89v-89zM340 210h-90v89h90v-89zM441 108h-89v90h89v-90zM542 7h-89v89h89v-89zM137 311h-90v89h90v-89zM238 210h-89v89h89v-89zM441 7h-89v89h89v-89zM137 210h-90v89h90v-89z" />
    <glyph glyph-name="five" unicode="5" horiz-adv-x="608" 
d="M560 615h-89v90h89v-90zM459 615h-89v90h89v-90zM358 615h-90v90h90v-90zM256 615h-89v90h89v-90zM155 615h-90v90h90v-90zM256 514h-89v89h89v-89zM459 311h-89v89h89v-89zM560 210h-89v89h89v-89zM155 514h-90v89h90v-89zM256 412h-89v90h89v-90zM358 311h-90v89h90
v-89zM560 108h-89v90h89v-90zM459 210h-89v89h89v-89zM155 412h-90v90h90v-90zM256 311h-89v89h89v-89zM459 108h-89v90h89v-90zM155 311h-90v89h90v-89zM459 7h-89v89h89v-89zM358 7h-90v89h90v-89zM256 7h-89v89h89v-89zM155 7h-90v89h90v-89z" />
    <glyph glyph-name="six" unicode="6" horiz-adv-x="700" 
d="M550 615h-89v90h89v-90zM449 615h-89v90h89v-90zM348 615h-90v90h90v-90zM348 514h-90v89h90v-89zM550 311h-89v89h89v-89zM652 210h-90v89h90v-89zM246 514h-89v89h89v-89zM652 108h-90v90h90v-90zM449 311h-89v89h89v-89zM550 210h-89v89h89v-89zM246 412h-89v90h89
v-90zM348 311h-90v89h90v-89zM550 108h-89v90h89v-90zM145 412h-90v90h90v-90zM246 311h-89v89h89v-89zM550 7h-89v89h89v-89zM145 311h-90v89h90v-89zM246 210h-89v89h89v-89zM449 7h-89v89h89v-89zM246 108h-89v90h89v-90zM348 7h-90v89h90v-89zM145 210h-90v89h90v-89z
M145 108h-90v90h90v-90zM246 7h-89v89h89v-89z" />
    <glyph glyph-name="seven" unicode="7" horiz-adv-x="704" 
d="M652 615h-90v90h90v-90zM550 615h-89v90h89v-90zM652 514h-90v89h90v-89zM449 615h-89v90h89v-90zM550 514h-89v89h89v-89zM348 615h-90v90h90v-90zM550 412h-89v90h89v-90zM246 615h-89v90h89v-90zM449 412h-89v90h89v-90zM550 311h-89v89h89v-89zM145 615h-90v90h90
v-90zM449 311h-89v89h89v-89zM449 210h-89v89h89v-89zM348 210h-90v89h90v-89zM449 108h-89v90h89v-90zM348 108h-90v90h90v-90zM449 7h-89v89h89v-89zM348 7h-90v89h90v-89z" />
    <glyph glyph-name="eight" unicode="8" 
d="M550 615h-89v90h89v-90zM652 514h-90v89h90v-89zM449 615h-89v90h89v-90zM550 514h-89v89h89v-89zM652 412h-90v90h90v-90zM348 615h-90v90h90v-90zM550 412h-89v90h89v-90zM246 615h-89v90h89v-90zM550 311h-89v89h89v-89zM652 210h-90v89h90v-89zM246 514h-89v89h89
v-89zM652 108h-90v90h90v-90zM449 311h-89v89h89v-89zM550 210h-89v89h89v-89zM145 514h-90v89h90v-89zM246 412h-89v90h89v-90zM348 311h-90v89h90v-89zM550 108h-89v90h89v-90zM145 412h-90v90h90v-90zM246 311h-89v89h89v-89zM550 7h-89v89h89v-89zM246 210h-89v89h89
v-89zM449 7h-89v89h89v-89zM246 108h-89v90h89v-90zM348 7h-90v89h90v-89zM145 210h-90v89h90v-89zM145 108h-90v90h90v-90zM246 7h-89v89h89v-89z" />
    <glyph glyph-name="nine" unicode="9" 
d="M550 615h-89v90h89v-90zM652 514h-90v89h90v-89zM449 615h-89v90h89v-90zM550 514h-89v89h89v-89zM652 412h-90v90h90v-90zM348 615h-90v90h90v-90zM550 412h-89v90h89v-90zM652 311h-90v89h90v-89zM246 615h-89v90h89v-90zM550 311h-89v89h89v-89zM652 210h-90v89h90
v-89zM246 514h-89v89h89v-89zM449 311h-89v89h89v-89zM550 210h-89v89h89v-89zM145 514h-90v89h90v-89zM246 412h-89v90h89v-90zM348 311h-90v89h90v-89zM550 108h-89v90h89v-90zM145 412h-90v90h90v-90zM246 311h-89v89h89v-89zM449 108h-89v90h89v-90zM449 7h-89v89h89
v-89zM348 7h-90v89h90v-89zM246 7h-89v89h89v-89z" />
    <glyph glyph-name="colon" unicode=":" horiz-adv-x="309" 
d="M246 412h-89v90h89v-90zM145 412h-90v90h90v-90zM246 7h-89v89h89v-89zM145 7h-90v89h90v-89z" />
    <glyph glyph-name="semicolon" unicode=";" horiz-adv-x="295" 
d="M246 412h-89v90h89v-90zM145 412h-90v90h90v-90zM246 7h-89v89h89v-89zM145 7h-90v89h90v-89zM246 -95h-89v90h89v-90zM145 -196h-90v90h90v-90z" />
    <glyph glyph-name="less" unicode="&#x3c;" horiz-adv-x="497" 
d="M449 412h-89v90h89v-90zM348 412h-90v90h90v-90zM348 311h-90v89h90v-89zM246 311h-89v89h89v-89zM348 108h-90v90h90v-90zM246 210h-89v89h89v-89zM449 7h-89v89h89v-89zM246 108h-89v90h89v-90zM348 7h-90v89h90v-89zM145 210h-90v89h90v-89z" />
    <glyph glyph-name="equal" unicode="=" horiz-adv-x="602" 
d="M550 412h-89v90h89v-90zM449 412h-89v90h89v-90zM348 412h-90v90h90v-90zM550 210h-89v89h89v-89zM246 412h-89v90h89v-90zM449 210h-89v89h89v-89zM145 412h-90v90h90v-90zM348 210h-90v89h90v-89zM246 210h-89v89h89v-89zM145 210h-90v89h90v-89z" />
    <glyph glyph-name="greater" unicode="&#x3e;" horiz-adv-x="502" 
d="M246 412h-89v90h89v-90zM348 311h-90v89h90v-89zM449 210h-89v89h89v-89zM145 412h-90v90h90v-90zM246 311h-89v89h89v-89zM348 210h-90v89h90v-89zM348 108h-90v90h90v-90zM246 108h-89v90h89v-90zM246 7h-89v89h89v-89zM145 7h-90v89h90v-89z" />
    <glyph glyph-name="question" unicode="?" horiz-adv-x="605" 
d="M449 615h-89v90h89v-90zM550 514h-89v89h89v-89zM348 615h-90v90h90v-90zM449 514h-89v89h89v-89zM246 615h-89v90h89v-90zM449 412h-89v90h89v-90zM145 615h-90v90h90v-90zM348 412h-90v90h90v-90zM348 311h-90v89h90v-89zM246 311h-89v89h89v-89zM348 210h-90v89h90
v-89zM246 210h-89v89h89v-89zM348 7h-90v89h90v-89zM246 7h-89v89h89v-89z" />
    <glyph glyph-name="at" unicode="@" horiz-adv-x="999" 
d="M643 615h-90v90h90v-90zM744 514h-89v89h89v-89zM948 412h-90v90h90v-90zM541 615h-89v90h89v-90zM846 412h-89v90h89v-90zM948 311h-90v89h90v-89zM440 615h-89v90h89v-90zM643 412h-90v90h90v-90zM846 311h-89v89h89v-89zM846 210h-90v89h90v-89zM339 615h-90v90h90
v-90zM541 412h-89v90h89v-90zM643 311h-90v89h90v-89zM744 210h-89v89h89v-89zM339 514h-90v89h90v-89zM643 210h-90v89h90v-89zM237 514h-89v89h89v-89zM440 311h-89v89h89v-89zM541 210h-89v89h89v-89zM237 412h-89v90h89v-90zM643 7h-90v89h90v-89zM136 412h-90v90h90
v-90zM237 311h-89v89h89v-89zM541 7h-89v89h89v-89zM339 108h-90v90h90v-90zM136 311h-90v89h90v-89zM237 210h-89v89h89v-89zM440 7h-89v89h89v-89zM237 108h-89v90h89v-90zM339 7h-90v89h90v-89zM136 210h-90v89h90v-89zM845 514h-89v89h89v-89z" />
    <glyph glyph-name="A" unicode="A" horiz-adv-x="609" 
d="M449 615h-90v90h90v-90zM550 514h-89v89h89v-89zM347 615h-89v90h89v-90zM449 514h-90v89h90v-89zM550 412h-89v90h89v-90zM246 615h-89v90h89v-90zM449 412h-90v90h90v-90zM550 311h-89v89h89v-89zM449 311h-90v89h90v-89zM550 210h-89v89h89v-89zM145 514h-90v89h90
v-89zM550 108h-89v90h89v-90zM347 209h-89v89h89v-89zM449 210h-90v89h90v-89zM145 412h-90v90h90v-90zM449 108h-90v90h90v-90zM550 7h-89v89h89v-89zM246 209h-89v89h89v-89zM145 311h-90v89h90v-89zM449 7h-90v89h90v-89zM145 210h-90v89h90v-89zM145 108h-90v90h90v-90z
M145 7h-90v89h90v-89zM347 515h-89v89h89v-89zM246 515h-89v89h89v-89z" />
    <glyph glyph-name="B" unicode="B" horiz-adv-x="717" 
d="M550 615h-89v90h89v-90zM652 514h-90v89h90v-89zM449 615h-89v90h89v-90zM550 514h-89v89h89v-89zM652 412h-90v90h90v-90zM348 615h-90v90h90v-90zM550 412h-89v90h89v-90zM246 615h-89v90h89v-90zM550 311h-89v89h89v-89zM652 210h-90v89h90v-89zM145 615h-90v90h90
v-90zM246 514h-89v89h89v-89zM652 108h-90v90h90v-90zM449 311h-89v89h89v-89zM550 210h-89v89h89v-89zM145 514h-90v89h90v-89zM246 412h-89v90h89v-90zM348 311h-90v89h90v-89zM550 108h-89v90h89v-90zM145 412h-90v90h90v-90zM246 311h-89v89h89v-89zM550 7h-89v89h89
v-89zM145 311h-90v89h90v-89zM246 210h-89v89h89v-89zM449 7h-89v89h89v-89zM246 108h-89v90h89v-90zM348 7h-90v89h90v-89zM145 210h-90v89h90v-89zM145 108h-90v90h90v-90zM246 7h-89v89h89v-89zM145 7h-90v89h90v-89z" />
    <glyph glyph-name="C" unicode="C" horiz-adv-x="708" 
d="M652 615h-90v90h90v-90zM550 615h-89v90h89v-90zM449 615h-89v90h89v-90zM348 615h-90v90h90v-90zM348 514h-90v89h90v-89zM246 514h-89v89h89v-89zM246 412h-89v90h89v-90zM145 412h-90v90h90v-90zM246 311h-89v89h89v-89zM652 3h-90v90h90v-90zM348 108h-90v90h90v-90z
M145 311h-90v89h90v-89zM246 210h-89v89h89v-89zM550 3h-89v90h89v-90zM246 108h-89v90h89v-90zM348 7h-90v89h90v-89zM145 210h-90v89h90v-89zM449 3h-89v90h89v-90z" />
    <glyph glyph-name="D" unicode="D" horiz-adv-x="799" 
d="M547 615h-90v90h90v-90zM648 514h-89v89h89v-89zM750 412h-90v90h90v-90zM445 615h-89v90h89v-90zM547 514h-90v89h90v-89zM648 412h-89v90h89v-90zM750 311h-90v89h90v-89zM344 615h-89v90h89v-90zM648 311h-89v89h89v-89zM750 210h-90v89h90v-89zM243 615h-90v90h90
v-90zM648 210h-89v89h89v-89zM141 615h-89v90h89v-90zM243 514h-90v89h90v-89zM648 108h-89v90h89v-90zM141 514h-89v89h89v-89zM243 412h-90v90h90v-90zM547 108h-90v90h90v-90zM141 412h-89v90h89v-90zM243 311h-90v89h90v-89zM547 7h-90v89h90v-89zM141 311h-89v89h89
v-89zM243 210h-90v89h90v-89zM445 7h-89v89h89v-89zM243 108h-90v90h90v-90zM141 210h-89v89h89v-89zM344 7h-89v89h89v-89zM141 108h-89v90h89v-90zM243 7h-90v89h90v-89zM141 7h-89v89h89v-89z" />
    <glyph glyph-name="E" unicode="E" horiz-adv-x="604" 
d="M552 615h-90v90h90v-90zM450 615h-89v90h89v-90zM349 615h-89v90h89v-90zM248 615h-90v90h90v-90zM450 412h-89v90h89v-90zM146 615h-89v90h89v-90zM248 514h-90v89h90v-89zM349 412h-89v90h89v-90zM146 514h-89v89h89v-89zM248 412h-90v90h90v-90zM146 412h-89v90h89
v-90zM248 311h-90v89h90v-89zM552 7h-90v89h90v-89zM146 311h-89v89h89v-89zM248 210h-90v89h90v-89zM450 7h-89v89h89v-89zM248 108h-90v90h90v-90zM146 210h-89v89h89v-89zM349 7h-89v89h89v-89zM146 108h-89v90h89v-90zM248 7h-90v89h90v-89zM146 7h-89v89h89v-89z" />
    <glyph glyph-name="F" unicode="F" horiz-adv-x="612" 
d="M550 615h-89v90h89v-90zM449 615h-89v90h89v-90zM348 615h-90v90h90v-90zM246 615h-89v90h89v-90zM449 412h-89v90h89v-90zM145 615h-90v90h90v-90zM246 514h-89v89h89v-89zM348 412h-90v90h90v-90zM145 514h-90v89h90v-89zM246 412h-89v90h89v-90zM145 412h-90v90h90
v-90zM246 311h-89v89h89v-89zM145 311h-90v89h90v-89zM246 210h-89v89h89v-89zM246 108h-89v90h89v-90zM145 210h-90v89h90v-89zM145 108h-90v90h90v-90zM246 7h-89v89h89v-89zM145 7h-90v89h90v-89z" />
    <glyph glyph-name="G" unicode="G" horiz-adv-x="826" 
d="M657 615h-90v90h90v-90zM555 615h-89v90h89v-90zM454 615h-89v90h89v-90zM758 311h-89v89h89v-89zM353 615h-90v90h90v-90zM657 311h-90v89h90v-89zM758 210h-89v89h89v-89zM353 514h-90v89h90v-89zM758 108h-89v90h89v-90zM555 311h-89v89h89v-89zM657 210h-90v89h90
v-89zM251 514h-89v89h89v-89zM657 108h-90v90h90v-90zM758 7h-89v89h89v-89zM251 412h-89v90h89v-90zM657 7h-90v89h90v-89zM150 412h-90v90h90v-90zM251 311h-89v89h89v-89zM555 7h-89v89h89v-89zM353 108h-90v90h90v-90zM150 311h-90v89h90v-89zM251 210h-89v89h89v-89z
M454 7h-89v89h89v-89zM251 108h-89v90h89v-90zM353 7h-90v89h90v-89zM150 210h-90v89h90v-89z" />
    <glyph glyph-name="H" unicode="H" horiz-adv-x="815" 
d="M753 615h-89v90h89v-90zM652 615h-90v90h90v-90zM753 514h-89v89h89v-89zM652 514h-90v89h90v-89zM753 412h-89v90h89v-90zM652 412h-90v90h90v-90zM753 311h-89v89h89v-89zM652 311h-90v89h90v-89zM753 210h-89v89h89v-89zM246 615h-89v90h89v-90zM753 108h-89v90h89
v-90zM550 311h-89v89h89v-89zM652 210h-90v89h90v-89zM145 615h-90v90h90v-90zM246 514h-89v89h89v-89zM652 108h-90v90h90v-90zM753 7h-89v89h89v-89zM449 311h-89v89h89v-89zM145 514h-90v89h90v-89zM246 412h-89v90h89v-90zM348 311h-90v89h90v-89zM652 7h-90v89h90v-89z
M145 412h-90v90h90v-90zM246 311h-89v89h89v-89zM145 311h-90v89h90v-89zM246 210h-89v89h89v-89zM246 108h-89v90h89v-90zM145 210h-90v89h90v-89zM145 108h-90v90h90v-90zM246 7h-89v89h89v-89zM145 7h-90v89h90v-89z" />
    <glyph glyph-name="I" unicode="I" horiz-adv-x="310" 
d="M256 615h-89v90h89v-90zM155 615h-90v90h90v-90zM256 514h-89v89h89v-89zM155 514h-90v89h90v-89zM256 412h-89v90h89v-90zM155 412h-90v90h90v-90zM256 311h-89v89h89v-89zM155 311h-90v89h90v-89zM256 210h-89v89h89v-89zM256 108h-89v90h89v-90zM155 210h-90v89h90
v-89zM155 108h-90v90h90v-90zM256 7h-89v89h89v-89zM155 7h-90v89h90v-89z" />
    <glyph glyph-name="J" unicode="J" horiz-adv-x="510" 
d="M449 615h-89v90h89v-90zM348 615h-90v90h90v-90zM449 514h-89v89h89v-89zM348 514h-90v89h90v-89zM449 412h-89v90h89v-90zM348 412h-90v90h90v-90zM449 311h-89v89h89v-89zM348 311h-90v89h90v-89zM449 210h-89v89h89v-89zM348 210h-90v89h90v-89zM449 108h-89v90h89
v-90zM348 108h-90v90h90v-90zM348 7h-90v89h90v-89zM246 7h-89v89h89v-89zM145 7h-90v89h90v-89z" />
    <glyph glyph-name="K" unicode="K" horiz-adv-x="705" 
d="M662 615h-90v90h90v-90zM560 615h-89v90h89v-90zM560 514h-89v89h89v-89zM459 514h-89v89h89v-89zM256 615h-89v90h89v-90zM459 412h-89v90h89v-90zM155 615h-90v90h90v-90zM256 514h-89v89h89v-89zM358 412h-90v90h90v-90zM155 514h-90v89h90v-89zM256 412h-89v90h89
v-90zM358 311h-90v89h90v-89zM560 108h-89v90h89v-90zM662 7h-90v89h90v-89zM459 210h-89v89h89v-89zM155 412h-90v90h90v-90zM256 311h-89v89h89v-89zM358 210h-90v89h90v-89zM459 108h-89v90h89v-90zM560 7h-89v89h89v-89zM155 311h-90v89h90v-89zM256 210h-89v89h89v-89z
M256 108h-89v90h89v-90zM155 210h-90v89h90v-89zM155 108h-90v90h90v-90zM256 7h-89v89h89v-89zM155 7h-90v89h90v-89z" />
    <glyph glyph-name="L" unicode="L" horiz-adv-x="618" 
d="M256 615h-89v90h89v-90zM155 615h-90v90h90v-90zM256 514h-89v89h89v-89zM155 514h-90v89h90v-89zM256 412h-89v90h89v-90zM155 412h-90v90h90v-90zM256 311h-89v89h89v-89zM560 7h-89v89h89v-89zM155 311h-90v89h90v-89zM256 210h-89v89h89v-89zM459 7h-89v89h89v-89z
M256 108h-89v90h89v-90zM358 7h-90v89h90v-89zM155 210h-90v89h90v-89zM155 108h-90v90h90v-90zM256 7h-89v89h89v-89zM155 7h-90v89h90v-89z" />
    <glyph glyph-name="M" unicode="M" horiz-adv-x="706" 
d="M653 615h-89v90h89v-90zM552 615h-90v90h90v-90zM653 514h-89v89h89v-89zM552 514h-90v89h90v-89zM653 412h-89v90h89v-90zM450 514h-89v89h89v-89zM552 412h-90v90h90v-90zM653 311h-89v89h89v-89zM450 412h-89v90h89v-90zM552 311h-90v89h90v-89zM653 210h-89v89h89
v-89zM146 615h-89v90h89v-90zM248 514h-90v89h90v-89zM653 108h-89v90h89v-90zM349 412h-89v90h89v-90zM552 210h-90v89h90v-89zM146 514h-89v89h89v-89zM248 412h-90v90h90v-90zM552 108h-90v90h90v-90zM653 7h-89v89h89v-89zM349 311h-89v89h89v-89zM146 412h-89v90h89
v-90zM552 7h-90v89h90v-89zM146 311h-89v89h89v-89zM146 210h-89v89h89v-89zM146 108h-89v90h89v-90zM146 7h-89v89h89v-89z" />
    <glyph glyph-name="N" unicode="N" horiz-adv-x="619" 
d="M560 615h-89v90h89v-90zM560 514h-89v89h89v-89zM560 412h-89v90h89v-90zM560 311h-89v89h89v-89zM155 615h-90v90h90v-90zM256 514h-89v89h89v-89zM358 412h-90v90h90v-90zM459 311h-89v89h89v-89zM560 210h-89v89h89v-89zM155 514h-90v89h90v-89zM256 412h-89v90h89
v-90zM358 311h-90v89h90v-89zM560 108h-89v90h89v-90zM459 210h-89v89h89v-89zM155 412h-90v90h90v-90zM256 311h-89v89h89v-89zM358 210h-90v89h90v-89zM459 108h-89v90h89v-90zM560 7h-89v89h89v-89zM155 311h-90v89h90v-89zM155 210h-90v89h90v-89zM155 108h-90v90h90
v-90zM155 7h-90v89h90v-89z" />
    <glyph glyph-name="O" unicode="O" horiz-adv-x="910" 
d="M652 615h-90v90h90v-90zM753 514h-89v89h89v-89zM855 412h-90v90h90v-90zM550 615h-89v90h89v-90zM652 514h-90v89h90v-89zM753 412h-89v90h89v-90zM855 311h-90v89h90v-89zM449 615h-89v90h89v-90zM753 311h-89v89h89v-89zM855 210h-90v89h90v-89zM348 615h-90v90h90
v-90zM753 210h-89v89h89v-89zM348 514h-90v89h90v-89zM753 108h-89v90h89v-90zM246 514h-89v89h89v-89zM652 108h-90v90h90v-90zM246 412h-89v90h89v-90zM652 7h-90v89h90v-89zM145 412h-90v90h90v-90zM246 311h-89v89h89v-89zM550 7h-89v89h89v-89zM348 108h-90v90h90v-90z
M145 311h-90v89h90v-89zM246 210h-89v89h89v-89zM449 7h-89v89h89v-89zM246 108h-89v90h89v-90zM348 7h-90v89h90v-89zM145 210h-90v89h90v-89z" />
    <glyph glyph-name="P" unicode="P" horiz-adv-x="712" 
d="M550 615h-89v90h89v-90zM652 514h-90v89h90v-89zM449 615h-89v90h89v-90zM550 514h-89v89h89v-89zM652 412h-90v90h90v-90zM348 615h-90v90h90v-90zM550 412h-89v90h89v-90zM246 615h-89v90h89v-90zM550 311h-89v89h89v-89zM145 615h-90v90h90v-90zM246 514h-89v89h89
v-89zM449 311h-89v89h89v-89zM145 514h-90v89h90v-89zM246 412h-89v90h89v-90zM348 311h-90v89h90v-89zM145 412h-90v90h90v-90zM246 311h-89v89h89v-89zM145 311h-90v89h90v-89zM246 210h-89v89h89v-89zM246 108h-89v90h89v-90zM145 210h-90v89h90v-89zM145 108h-90v90h90
v-90zM246 7h-89v89h89v-89zM145 7h-90v89h90v-89z" />
    <glyph glyph-name="Q" unicode="Q" horiz-adv-x="915" 
d="M855 -95h-90v90h90v-90zM753 -95h-89v90h89v-90zM652 -95h-90v90h90v-90zM652 615h-90v90h90v-90zM753 514h-89v89h89v-89zM855 412h-90v90h90v-90zM550 615h-89v90h89v-90zM652 514h-90v89h90v-89zM753 412h-89v90h89v-90zM855 311h-90v89h90v-89zM449 615h-89v90h89
v-90zM753 311h-89v89h89v-89zM855 210h-90v89h90v-89zM348 615h-90v90h90v-90zM753 210h-89v89h89v-89zM348 514h-90v89h90v-89zM753 108h-89v90h89v-90zM246 514h-89v89h89v-89zM652 108h-90v90h90v-90zM246 412h-89v90h89v-90zM652 7h-90v89h90v-89zM145 412h-90v90h90
v-90zM246 311h-89v89h89v-89zM550 7h-89v89h89v-89zM348 108h-90v90h90v-90zM145 311h-90v89h90v-89zM246 210h-89v89h89v-89zM449 7h-89v89h89v-89zM246 108h-89v90h89v-90zM348 7h-90v89h90v-89zM145 210h-90v89h90v-89z" />
    <glyph glyph-name="R" unicode="R" horiz-adv-x="805" 
d="M550 615h-89v90h89v-90zM652 514h-90v89h90v-89zM449 615h-89v90h89v-90zM550 514h-89v89h89v-89zM652 412h-90v90h90v-90zM348 615h-90v90h90v-90zM550 412h-89v90h89v-90zM246 615h-89v90h89v-90zM550 311h-89v89h89v-89zM145 615h-90v90h90v-90zM246 514h-89v89h89
v-89zM652 108h-90v90h90v-90zM449 311h-89v89h89v-89zM550 210h-89v89h89v-89zM145 514h-90v89h90v-89zM246 412h-89v90h89v-90zM348 311h-90v89h90v-89zM550 108h-89v90h89v-90zM652 7h-90v89h90v-89zM449 210h-89v89h89v-89zM145 412h-90v90h90v-90zM246 311h-89v89h89
v-89zM550 7h-89v89h89v-89zM145 311h-90v89h90v-89zM246 210h-89v89h89v-89zM246 108h-89v90h89v-90zM145 210h-90v89h90v-89zM145 108h-90v90h90v-90zM246 7h-89v89h89v-89zM145 7h-90v89h90v-89zM753 7h-90v89h90v-89z" />
    <glyph glyph-name="S" unicode="S" horiz-adv-x="605" 
d="M550 615h-89v90h89v-90zM449 615h-89v90h89v-90zM348 615h-90v90h90v-90zM246 615h-89v90h89v-90zM246 514h-89v89h89v-89zM348 412h-90v90h90v-90zM449 311h-89v89h89v-89zM550 210h-89v89h89v-89zM145 514h-90v89h90v-89zM246 412h-89v90h89v-90zM348 311h-90v89h90
v-89zM550 108h-89v90h89v-90zM449 210h-89v89h89v-89zM145 412h-90v90h90v-90zM246 311h-89v89h89v-89zM449 108h-89v90h89v-90zM449 7h-89v89h89v-89zM348 7h-90v89h90v-89zM246 7h-89v89h89v-89zM145 7h-90v89h90v-89zM347 210h-89v89h89v-89z" />
    <glyph glyph-name="T" unicode="T" horiz-adv-x="701" 
d="M550 615h-89v90h89v-90zM449 615h-89v90h89v-90zM348 615h-90v90h90v-90zM449 514h-89v89h89v-89zM246 615h-89v90h89v-90zM348 514h-90v89h90v-89zM449 412h-89v90h89v-90zM145 615h-90v90h90v-90zM348 412h-90v90h90v-90zM449 311h-89v89h89v-89zM348 311h-90v89h90
v-89zM449 210h-89v89h89v-89zM348 210h-90v89h90v-89zM449 108h-89v90h89v-90zM348 108h-90v90h90v-90zM449 7h-89v89h89v-89zM348 7h-90v89h90v-89zM650 615h-89v90h89v-90z" />
    <glyph glyph-name="U" unicode="U" horiz-adv-x="704" 
d="M652 615h-90v90h90v-90zM652 514h-90v89h90v-89zM652 412h-90v90h90v-90zM652 311h-90v89h90v-89zM246 615h-89v90h89v-90zM652 210h-90v89h90v-89zM145 615h-90v90h90v-90zM246 514h-89v89h89v-89zM652 108h-90v90h90v-90zM145 514h-90v89h90v-89zM246 412h-89v90h89
v-90zM550 108h-89v90h89v-90zM145 412h-90v90h90v-90zM246 311h-89v89h89v-89zM550 7h-89v89h89v-89zM348 108h-90v90h90v-90zM145 311h-90v89h90v-89zM246 210h-89v89h89v-89zM449 7h-89v89h89v-89zM246 108h-89v90h89v-90zM348 7h-90v89h90v-89zM145 210h-90v89h90v-89z
M145 108h-90v90h90v-90zM246 7h-89v89h89v-89z" />
    <glyph glyph-name="V" unicode="V" horiz-adv-x="803" 
d="M748 615h-89v90h89v-90zM647 615h-90v90h90v-90zM748 514h-89v89h89v-89zM647 514h-90v89h90v-89zM647 412h-90v90h90v-90zM647 311h-90v89h90v-89zM241 615h-89v90h89v-90zM545 311h-89v89h89v-89zM140 615h-90v90h90v-90zM241 514h-89v89h89v-89zM343 412h-90v90h90
v-90zM545 210h-89v89h89v-89zM140 514h-90v89h90v-89zM241 412h-89v90h89v-90zM343 311h-90v89h90v-89zM545 108h-89v90h89v-90zM241 311h-89v89h89v-89zM343 210h-90v89h90v-89zM444 108h-89v90h89v-90zM545 7h-89v89h89v-89zM343 108h-90v90h90v-90zM241 210h-89v89h89
v-89zM444 7h-89v89h89v-89zM343 7h-90v89h90v-89z" />
    <glyph glyph-name="W" unicode="W" horiz-adv-x="1112" 
d="M652 615h-90v90h90v-90zM855 412h-90v90h90v-90zM550 615h-89v90h89v-90zM652 514h-90v89h90v-89zM855 311h-90v89h90v-89zM550 514h-89v89h89v-89zM652 412h-90v90h90v-90zM855 210h-90v89h90v-89zM855 108h-90v90h90v-90zM550 412h-89v90h89v-90zM652 311h-90v89h90
v-89zM753 210h-89v89h89v-89zM246 615h-89v90h89v-90zM753 108h-89v90h89v-90zM855 7h-90v89h90v-89zM550 311h-89v89h89v-89zM652 210h-90v89h90v-89zM145 615h-90v90h90v-90zM246 514h-89v89h89v-89zM348 412h-90v90h90v-90zM753 7h-89v89h89v-89zM145 514h-90v89h90v-89z
M246 412h-89v90h89v-90zM348 311h-90v89h90v-89zM449 210h-89v89h89v-89zM246 311h-89v89h89v-89zM348 210h-90v89h90v-89zM449 108h-89v90h89v-90zM348 108h-90v90h90v-90zM246 210h-89v89h89v-89zM449 7h-89v89h89v-89zM348 7h-90v89h90v-89zM957 615h-90v90h90v-90z
M957 514h-90v89h90v-89zM957 412h-90v90h90v-90zM957 311h-90v89h90v-89zM1060 615h-90v90h90v-90z" />
    <glyph glyph-name="X" unicode="X" horiz-adv-x="715" 
d="M652 615h-90v90h90v-90zM652 514h-90v89h90v-89zM550 514h-89v89h89v-89zM550 412h-89v90h89v-90zM246 615h-89v90h89v-90zM348 514h-90v89h90v-89zM449 412h-89v90h89v-90zM145 615h-90v90h90v-90zM246 514h-89v89h89v-89zM348 412h-90v90h90v-90zM652 108h-90v90h90
v-90zM449 311h-89v89h89v-89zM550 210h-89v89h89v-89zM145 514h-90v89h90v-89zM246 412h-89v90h89v-90zM348 311h-90v89h90v-89zM550 108h-89v90h89v-90zM652 7h-90v89h90v-89zM449 210h-89v89h89v-89zM348 210h-90v89h90v-89zM449 108h-89v90h89v-90zM550 7h-89v89h89v-89z
M246 210h-89v89h89v-89zM246 108h-89v90h89v-90zM145 108h-90v90h90v-90zM145 7h-90v89h90v-89z" />
    <glyph glyph-name="Y" unicode="Y" 
d="M652 615h-90v90h90v-90zM550 615h-89v90h89v-90zM652 514h-90v89h90v-89zM550 514h-89v89h89v-89zM652 412h-90v90h90v-90zM550 412h-89v90h89v-90zM246 615h-89v90h89v-90zM550 311h-89v89h89v-89zM145 615h-90v90h90v-90zM246 514h-89v89h89v-89zM449 311h-89v89h89
v-89zM145 514h-90v89h90v-89zM246 412h-89v90h89v-90zM348 311h-90v89h90v-89zM449 210h-89v89h89v-89zM145 412h-90v90h90v-90zM246 311h-89v89h89v-89zM348 210h-90v89h90v-89zM449 108h-89v90h89v-90zM348 108h-90v90h90v-90zM449 7h-89v89h89v-89zM348 7h-90v89h90v-89z
" />
    <glyph glyph-name="Z" unicode="Z" horiz-adv-x="712" 
d="M652 615h-90v90h90v-90zM550 615h-89v90h89v-90zM652 514h-90v89h90v-89zM449 615h-89v90h89v-90zM550 514h-89v89h89v-89zM348 615h-90v90h90v-90zM449 514h-89v89h89v-89zM550 412h-89v90h89v-90zM246 615h-89v90h89v-90zM449 412h-89v90h89v-90zM145 615h-90v90h90
v-90zM348 412h-90v90h90v-90zM449 311h-89v89h89v-89zM348 311h-90v89h90v-89zM652 7h-90v89h90v-89zM246 311h-89v89h89v-89zM348 210h-90v89h90v-89zM550 7h-89v89h89v-89zM246 210h-89v89h89v-89zM449 7h-89v89h89v-89zM246 108h-89v90h89v-90zM348 7h-90v89h90v-89z
M145 210h-90v89h90v-89zM145 108h-90v90h90v-90zM246 7h-89v89h89v-89zM145 7h-90v89h90v-89z" />
    <glyph glyph-name="bracketleft" unicode="[" horiz-adv-x="405" 
d="M348 615h-90v90h90v-90zM246 615h-89v90h89v-90zM145 615h-90v90h90v-90zM246 514h-89v89h89v-89zM145 514h-90v89h90v-89zM246 412h-89v90h89v-90zM145 412h-90v90h90v-90zM246 311h-89v89h89v-89zM145 311h-90v89h90v-89zM246 210h-89v89h89v-89zM246 108h-89v90h89
v-90zM145 210h-90v89h90v-89zM145 108h-90v90h90v-90zM246 7h-89v89h89v-89zM348 -95h-90v90h90v-90zM145 7h-90v89h90v-89zM246 -95h-89v90h89v-90zM145 -95h-90v90h90v-90z" />
    <glyph glyph-name="backslash" unicode="\" horiz-adv-x="930" 
d="M256 615h-89v90h89v-90zM155 615h-90v90h90v-90zM256 514h-89v89h89v-89zM358 412h-90v90h90v-90zM459 311h-89v89h89v-89zM155 514h-90v89h90v-89zM256 412h-89v90h89v-90zM358 311h-90v89h90v-89zM560 108h-89v90h89v-90zM459 210h-89v89h89v-89zM358 210h-90v89h90
v-89zM459 108h-89v90h89v-90zM560 7h-89v89h89v-89zM459 7h-89v89h89v-89z" />
    <glyph glyph-name="bracketright" unicode="]" horiz-adv-x="412" 
d="M348 615h-90v90h90v-90zM246 615h-89v90h89v-90zM348 514h-90v89h90v-89zM145 615h-90v90h90v-90zM246 514h-89v89h89v-89zM348 412h-90v90h90v-90zM246 412h-89v90h89v-90zM348 311h-90v89h90v-89zM246 311h-89v89h89v-89zM348 210h-90v89h90v-89zM348 108h-90v90h90
v-90zM246 210h-89v89h89v-89zM246 108h-89v90h89v-90zM348 7h-90v89h90v-89zM246 7h-89v89h89v-89zM348 -95h-90v90h90v-90zM246 -95h-89v90h89v-90zM145 -95h-90v90h90v-90z" />
    <glyph glyph-name="asciicircum" unicode="^" horiz-adv-x="399" 
d="M247 813h-89v90h89v-90zM349 712h-90v89h90v-89zM146 712h-90v89h90v-89z" />
    <glyph glyph-name="underscore" unicode="_" horiz-adv-x="605" 
d="M550 -195h-89v90h89v-90zM449 -195h-89v90h89v-90zM348 -195h-90v90h90v-90zM246 -195h-89v90h89v-90zM145 -195h-90v90h90v-90z" />
    <glyph glyph-name="grave" unicode="`" horiz-adv-x="410" 
d="M256 716h-89v90h89v-90zM358 615h-90v89h90v-89zM155 716h-90v90h90v-90z" />
    <glyph glyph-name="a" unicode="a" horiz-adv-x="592" 
d="M440 412h-89v90h89v-90zM541 311h-89v89h89v-89zM339 412h-90v90h90v-90zM440 311h-89v89h89v-89zM541 210h-89v89h89v-89zM237 412h-89v90h89v-90zM541 108h-89v90h89v-90zM440 210h-89v89h89v-89zM339 210h-90v89h90v-89zM440 108h-89v90h89v-90zM541 7h-89v89h89v-89z
M237 210h-89v89h89v-89zM440 7h-89v89h89v-89zM237 108h-89v90h89v-90zM339 7h-90v89h90v-89zM136 108h-90v90h90v-90zM237 7h-89v89h89v-89z" />
    <glyph glyph-name="b" unicode="b" horiz-adv-x="628" 
d="M256 615h-89v90h89v-90zM459 412h-89v90h89v-90zM560 311h-89v89h89v-89zM155 615h-90v90h90v-90zM256 514h-89v89h89v-89zM358 412h-90v90h90v-90zM459 311h-89v89h89v-89zM560 210h-89v89h89v-89zM155 514h-90v89h90v-89zM256 412h-89v90h89v-90zM560 108h-89v90h89
v-90zM459 210h-89v89h89v-89zM155 412h-90v90h90v-90zM256 311h-89v89h89v-89zM459 108h-89v90h89v-90zM155 311h-90v89h90v-89zM256 210h-89v89h89v-89zM459 7h-89v89h89v-89zM256 108h-89v90h89v-90zM358 7h-90v89h90v-89zM155 210h-90v89h90v-89zM155 108h-90v90h90v-90z
M256 7h-89v89h89v-89zM155 7h-90v89h90v-89z" />
    <glyph glyph-name="c" unicode="c" horiz-adv-x="487" 
d="M440 412h-89v90h89v-90zM339 412h-90v90h90v-90zM237 412h-89v90h89v-90zM237 311h-89v89h89v-89zM136 311h-90v89h90v-89zM237 210h-89v89h89v-89zM440 7h-89v89h89v-89zM237 108h-89v90h89v-90zM339 7h-90v89h90v-89zM136 210h-90v89h90v-89zM136 108h-90v90h90v-90z
M237 7h-89v89h89v-89z" />
    <glyph glyph-name="d" unicode="d" horiz-adv-x="608" 
d="M541 615h-89v90h89v-90zM440 615h-89v90h89v-90zM541 514h-89v89h89v-89zM440 514h-89v89h89v-89zM541 412h-89v90h89v-90zM440 412h-89v90h89v-90zM541 311h-89v89h89v-89zM339 412h-90v90h90v-90zM440 311h-89v89h89v-89zM541 210h-89v89h89v-89zM237 412h-89v90h89
v-90zM541 108h-89v90h89v-90zM440 210h-89v89h89v-89zM237 311h-89v89h89v-89zM440 108h-89v90h89v-90zM541 7h-89v89h89v-89zM136 311h-90v89h90v-89zM237 210h-89v89h89v-89zM440 7h-89v89h89v-89zM237 108h-89v90h89v-90zM339 7h-90v89h90v-89zM136 210h-90v89h90v-89z
M136 108h-90v90h90v-90zM237 7h-89v89h89v-89z" />
    <glyph glyph-name="e" unicode="e" horiz-adv-x="603" 
d="M448 412h-89v90h89v-90zM549 311h-89v89h89v-89zM347 412h-90v90h90v-90zM448 311h-89v89h89v-89zM549 210h-89v89h89v-89zM245 412h-89v90h89v-90zM448 210h-89v89h89v-89zM245 311h-89v89h89v-89zM347 210h-90v89h90v-89zM549 7h-89v89h89v-89zM144 311h-90v89h90v-89z
M245 210h-89v89h89v-89zM448 7h-89v89h89v-89zM245 108h-89v90h89v-90zM347 7h-90v89h90v-89zM144 210h-90v89h90v-89zM144 108h-90v90h90v-90zM245 7h-89v89h89v-89z" />
    <glyph glyph-name="f" unicode="f" horiz-adv-x="387" 
d="M339 615h-89v90h89v-90zM238 615h-90v90h90v-90zM238 514h-90v89h90v-89zM339 412h-89v90h89v-90zM136 514h-89v89h89v-89zM238 412h-90v90h90v-90zM136 412h-89v90h89v-90zM238 311h-90v89h90v-89zM136 311h-89v89h89v-89zM238 210h-90v89h90v-89zM238 108h-90v90h90
v-90zM136 210h-89v89h89v-89zM136 108h-89v90h89v-90zM238 7h-90v89h90v-89zM136 7h-89v89h89v-89z" />
    <glyph glyph-name="g" unicode="g" horiz-adv-x="604" 
d="M541 412h-89v90h89v-90zM440 412h-89v90h89v-90zM541 311h-89v89h89v-89zM339 412h-90v90h90v-90zM440 311h-89v89h89v-89zM541 210h-89v89h89v-89zM237 412h-89v90h89v-90zM541 108h-89v90h89v-90zM440 210h-89v89h89v-89zM237 311h-89v89h89v-89zM440 108h-89v90h89
v-90zM541 7h-89v89h89v-89zM136 311h-90v89h90v-89zM237 210h-89v89h89v-89zM440 7h-89v89h89v-89zM541 -95h-89v90h89v-90zM237 108h-89v90h89v-90zM339 7h-90v89h90v-89zM136 210h-90v89h90v-89zM440 -95h-89v90h89v-90zM136 108h-90v90h90v-90zM237 7h-89v89h89v-89z
M440 -198h-89v90h89v-90zM339 -198h-90v90h90v-90zM237 -198h-89v90h89v-90z" />
    <glyph glyph-name="h" unicode="h" horiz-adv-x="592" 
d="M237 615h-89v90h89v-90zM440 412h-89v90h89v-90zM541 311h-89v89h89v-89zM136 615h-90v90h90v-90zM237 514h-89v89h89v-89zM339 412h-90v90h90v-90zM440 311h-89v89h89v-89zM541 210h-89v89h89v-89zM136 514h-90v89h90v-89zM237 412h-89v90h89v-90zM541 108h-89v90h89
v-90zM440 210h-89v89h89v-89zM136 412h-90v90h90v-90zM237 311h-89v89h89v-89zM440 108h-89v90h89v-90zM541 7h-89v89h89v-89zM136 311h-90v89h90v-89zM237 210h-89v89h89v-89zM440 7h-89v89h89v-89zM237 108h-89v90h89v-90zM136 210h-90v89h90v-89zM136 108h-90v90h90v-90z
M237 7h-89v89h89v-89zM136 7h-90v89h90v-89z" />
    <glyph glyph-name="i" unicode="i" horiz-adv-x="295" 
d="M237 615h-89v90h89v-90zM136 615h-90v90h90v-90zM237 412h-89v90h89v-90zM136 412h-90v90h90v-90zM237 311h-89v89h89v-89zM136 311h-90v89h90v-89zM237 210h-89v89h89v-89zM237 108h-89v90h89v-90zM136 210h-90v89h90v-89zM136 108h-90v90h90v-90zM237 7h-89v89h89v-89z
M136 7h-90v89h90v-89z" />
    <glyph glyph-name="j" unicode="j" horiz-adv-x="314" 
d="M254 615h-90v90h90v-90zM152 615h-89v90h89v-90zM254 412h-90v90h90v-90zM152 412h-89v90h89v-90zM254 311h-90v89h90v-89zM152 311h-89v89h89v-89zM254 210h-90v89h90v-89zM254 108h-90v90h90v-90zM152 210h-89v89h89v-89zM152 108h-89v90h89v-90zM254 7h-90v89h90v-89z
M152 7h-89v89h89v-89zM254 -95h-90v90h90v-90zM152 -95h-89v90h89v-90zM152 -198h-89v90h89v-90zM51 -198h-90v90h90v-90z" />
    <glyph glyph-name="k" unicode="k" horiz-adv-x="704" 
d="M541 412h-89v90h89v-90zM237 615h-89v90h89v-90zM440 412h-89v90h89v-90zM136 615h-90v90h90v-90zM237 514h-89v89h89v-89zM440 311h-89v89h89v-89zM136 514h-90v89h90v-89zM237 412h-89v90h89v-90zM339 311h-90v89h90v-89zM541 108h-89v90h89v-90zM643 7h-90v89h90v-89z
M440 210h-89v89h89v-89zM136 412h-90v90h90v-90zM237 311h-89v89h89v-89zM339 210h-90v89h90v-89zM440 108h-89v90h89v-90zM541 7h-89v89h89v-89zM136 311h-90v89h90v-89zM237 210h-89v89h89v-89zM237 108h-89v90h89v-90zM136 210h-90v89h90v-89zM136 108h-90v90h90v-90z
M237 7h-89v89h89v-89zM136 7h-90v89h90v-89z" />
    <glyph glyph-name="l" unicode="l" horiz-adv-x="299" 
d="M237 615h-89v90h89v-90zM136 615h-90v90h90v-90zM237 514h-89v89h89v-89zM136 514h-90v89h90v-89zM237 412h-89v90h89v-90zM136 412h-90v90h90v-90zM237 311h-89v89h89v-89zM136 311h-90v89h90v-89zM237 210h-89v89h89v-89zM237 108h-89v90h89v-90zM136 210h-90v89h90
v-89zM136 108h-90v90h90v-90zM237 7h-89v89h89v-89zM136 7h-90v89h90v-89z" />
    <glyph glyph-name="m" unicode="m" horiz-adv-x="904" 
d="M744 412h-89v90h89v-90zM846 311h-90v89h90v-89zM643 412h-90v90h90v-90zM744 311h-89v89h89v-89zM846 210h-90v89h90v-89zM846 108h-90v90h90v-90zM541 412h-89v90h89v-90zM744 210h-89v89h89v-89zM744 108h-89v90h89v-90zM846 7h-90v89h90v-89zM541 311h-89v89h89v-89z
M339 412h-90v90h90v-90zM744 7h-89v89h89v-89zM440 311h-89v89h89v-89zM541 210h-89v89h89v-89zM237 412h-89v90h89v-90zM541 108h-89v90h89v-90zM440 210h-89v89h89v-89zM136 412h-90v90h90v-90zM237 311h-89v89h89v-89zM440 108h-89v90h89v-90zM541 7h-89v89h89v-89z
M136 311h-90v89h90v-89zM237 210h-89v89h89v-89zM440 7h-89v89h89v-89zM237 108h-89v90h89v-90zM136 210h-90v89h90v-89zM136 108h-90v90h90v-90zM237 7h-89v89h89v-89zM136 7h-90v89h90v-89z" />
    <glyph glyph-name="n" unicode="n" horiz-adv-x="601" 
d="M440 412h-89v90h89v-90zM541 311h-89v89h89v-89zM339 412h-90v90h90v-90zM440 311h-89v89h89v-89zM541 210h-89v89h89v-89zM237 412h-89v90h89v-90zM541 108h-89v90h89v-90zM440 210h-89v89h89v-89zM136 412h-90v90h90v-90zM237 311h-89v89h89v-89zM440 108h-89v90h89
v-90zM541 7h-89v89h89v-89zM136 311h-90v89h90v-89zM237 210h-89v89h89v-89zM440 7h-89v89h89v-89zM237 108h-89v90h89v-90zM136 210h-90v89h90v-89zM136 108h-90v90h90v-90zM237 7h-89v89h89v-89zM136 7h-90v89h90v-89z" />
    <glyph glyph-name="o" unicode="o" horiz-adv-x="599" 
d="M440 412h-89v90h89v-90zM541 311h-89v89h89v-89zM339 412h-90v90h90v-90zM440 311h-89v89h89v-89zM541 210h-89v89h89v-89zM237 412h-89v90h89v-90zM541 108h-89v90h89v-90zM440 210h-89v89h89v-89zM237 311h-89v89h89v-89zM440 108h-89v90h89v-90zM136 311h-90v89h90
v-89zM237 210h-89v89h89v-89zM440 7h-89v89h89v-89zM237 108h-89v90h89v-90zM339 7h-90v89h90v-89zM136 210h-90v89h90v-89zM136 108h-90v90h90v-90zM237 7h-89v89h89v-89z" />
    <glyph glyph-name="p" unicode="p" horiz-adv-x="589" 
d="M440 412h-89v90h89v-90zM541 311h-89v89h89v-89zM339 412h-90v90h90v-90zM440 311h-89v89h89v-89zM541 210h-89v89h89v-89zM237 412h-89v90h89v-90zM541 108h-89v90h89v-90zM440 210h-89v89h89v-89zM136 412h-90v90h90v-90zM237 311h-89v89h89v-89zM440 108h-89v90h89
v-90zM136 311h-90v89h90v-89zM237 210h-89v89h89v-89zM440 7h-89v89h89v-89zM237 108h-89v90h89v-90zM339 7h-90v89h90v-89zM136 210h-90v89h90v-89zM136 108h-90v90h90v-90zM237 7h-89v89h89v-89zM136 7h-90v89h90v-89zM237 -95h-89v90h89v-90zM136 -95h-90v90h90v-90z
M237 -198h-89v90h89v-90zM136 -198h-90v90h90v-90z" />
    <glyph glyph-name="q" unicode="q" horiz-adv-x="608" 
d="M541 412h-89v90h89v-90zM440 412h-89v90h89v-90zM541 311h-89v89h89v-89zM339 412h-90v90h90v-90zM440 311h-89v89h89v-89zM541 210h-89v89h89v-89zM237 412h-89v90h89v-90zM541 108h-89v90h89v-90zM440 210h-89v89h89v-89zM237 311h-89v89h89v-89zM440 108h-89v90h89
v-90zM541 7h-89v89h89v-89zM136 311h-90v89h90v-89zM237 210h-89v89h89v-89zM440 7h-89v89h89v-89zM541 -95h-89v90h89v-90zM237 108h-89v90h89v-90zM339 7h-90v89h90v-89zM136 210h-90v89h90v-89zM440 -95h-89v90h89v-90zM136 108h-90v90h90v-90zM237 7h-89v89h89v-89z
M541 -198h-89v90h89v-90zM440 -198h-89v90h89v-90z" />
    <glyph glyph-name="r" unicode="r" horiz-adv-x="492" 
d="M440 412h-89v90h89v-90zM440 311h-89v89h89v-89zM237 412h-89v90h89v-90zM339 311h-90v89h90v-89zM136 412h-90v90h90v-90zM237 311h-89v89h89v-89zM136 311h-90v89h90v-89zM237 210h-89v89h89v-89zM237 108h-89v90h89v-90zM136 210h-90v89h90v-89zM136 108h-90v90h90
v-90zM237 7h-89v89h89v-89zM136 7h-90v89h90v-89z" />
    <glyph glyph-name="s" unicode="s" horiz-adv-x="508" 
d="M448 412h-89v90h89v-90zM347 412h-90v90h90v-90zM245 412h-89v90h89v-90zM448 210h-89v89h89v-89zM245 311h-89v89h89v-89zM347 210h-90v89h90v-89zM448 108h-89v90h89v-90zM347 108h-90v90h90v-90zM144 311h-90v89h90v-89zM245 210h-89v89h89v-89zM347 7h-90v89h90v-89z
M144 210h-90v89h90v-89zM245 7h-89v89h89v-89zM144 7h-90v89h90v-89z" />
    <glyph glyph-name="t" unicode="t" horiz-adv-x="597" 
d="M541 412h-89v90h89v-90zM339 514h-90v89h90v-89zM440 412h-89v90h89v-90zM237 514h-89v89h89v-89zM339 412h-90v90h90v-90zM237 412h-89v90h89v-90zM339 311h-90v89h90v-89zM136 412h-90v90h90v-90zM237 311h-89v89h89v-89zM339 210h-90v89h90v-89zM541 7h-89v89h89v-89z
M339 108h-90v90h90v-90zM237 210h-89v89h89v-89zM440 7h-89v89h89v-89zM237 108h-89v90h89v-90zM339 7h-90v89h90v-89z" />
    <glyph glyph-name="u" unicode="u" horiz-adv-x="604" 
d="M541 412h-89v90h89v-90zM440 412h-89v90h89v-90zM541 311h-89v89h89v-89zM440 311h-89v89h89v-89zM541 210h-89v89h89v-89zM237 412h-89v90h89v-90zM541 108h-89v90h89v-90zM440 210h-89v89h89v-89zM136 412h-90v90h90v-90zM237 311h-89v89h89v-89zM440 108h-89v90h89
v-90zM541 7h-89v89h89v-89zM136 311h-90v89h90v-89zM237 210h-89v89h89v-89zM440 7h-89v89h89v-89zM237 108h-89v90h89v-90zM339 7h-90v89h90v-89zM136 210h-90v89h90v-89zM136 108h-90v90h90v-90zM237 7h-89v89h89v-89z" />
    <glyph glyph-name="v" unicode="v" horiz-adv-x="604" 
d="M541 412h-89v90h89v-90zM440 412h-89v90h89v-90zM541 311h-89v89h89v-89zM440 311h-89v89h89v-89zM541 210h-89v89h89v-89zM237 412h-89v90h89v-90zM440 210h-89v89h89v-89zM136 412h-90v90h90v-90zM237 311h-89v89h89v-89zM440 108h-89v90h89v-90zM339 108h-90v90h90
v-90zM136 311h-90v89h90v-89zM237 210h-89v89h89v-89zM440 7h-89v89h89v-89zM237 108h-89v90h89v-90zM339 7h-90v89h90v-89zM136 210h-90v89h90v-89zM237 7h-89v89h89v-89z" />
    <glyph glyph-name="w" unicode="w" horiz-adv-x="906" 
d="M846 412h-90v90h90v-90zM744 412h-89v90h89v-90zM846 311h-90v89h90v-89zM744 311h-89v89h89v-89zM846 210h-90v89h90v-89zM541 412h-89v90h89v-90zM744 210h-89v89h89v-89zM744 108h-89v90h89v-90zM440 412h-89v90h89v-90zM541 311h-89v89h89v-89zM643 108h-90v90h90
v-90zM744 7h-89v89h89v-89zM440 311h-89v89h89v-89zM541 210h-89v89h89v-89zM237 412h-89v90h89v-90zM541 108h-89v90h89v-90zM643 7h-90v89h90v-89zM440 210h-89v89h89v-89zM136 412h-90v90h90v-90zM237 311h-89v89h89v-89zM440 108h-89v90h89v-90zM339 108h-90v90h90v-90z
M136 311h-90v89h90v-89zM237 210h-89v89h89v-89zM237 108h-89v90h89v-90zM339 7h-90v89h90v-89zM136 210h-90v89h90v-89zM237 7h-89v89h89v-89z" />
    <glyph glyph-name="x" unicode="x" horiz-adv-x="601" 
d="M549 412h-89v90h89v-90zM448 412h-89v90h89v-90zM549 311h-89v89h89v-89zM448 311h-89v89h89v-89zM245 412h-89v90h89v-90zM549 108h-89v90h89v-90zM448 210h-89v89h89v-89zM144 412h-90v90h90v-90zM245 311h-89v89h89v-89zM347 210h-90v89h90v-89zM448 108h-89v90h89
v-90zM549 7h-89v89h89v-89zM144 311h-90v89h90v-89zM245 210h-89v89h89v-89zM448 7h-89v89h89v-89zM245 108h-89v90h89v-90zM144 108h-90v90h90v-90zM245 7h-89v89h89v-89zM144 7h-90v89h90v-89z" />
    <glyph glyph-name="y" unicode="y" horiz-adv-x="601" 
d="M549 412h-89v90h89v-90zM448 412h-89v90h89v-90zM549 311h-89v89h89v-89zM448 311h-89v89h89v-89zM549 210h-89v89h89v-89zM245 412h-89v90h89v-90zM448 210h-89v89h89v-89zM144 412h-90v90h90v-90zM245 311h-89v89h89v-89zM448 108h-89v90h89v-90zM347 108h-90v90h90
v-90zM144 311h-90v89h90v-89zM245 210h-89v89h89v-89zM448 7h-89v89h89v-89zM245 108h-89v90h89v-90zM347 7h-90v89h90v-89zM144 210h-90v89h90v-89zM347 -95h-90v90h90v-90zM245 -95h-89v90h89v-90zM245 -198h-89v90h89v-90zM144 -198h-90v90h90v-90z" />
    <glyph glyph-name="z" unicode="z" horiz-adv-x="496" 
d="M440 412h-89v90h89v-90zM339 412h-90v90h90v-90zM440 311h-89v89h89v-89zM237 412h-89v90h89v-90zM339 311h-90v89h90v-89zM136 412h-90v90h90v-90zM339 210h-90v89h90v-89zM237 210h-89v89h89v-89zM440 7h-89v89h89v-89zM237 108h-89v90h89v-90zM339 7h-90v89h90v-89z
M136 108h-90v90h90v-90zM237 7h-89v89h89v-89zM136 7h-90v89h90v-89z" />
    <glyph glyph-name="braceleft" unicode="{" horiz-adv-x="500" 
d="M440 716h-89v90h89v-90zM339 716h-90v90h90v-90zM338 615h-89v89h89v-89zM237 615h-90v89h90v-89zM338 513h-89v90h89v-90zM237 513h-90v90h90v-90zM338 412h-89v89h89v-89zM237 412h-90v89h90v-89zM338 311h-89v89h89v-89zM338 209h-89v90h89v-90zM237 311h-90v89h90
v-89zM237 209h-90v90h90v-90zM338 108h-89v89h89v-89zM237 108h-90v89h90v-89zM338 6h-89v90h89v-90zM237 6h-90v90h90v-90zM440 -97h-89v90h89v-90zM339 -97h-90v90h90v-90zM133 311h-90v89h90v-89z" />
    <glyph glyph-name="bar" unicode="|" horiz-adv-x="288" 
d="M237 717h-89v90h89v-90zM136 717h-90v90h90v-90zM237 616h-89v89h89v-89zM136 616h-90v89h90v-89zM237 514h-89v90h89v-90zM136 514h-90v90h90v-90zM237 413h-89v89h89v-89zM136 413h-90v89h90v-89zM237 312h-89v89h89v-89zM237 210h-89v90h89v-90zM136 312h-90v89h90
v-89zM136 210h-90v90h90v-90zM237 109h-89v89h89v-89zM136 109h-90v89h90v-89zM237 7h-89v90h89v-90zM136 7h-90v90h90v-90zM237 -96h-89v90h89v-90zM136 -96h-90v90h90v-90z" />
    <glyph glyph-name="braceright" unicode="}" horiz-adv-x="489" 
d="M237 716h-89v90h89v-90zM339 615h-90v89h90v-89zM136 716h-90v90h90v-90zM237 615h-89v89h89v-89zM339 513h-90v90h90v-90zM237 513h-89v90h89v-90zM339 412h-90v89h90v-89zM440 311h-89v89h89v-89zM237 412h-89v89h89v-89zM339 311h-90v89h90v-89zM339 209h-90v90h90
v-90zM237 209h-89v90h89v-90zM339 108h-90v89h90v-89zM237 108h-89v89h89v-89zM339 6h-90v90h90v-90zM237 6h-89v90h89v-90zM237 -97h-89v90h89v-90zM136 -97h-90v90h90v-90z" />
    <glyph glyph-name="asciitilde" unicode="~" horiz-adv-x="701" 
d="M643 514h-90v89h90v-89zM643 412h-90v90h90v-90zM339 514h-90v89h90v-89zM440 412h-89v90h89v-90zM541 311h-89v89h89v-89zM237 514h-89v89h89v-89zM339 412h-90v90h90v-90zM440 311h-89v89h89v-89zM136 412h-90v90h90v-90zM136 311h-90v89h90v-89z" />
    <glyph glyph-name="Adieresis" unicode="&#xc4;" horiz-adv-x="592" 
d="M443 615h-90v90h90v-90zM544 514h-89v89h89v-89zM341 615h-89v90h89v-90zM443 514h-90v89h90v-89zM544 412h-89v90h89v-90zM240 615h-89v90h89v-90zM443 412h-90v90h90v-90zM544 311h-89v89h89v-89zM443 311h-90v89h90v-89zM544 210h-89v89h89v-89zM139 514h-90v89h90
v-89zM544 108h-89v90h89v-90zM341 209h-89v89h89v-89zM443 210h-90v89h90v-89zM139 412h-90v90h90v-90zM443 108h-90v90h90v-90zM544 7h-89v89h89v-89zM240 209h-89v89h89v-89zM139 311h-90v89h90v-89zM443 7h-90v89h90v-89zM139 210h-90v89h90v-89zM139 108h-90v90h90v-90z
M139 7h-90v89h90v-89zM341 515h-89v89h89v-89zM240 515h-89v89h89v-89zM242 718h-89v90h89v-90zM443 719h-89v90h89v-90z" />
    <glyph glyph-name="Aring" unicode="&#xc5;" horiz-adv-x="609" 
d="M449 615h-90v90h90v-90zM550 514h-89v89h89v-89zM347 615h-89v90h89v-90zM449 514h-90v89h90v-89zM550 412h-89v90h89v-90zM246 615h-89v90h89v-90zM449 412h-90v90h90v-90zM550 311h-89v89h89v-89zM449 311h-90v89h90v-89zM550 210h-89v89h89v-89zM145 514h-90v89h90
v-89zM550 108h-89v90h89v-90zM347 209h-89v89h89v-89zM449 210h-90v89h90v-89zM145 412h-90v90h90v-90zM449 108h-90v90h90v-90zM550 7h-89v89h89v-89zM246 209h-89v89h89v-89zM145 311h-90v89h90v-89zM449 7h-90v89h90v-89zM145 210h-90v89h90v-89zM145 108h-90v90h90v-90z
M145 7h-90v89h90v-89zM347 515h-89v89h89v-89zM246 515h-89v89h89v-89zM347 813h-89v90h89v-90zM449 712h-90v89h90v-89zM246 712h-90v89h90v-89z" />
    <glyph glyph-name="Ccedilla" unicode="&#xc7;" horiz-adv-x="708" 
d="M652 615h-90v90h90v-90zM550 615h-89v90h89v-90zM449 615h-89v90h89v-90zM348 615h-90v90h90v-90zM348 514h-90v89h90v-89zM246 514h-89v89h89v-89zM246 412h-89v90h89v-90zM145 412h-90v90h90v-90zM246 311h-89v89h89v-89zM652 3h-90v90h90v-90zM348 108h-90v90h90v-90z
M145 311h-90v89h90v-89zM246 210h-89v89h89v-89zM550 3h-89v90h89v-90zM246 108h-89v90h89v-90zM348 7h-90v89h90v-89zM145 210h-90v89h90v-89zM449 3h-89v90h89v-90zM450 -95h-89v90h89v-90zM349 -196h-90v90h90v-90z" />
    <glyph glyph-name="Eacute" unicode="&#xc9;" horiz-adv-x="609" 
d="M552 615h-90v90h90v-90zM450 615h-89v90h89v-90zM349 615h-89v90h89v-90zM248 615h-90v90h90v-90zM450 412h-89v90h89v-90zM146 615h-89v90h89v-90zM248 514h-90v89h90v-89zM349 412h-89v90h89v-90zM146 514h-89v89h89v-89zM248 412h-90v90h90v-90zM146 412h-89v90h89
v-90zM248 311h-90v89h90v-89zM552 7h-90v89h90v-89zM146 311h-89v89h89v-89zM248 210h-90v89h90v-89zM450 7h-89v89h89v-89zM248 108h-90v90h90v-90zM146 210h-89v89h89v-89zM349 7h-89v89h89v-89zM146 108h-89v90h89v-90zM248 7h-90v89h90v-89zM146 7h-89v89h89v-89z
M247 715h-89v90h89v-90zM348 820h-89v90h89v-90zM449 820h-89v90h89v-90z" />
    <glyph glyph-name="Ntilde" unicode="&#xd1;" horiz-adv-x="619" 
d="M560 615h-89v90h89v-90zM560 514h-89v89h89v-89zM560 412h-89v90h89v-90zM560 311h-89v89h89v-89zM155 615h-90v90h90v-90zM256 514h-89v89h89v-89zM358 412h-90v90h90v-90zM459 311h-89v89h89v-89zM560 210h-89v89h89v-89zM155 514h-90v89h90v-89zM256 412h-89v90h89
v-90zM358 311h-90v89h90v-89zM560 108h-89v90h89v-90zM459 210h-89v89h89v-89zM155 412h-90v90h90v-90zM256 311h-89v89h89v-89zM358 210h-90v89h90v-89zM459 108h-89v90h89v-90zM560 7h-89v89h89v-89zM155 311h-90v89h90v-89zM155 210h-90v89h90v-89zM155 108h-90v90h90
v-90zM155 7h-90v89h90v-89z" />
    <glyph glyph-name="Odieresis" unicode="&#xd6;" horiz-adv-x="910" 
d="M652 615h-90v90h90v-90zM753 514h-89v89h89v-89zM855 412h-90v90h90v-90zM550 615h-89v90h89v-90zM652 514h-90v89h90v-89zM753 412h-89v90h89v-90zM855 311h-90v89h90v-89zM449 615h-89v90h89v-90zM753 311h-89v89h89v-89zM855 210h-90v89h90v-89zM348 615h-90v90h90
v-90zM753 210h-89v89h89v-89zM348 514h-90v89h90v-89zM753 108h-89v90h89v-90zM246 514h-89v89h89v-89zM652 108h-90v90h90v-90zM246 412h-89v90h89v-90zM652 7h-90v89h90v-89zM145 412h-90v90h90v-90zM246 311h-89v89h89v-89zM550 7h-89v89h89v-89zM348 108h-90v90h90v-90z
M145 311h-90v89h90v-89zM246 210h-89v89h89v-89zM449 7h-89v89h89v-89zM246 108h-89v90h89v-90zM348 7h-90v89h90v-89zM145 210h-90v89h90v-89zM346 718h-89v90h89v-90zM651 719h-89v90h89v-90z" />
    <glyph glyph-name="Udieresis" unicode="&#xdc;" 
d="M652 615h-90v90h90v-90zM652 514h-90v89h90v-89zM652 412h-90v90h90v-90zM652 311h-90v89h90v-89zM246 615h-89v90h89v-90zM652 210h-90v89h90v-89zM145 615h-90v90h90v-90zM246 514h-89v89h89v-89zM652 108h-90v90h90v-90zM145 514h-90v89h90v-89zM246 412h-89v90h89
v-90zM550 108h-89v90h89v-90zM145 412h-90v90h90v-90zM246 311h-89v89h89v-89zM550 7h-89v89h89v-89zM348 108h-90v90h90v-90zM145 311h-90v89h90v-89zM246 210h-89v89h89v-89zM449 7h-89v89h89v-89zM246 108h-89v90h89v-90zM348 7h-90v89h90v-89zM145 210h-90v89h90v-89z
M145 108h-90v90h90v-90zM246 7h-89v89h89v-89zM242 718h-89v90h89v-90zM547 719h-89v90h89v-90z" />
    <glyph glyph-name="aacute" unicode="&#xe1;" horiz-adv-x="590" 
d="M440 412h-89v90h89v-90zM541 311h-89v89h89v-89zM339 412h-90v90h90v-90zM440 311h-89v89h89v-89zM541 210h-89v89h89v-89zM237 412h-89v90h89v-90zM541 108h-89v90h89v-90zM440 210h-89v89h89v-89zM339 210h-90v89h90v-89zM440 108h-89v90h89v-90zM541 7h-89v89h89v-89z
M237 210h-89v89h89v-89zM440 7h-89v89h89v-89zM237 108h-89v90h89v-90zM339 7h-90v89h90v-89zM136 108h-90v90h90v-90zM237 7h-89v89h89v-89zM237 614h-89v90h89v-90zM338 719h-89v90h89v-90zM439 719h-89v90h89v-90z" />
    <glyph glyph-name="agrave" unicode="&#xe0;" horiz-adv-x="599" 
d="M440 412h-89v90h89v-90zM541 311h-89v89h89v-89zM339 412h-90v90h90v-90zM440 311h-89v89h89v-89zM541 210h-89v89h89v-89zM237 412h-89v90h89v-90zM541 108h-89v90h89v-90zM440 210h-89v89h89v-89zM339 210h-90v89h90v-89zM440 108h-89v90h89v-90zM541 7h-89v89h89v-89z
M237 210h-89v89h89v-89zM440 7h-89v89h89v-89zM237 108h-89v90h89v-90zM339 7h-90v89h90v-89zM136 108h-90v90h90v-90zM237 7h-89v89h89v-89zM335 716h-89v90h89v-90zM437 615h-90v89h90v-89zM234 716h-90v90h90v-90z" />
    <glyph glyph-name="acircumflex" unicode="&#xe2;" horiz-adv-x="596" 
d="M440 412h-89v90h89v-90zM541 311h-89v89h89v-89zM339 412h-90v90h90v-90zM440 311h-89v89h89v-89zM541 210h-89v89h89v-89zM237 412h-89v90h89v-90zM541 108h-89v90h89v-90zM440 210h-89v89h89v-89zM339 210h-90v89h90v-89zM440 108h-89v90h89v-90zM541 7h-89v89h89v-89z
M237 210h-89v89h89v-89zM440 7h-89v89h89v-89zM237 108h-89v90h89v-90zM339 7h-90v89h90v-89zM136 108h-90v90h90v-90zM237 7h-89v89h89v-89zM339 714h-89v90h89v-90zM441 613h-90v89h90v-89zM238 613h-90v89h90v-89z" />
    <glyph glyph-name="adieresis" unicode="&#xe4;" horiz-adv-x="596" 
d="M440 412h-89v90h89v-90zM541 311h-89v89h89v-89zM339 412h-90v90h90v-90zM440 311h-89v89h89v-89zM541 210h-89v89h89v-89zM237 412h-89v90h89v-90zM541 108h-89v90h89v-90zM440 210h-89v89h89v-89zM339 210h-90v89h90v-89zM440 108h-89v90h89v-90zM541 7h-89v89h89v-89z
M237 210h-89v89h89v-89zM440 7h-89v89h89v-89zM237 108h-89v90h89v-90zM339 7h-90v89h90v-89zM136 108h-90v90h90v-90zM237 7h-89v89h89v-89zM237 718h-89v90h89v-90zM439 719h-89v90h89v-90z" />
    <glyph glyph-name="atilde" unicode="&#xe3;" horiz-adv-x="691" 
d="M440 412h-89v90h89v-90zM541 311h-89v89h89v-89zM339 412h-90v90h90v-90zM440 311h-89v89h89v-89zM541 210h-89v89h89v-89zM237 412h-89v90h89v-90zM541 108h-89v90h89v-90zM440 210h-89v89h89v-89zM339 210h-90v89h90v-89zM440 108h-89v90h89v-90zM541 7h-89v89h89v-89z
M237 210h-89v89h89v-89zM440 7h-89v89h89v-89zM237 108h-89v90h89v-90zM339 7h-90v89h90v-89zM136 108h-90v90h90v-90zM237 7h-89v89h89v-89zM643 819h-90v89h90v-89zM643 717h-90v90h90v-90zM339 819h-90v89h90v-89zM440 717h-89v90h89v-90zM541 616h-89v89h89v-89z
M237 819h-89v89h89v-89zM339 717h-90v90h90v-90zM440 616h-89v89h89v-89zM136 717h-90v90h90v-90zM136 616h-90v89h90v-89zM642 7h-89v89h89v-89z" />
    <glyph glyph-name="aring" unicode="&#xe5;" horiz-adv-x="596" 
d="M440 412h-89v90h89v-90zM541 311h-89v89h89v-89zM339 412h-90v90h90v-90zM440 311h-89v89h89v-89zM541 210h-89v89h89v-89zM237 412h-89v90h89v-90zM541 108h-89v90h89v-90zM440 210h-89v89h89v-89zM339 210h-90v89h90v-89zM440 108h-89v90h89v-90zM541 7h-89v89h89v-89z
M237 210h-89v89h89v-89zM440 7h-89v89h89v-89zM237 108h-89v90h89v-90zM339 7h-90v89h90v-89zM136 108h-90v90h90v-90zM237 7h-89v89h89v-89zM339 817h-90v90h90v-90zM440 716h-89v89h89v-89zM339 615h-90v89h90v-89zM237 716h-89v89h89v-89z" />
    <glyph glyph-name="ccedilla" unicode="&#xe7;" horiz-adv-x="513" 
d="M339 -95h-89v90h89v-90zM238 -196h-90v90h90v-90zM440 412h-89v90h89v-90zM339 412h-90v90h90v-90zM237 412h-89v90h89v-90zM237 311h-89v89h89v-89zM136 311h-90v89h90v-89zM237 210h-89v89h89v-89zM440 7h-89v89h89v-89zM237 108h-89v90h89v-90zM339 7h-90v89h90v-89z
M136 210h-90v89h90v-89zM136 108h-90v90h90v-90zM237 7h-89v89h89v-89z" />
    <glyph glyph-name="eacute" unicode="&#xe9;" horiz-adv-x="603" 
d="M448 412h-89v90h89v-90zM549 311h-89v89h89v-89zM347 412h-90v90h90v-90zM448 311h-89v89h89v-89zM549 210h-89v89h89v-89zM245 412h-89v90h89v-90zM448 210h-89v89h89v-89zM245 311h-89v89h89v-89zM347 210h-90v89h90v-89zM549 7h-89v89h89v-89zM144 311h-90v89h90v-89z
M245 210h-89v89h89v-89zM448 7h-89v89h89v-89zM245 108h-89v90h89v-90zM347 7h-90v89h90v-89zM144 210h-90v89h90v-89zM144 108h-90v90h90v-90zM245 7h-89v89h89v-89zM245 614h-89v90h89v-90zM346 719h-89v90h89v-90zM447 719h-89v90h89v-90z" />
    <glyph glyph-name="egrave" unicode="&#xe8;" horiz-adv-x="603" 
d="M448 412h-89v90h89v-90zM549 311h-89v89h89v-89zM347 412h-90v90h90v-90zM448 311h-89v89h89v-89zM549 210h-89v89h89v-89zM245 412h-89v90h89v-90zM448 210h-89v89h89v-89zM245 311h-89v89h89v-89zM347 210h-90v89h90v-89zM549 7h-89v89h89v-89zM144 311h-90v89h90v-89z
M245 210h-89v89h89v-89zM448 7h-89v89h89v-89zM245 108h-89v90h89v-90zM347 7h-90v89h90v-89zM144 210h-90v89h90v-89zM144 108h-90v90h90v-90zM245 7h-89v89h89v-89zM341 716h-89v90h89v-90zM443 615h-90v89h90v-89zM240 716h-90v90h90v-90z" />
    <glyph glyph-name="ecircumflex" unicode="&#xea;" horiz-adv-x="603" 
d="M448 412h-89v90h89v-90zM549 311h-89v89h89v-89zM347 412h-90v90h90v-90zM448 311h-89v89h89v-89zM549 210h-89v89h89v-89zM245 412h-89v90h89v-90zM448 210h-89v89h89v-89zM245 311h-89v89h89v-89zM347 210h-90v89h90v-89zM549 7h-89v89h89v-89zM144 311h-90v89h90v-89z
M245 210h-89v89h89v-89zM448 7h-89v89h89v-89zM245 108h-89v90h89v-90zM347 7h-90v89h90v-89zM144 210h-90v89h90v-89zM144 108h-90v90h90v-90zM245 7h-89v89h89v-89zM346 714h-89v90h89v-90zM448 613h-90v89h90v-89zM245 613h-90v89h90v-89z" />
    <glyph glyph-name="edieresis" unicode="&#xeb;" horiz-adv-x="603" 
d="M448 412h-89v90h89v-90zM549 311h-89v89h89v-89zM347 412h-90v90h90v-90zM448 311h-89v89h89v-89zM549 210h-89v89h89v-89zM245 412h-89v90h89v-90zM448 210h-89v89h89v-89zM245 311h-89v89h89v-89zM347 210h-90v89h90v-89zM549 7h-89v89h89v-89zM144 311h-90v89h90v-89z
M245 210h-89v89h89v-89zM448 7h-89v89h89v-89zM245 108h-89v90h89v-90zM347 7h-90v89h90v-89zM144 210h-90v89h90v-89zM144 108h-90v90h90v-90zM245 7h-89v89h89v-89zM243 718h-89v90h89v-90zM445 719h-89v90h89v-90z" />
    <glyph glyph-name="iacute" unicode="&#xed;" horiz-adv-x="286" 
d="M233 716h-89v90h89v-90zM132 615h-90v89h90v-89zM237 412h-89v90h89v-90zM136 412h-90v90h90v-90zM237 311h-89v89h89v-89zM136 311h-90v89h90v-89zM237 210h-89v89h89v-89zM237 108h-89v90h89v-90zM136 210h-90v89h90v-89zM136 108h-90v90h90v-90zM237 7h-89v89h89v-89z
M136 7h-90v89h90v-89z" />
    <glyph glyph-name="igrave" unicode="&#xec;" horiz-adv-x="237" 
d="M134 718h-89v90h89v-90zM236 617h-90v89h90v-89zM237 412h-89v90h89v-90zM136 412h-90v90h90v-90zM237 311h-89v89h89v-89zM136 311h-90v89h90v-89zM237 210h-89v89h89v-89zM237 108h-89v90h89v-90zM136 210h-90v89h90v-89zM136 108h-90v90h90v-90zM237 7h-89v89h89v-89z
M136 7h-90v89h90v-89z" />
    <glyph glyph-name="icircumflex" unicode="&#xee;" horiz-adv-x="399" 
d="M247 813h-89v90h89v-90zM349 712h-90v89h90v-89zM146 712h-90v89h90v-89zM237 412h-89v90h89v-90zM136 412h-90v90h90v-90zM237 311h-89v89h89v-89zM136 311h-90v89h90v-89zM237 210h-89v89h89v-89zM237 108h-89v90h89v-90zM136 210h-90v89h90v-89zM136 108h-90v90h90
v-90zM237 7h-89v89h89v-89zM136 7h-90v89h90v-89z" />
    <glyph glyph-name="idieresis" unicode="&#xef;" horiz-adv-x="399" 
d="M326 712h-90v89h90v-89zM42 712h-90v89h90v-89zM237 412h-89v90h89v-90zM136 412h-90v90h90v-90zM237 311h-89v89h89v-89zM136 311h-90v89h90v-89zM237 210h-89v89h89v-89zM237 108h-89v90h89v-90zM136 210h-90v89h90v-89zM136 108h-90v90h90v-90zM237 7h-89v89h89v-89z
M136 7h-90v89h90v-89z" />
    <glyph glyph-name="ntilde" unicode="&#xf1;" horiz-adv-x="702" 
d="M440 412h-89v90h89v-90zM541 311h-89v89h89v-89zM339 412h-90v90h90v-90zM440 311h-89v89h89v-89zM541 210h-89v89h89v-89zM237 412h-89v90h89v-90zM541 108h-89v90h89v-90zM440 210h-89v89h89v-89zM136 412h-90v90h90v-90zM237 311h-89v89h89v-89zM440 108h-89v90h89
v-90zM541 7h-89v89h89v-89zM136 311h-90v89h90v-89zM237 210h-89v89h89v-89zM440 7h-89v89h89v-89zM237 108h-89v90h89v-90zM136 210h-90v89h90v-89zM136 108h-90v90h90v-90zM237 7h-89v89h89v-89zM136 7h-90v89h90v-89zM643 819h-90v89h90v-89zM643 717h-90v90h90v-90z
M339 819h-90v89h90v-89zM440 717h-89v90h89v-90zM541 616h-89v89h89v-89zM237 819h-89v89h89v-89zM339 717h-90v90h90v-90zM440 616h-89v89h89v-89zM136 717h-90v90h90v-90zM136 616h-90v89h90v-89zM641 7h-89v89h89v-89z" />
    <glyph glyph-name="oacute" unicode="&#xf3;" horiz-adv-x="584" 
d="M440 412h-89v90h89v-90zM541 311h-89v89h89v-89zM339 412h-90v90h90v-90zM440 311h-89v89h89v-89zM541 210h-89v89h89v-89zM237 412h-89v90h89v-90zM541 108h-89v90h89v-90zM440 210h-89v89h89v-89zM237 311h-89v89h89v-89zM440 108h-89v90h89v-90zM136 311h-90v89h90
v-89zM237 210h-89v89h89v-89zM440 7h-89v89h89v-89zM237 108h-89v90h89v-90zM339 7h-90v89h90v-89zM136 210h-90v89h90v-89zM136 108h-90v90h90v-90zM237 7h-89v89h89v-89zM237 614h-89v90h89v-90zM338 719h-89v90h89v-90zM439 719h-89v90h89v-90z" />
    <glyph glyph-name="ograve" unicode="&#xf2;" horiz-adv-x="584" 
d="M440 412h-89v90h89v-90zM541 311h-89v89h89v-89zM339 412h-90v90h90v-90zM440 311h-89v89h89v-89zM541 210h-89v89h89v-89zM237 412h-89v90h89v-90zM541 108h-89v90h89v-90zM440 210h-89v89h89v-89zM237 311h-89v89h89v-89zM440 108h-89v90h89v-90zM136 311h-90v89h90
v-89zM237 210h-89v89h89v-89zM440 7h-89v89h89v-89zM237 108h-89v90h89v-90zM339 7h-90v89h90v-89zM136 210h-90v89h90v-89zM136 108h-90v90h90v-90zM237 7h-89v89h89v-89zM335 716h-89v90h89v-90zM437 615h-90v89h90v-89zM234 716h-90v90h90v-90z" />
    <glyph glyph-name="ocircumflex" unicode="&#xf4;" horiz-adv-x="584" 
d="M440 412h-89v90h89v-90zM541 311h-89v89h89v-89zM339 412h-90v90h90v-90zM440 311h-89v89h89v-89zM541 210h-89v89h89v-89zM237 412h-89v90h89v-90zM541 108h-89v90h89v-90zM440 210h-89v89h89v-89zM237 311h-89v89h89v-89zM440 108h-89v90h89v-90zM136 311h-90v89h90
v-89zM237 210h-89v89h89v-89zM440 7h-89v89h89v-89zM237 108h-89v90h89v-90zM339 7h-90v89h90v-89zM136 210h-90v89h90v-89zM136 108h-90v90h90v-90zM237 7h-89v89h89v-89zM339 714h-89v90h89v-90zM441 613h-90v89h90v-89zM238 613h-90v89h90v-89z" />
    <glyph glyph-name="odieresis" unicode="&#xf6;" horiz-adv-x="594" 
d="M445 412h-89v90h89v-90zM546 311h-89v89h89v-89zM344 412h-90v90h90v-90zM445 311h-89v89h89v-89zM546 210h-89v89h89v-89zM242 412h-89v90h89v-90zM546 108h-89v90h89v-90zM445 210h-89v89h89v-89zM242 311h-89v89h89v-89zM445 108h-89v90h89v-90zM141 311h-90v89h90
v-89zM242 210h-89v89h89v-89zM445 7h-89v89h89v-89zM242 108h-89v90h89v-90zM344 7h-90v89h90v-89zM141 210h-90v89h90v-89zM141 108h-90v90h90v-90zM242 7h-89v89h89v-89zM242 718h-89v90h89v-90zM444 719h-89v90h89v-90z" />
    <glyph glyph-name="otilde" unicode="&#xf5;" horiz-adv-x="703" 
d="M440 412h-89v90h89v-90zM541 311h-89v89h89v-89zM339 412h-90v90h90v-90zM440 311h-89v89h89v-89zM541 210h-89v89h89v-89zM237 412h-89v90h89v-90zM541 108h-89v90h89v-90zM440 210h-89v89h89v-89zM237 311h-89v89h89v-89zM440 108h-89v90h89v-90zM136 311h-90v89h90
v-89zM237 210h-89v89h89v-89zM440 7h-89v89h89v-89zM237 108h-89v90h89v-90zM339 7h-90v89h90v-89zM136 210h-90v89h90v-89zM136 108h-90v90h90v-90zM237 7h-89v89h89v-89zM643 819h-90v89h90v-89zM643 717h-90v90h90v-90zM339 819h-90v89h90v-89zM440 717h-89v90h89v-90z
M541 616h-89v89h89v-89zM237 819h-89v89h89v-89zM339 717h-90v90h90v-90zM440 616h-89v89h89v-89zM136 717h-90v90h90v-90zM136 616h-90v89h90v-89zM642 412h-89v90h89v-90zM541 412h-90v90h90v-90z" />
    <glyph glyph-name="uacute" unicode="&#xfa;" horiz-adv-x="604" 
d="M541 412h-89v90h89v-90zM440 412h-89v90h89v-90zM541 311h-89v89h89v-89zM440 311h-89v89h89v-89zM541 210h-89v89h89v-89zM237 412h-89v90h89v-90zM541 108h-89v90h89v-90zM440 210h-89v89h89v-89zM136 412h-90v90h90v-90zM237 311h-89v89h89v-89zM440 108h-89v90h89
v-90zM541 7h-89v89h89v-89zM136 311h-90v89h90v-89zM237 210h-89v89h89v-89zM440 7h-89v89h89v-89zM237 108h-89v90h89v-90zM339 7h-90v89h90v-89zM136 210h-90v89h90v-89zM136 108h-90v90h90v-90zM237 7h-89v89h89v-89zM237 614h-89v90h89v-90zM338 719h-89v90h89v-90z
M439 719h-89v90h89v-90z" />
    <glyph glyph-name="ugrave" unicode="&#xf9;" horiz-adv-x="604" 
d="M541 412h-89v90h89v-90zM440 412h-89v90h89v-90zM541 311h-89v89h89v-89zM440 311h-89v89h89v-89zM541 210h-89v89h89v-89zM237 412h-89v90h89v-90zM541 108h-89v90h89v-90zM440 210h-89v89h89v-89zM136 412h-90v90h90v-90zM237 311h-89v89h89v-89zM440 108h-89v90h89
v-90zM541 7h-89v89h89v-89zM136 311h-90v89h90v-89zM237 210h-89v89h89v-89zM440 7h-89v89h89v-89zM237 108h-89v90h89v-90zM339 7h-90v89h90v-89zM136 210h-90v89h90v-89zM136 108h-90v90h90v-90zM237 7h-89v89h89v-89zM335 716h-89v90h89v-90zM437 615h-90v89h90v-89z
M234 716h-90v90h90v-90z" />
    <glyph glyph-name="ucircumflex" unicode="&#xfb;" horiz-adv-x="604" 
d="M541 412h-89v90h89v-90zM440 412h-89v90h89v-90zM541 311h-89v89h89v-89zM440 311h-89v89h89v-89zM541 210h-89v89h89v-89zM237 412h-89v90h89v-90zM541 108h-89v90h89v-90zM440 210h-89v89h89v-89zM136 412h-90v90h90v-90zM237 311h-89v89h89v-89zM440 108h-89v90h89
v-90zM541 7h-89v89h89v-89zM136 311h-90v89h90v-89zM237 210h-89v89h89v-89zM440 7h-89v89h89v-89zM237 108h-89v90h89v-90zM339 7h-90v89h90v-89zM136 210h-90v89h90v-89zM136 108h-90v90h90v-90zM237 7h-89v89h89v-89zM339 714h-89v90h89v-90zM441 613h-90v89h90v-89z
M238 613h-90v89h90v-89z" />
    <glyph glyph-name="udieresis" unicode="&#xfc;" horiz-adv-x="614" 
d="M551 412h-89v90h89v-90zM450 412h-89v90h89v-90zM551 311h-89v89h89v-89zM450 311h-89v89h89v-89zM551 210h-89v89h89v-89zM247 412h-89v90h89v-90zM551 108h-89v90h89v-90zM450 210h-89v89h89v-89zM146 412h-90v90h90v-90zM247 311h-89v89h89v-89zM450 108h-89v90h89
v-90zM551 7h-89v89h89v-89zM146 311h-90v89h90v-89zM247 210h-89v89h89v-89zM450 7h-89v89h89v-89zM247 108h-89v90h89v-90zM349 7h-90v89h90v-89zM146 210h-90v89h90v-89zM146 108h-90v90h90v-90zM247 7h-89v89h89v-89zM247 718h-89v90h89v-90zM449 719h-89v90h89v-90z" />
    <glyph glyph-name="dagger" unicode="&#x2020;" horiz-adv-x="388" 
d="M339 615h-90v90h90v-90zM237 615h-89v90h89v-90zM339 514h-90v89h90v-89zM136 615h-90v90h90v-90zM237 514h-89v89h89v-89zM339 412h-90v90h90v-90zM136 514h-90v89h90v-89zM237 412h-89v90h89v-90zM339 311h-90v89h90v-89zM136 412h-90v90h90v-90zM237 311h-89v89h89
v-89zM339 210h-90v89h90v-89zM339 108h-90v90h90v-90zM136 311h-90v89h90v-89zM237 210h-89v89h89v-89zM237 108h-89v90h89v-90zM339 7h-90v89h90v-89zM136 210h-90v89h90v-89zM136 108h-90v90h90v-90zM237 7h-89v89h89v-89zM339 -95h-90v90h90v-90zM136 7h-90v89h90v-89z
M237 -95h-89v90h89v-90zM136 -95h-90v90h90v-90zM339 -198h-90v90h90v-90zM237 -198h-89v90h89v-90zM136 -198h-90v90h90v-90z" />
    <glyph glyph-name="degree" unicode="&#xb0;" horiz-adv-x="287" 
d="M237 615h-89v90h89v-90zM136 615h-90v90h90v-90zM237 514h-89v89h89v-89zM136 514h-90v89h90v-89zM237 412h-89v90h89v-90zM136 412h-90v90h90v-90zM237 311h-89v89h89v-89zM136 311h-90v89h90v-89zM237 210h-89v89h89v-89zM237 108h-89v90h89v-90zM136 210h-90v89h90
v-89zM136 108h-90v90h90v-90zM237 7h-89v89h89v-89zM136 7h-90v89h90v-89zM237 -95h-89v90h89v-90zM136 -95h-90v90h90v-90zM237 -198h-89v90h89v-90zM136 -198h-90v90h90v-90z" />
    <glyph glyph-name="cent" unicode="&#xa2;" horiz-adv-x="494" 
d="M339 615h-90v90h90v-90zM440 514h-89v89h89v-89zM237 615h-89v90h89v-90zM339 514h-90v89h90v-89zM440 412h-89v90h89v-90zM237 514h-89v89h89v-89zM440 311h-89v89h89v-89zM136 514h-90v89h90v-89zM440 210h-89v89h89v-89zM136 412h-90v90h90v-90zM440 108h-89v90h89
v-90zM136 311h-90v89h90v-89zM440 7h-89v89h89v-89zM136 210h-90v89h90v-89zM440 -95h-89v90h89v-90zM136 108h-90v90h90v-90zM339 -95h-90v90h90v-90zM136 7h-90v89h90v-89zM237 -95h-89v90h89v-90zM136 -95h-90v90h90v-90z" />
    <glyph glyph-name="sterling" unicode="&#xa3;" horiz-adv-x="694" 
d="M541 615h-89v90h89v-90zM440 615h-89v90h89v-90zM339 615h-90v90h90v-90zM339 514h-90v89h90v-89zM541 311h-89v89h89v-89zM237 514h-89v89h89v-89zM339 412h-90v90h90v-90zM440 311h-89v89h89v-89zM237 412h-89v90h89v-90zM339 311h-90v89h90v-89zM643 7h-90v89h90v-89z
M237 311h-89v89h89v-89zM339 210h-90v89h90v-89zM541 7h-89v89h89v-89zM339 108h-90v90h90v-90zM136 311h-90v89h90v-89zM237 210h-89v89h89v-89zM440 7h-89v89h89v-89zM237 108h-89v90h89v-90zM339 7h-90v89h90v-89zM237 7h-89v89h89v-89zM136 7h-90v89h90v-89z" />
    <glyph glyph-name="section" unicode="&#xa7;" horiz-adv-x="698" 
d="M541 716h-89v90h89v-90zM643 615h-90v89h90v-89zM440 716h-89v90h89v-90zM541 615h-89v89h89v-89zM339 716h-90v90h90v-90zM237 716h-89v90h89v-90zM541 412h-89v89h89v-89zM643 311h-90v89h90v-89zM237 615h-89v89h89v-89zM440 412h-89v89h89v-89zM541 311h-89v89h89
v-89zM136 615h-90v89h90v-89zM237 513h-89v90h89v-90zM339 412h-90v89h90v-89zM541 209h-89v90h89v-90zM643 108h-90v89h90v-89zM136 513h-90v90h90v-90zM237 412h-89v89h89v-89zM440 209h-89v90h89v-90zM541 108h-89v89h89v-89zM643 6h-90v90h90v-90zM339 209h-90v90h90
v-90zM237 311h-89v89h89v-89zM541 6h-89v90h89v-90zM237 209h-89v90h89v-90zM136 311h-90v89h90v-89zM237 6h-89v90h89v-90zM136 6h-90v90h90v-90zM541 -97h-89v90h89v-90zM440 -97h-89v90h89v-90zM339 -97h-90v90h90v-90zM237 -97h-89v90h89v-90z" />
    <glyph glyph-name="bullet" unicode="&#x2022;" horiz-adv-x="489" 
d="M440 615h-89v90h89v-90zM339 615h-90v90h90v-90zM440 514h-89v89h89v-89zM237 615h-89v90h89v-90zM339 514h-90v89h90v-89zM440 412h-89v90h89v-90zM136 615h-90v90h90v-90zM237 514h-89v89h89v-89zM339 412h-90v90h90v-90zM440 311h-89v89h89v-89zM136 514h-90v89h90
v-89zM237 412h-89v90h89v-90zM339 311h-90v89h90v-89zM440 210h-89v89h89v-89zM136 412h-90v90h90v-90zM237 311h-89v89h89v-89zM339 210h-90v89h90v-89zM440 108h-89v90h89v-90zM339 108h-90v90h90v-90zM136 311h-90v89h90v-89zM237 210h-89v89h89v-89zM440 7h-89v89h89
v-89zM237 108h-89v90h89v-90zM339 7h-90v89h90v-89zM136 210h-90v89h90v-89zM440 -95h-89v90h89v-90zM136 108h-90v90h90v-90zM237 7h-89v89h89v-89zM339 -95h-90v90h90v-90zM136 7h-90v89h90v-89zM237 -95h-89v90h89v-90zM136 -95h-90v90h90v-90zM440 -198h-89v90h89v-90z
M339 -198h-90v90h90v-90zM237 -198h-89v90h89v-90zM136 -198h-90v90h90v-90z" />
    <glyph glyph-name="paragraph" unicode="&#xb6;" horiz-adv-x="688" 
d="M638 615h-90v90h90v-90zM536 615h-89v90h89v-90zM638 514h-90v89h90v-89zM435 615h-89v90h89v-90zM536 514h-89v89h89v-89zM638 412h-90v90h90v-90zM334 615h-90v90h90v-90zM536 412h-89v90h89v-90zM638 311h-90v89h90v-89zM232 615h-89v90h89v-90zM334 514h-90v89h90
v-89zM536 311h-89v89h89v-89zM638 210h-90v89h90v-89zM232 514h-89v89h89v-89zM334 412h-90v90h90v-90zM638 108h-90v90h90v-90zM536 210h-89v89h89v-89zM131 514h-90v89h90v-89zM232 412h-89v90h89v-90zM334 311h-90v89h90v-89zM536 108h-89v90h89v-90zM638 7h-90v89h90
v-89zM131 412h-90v90h90v-90zM232 311h-89v89h89v-89zM334 210h-90v89h90v-89zM536 7h-89v89h89v-89zM334 108h-90v90h90v-90zM334 7h-90v89h90v-89z" />
    <glyph glyph-name="germandbls" unicode="&#xdf;" horiz-adv-x="788" 
d="M541 615h-89v90h89v-90zM643 514h-90v89h90v-89zM440 615h-89v90h89v-90zM541 514h-89v89h89v-89zM339 615h-90v90h90v-90zM541 412h-89v90h89v-90zM643 311h-90v89h90v-89zM744 210h-89v89h89v-89zM237 615h-89v90h89v-90zM744 108h-89v90h89v-90zM541 311h-89v89h89
v-89zM643 210h-90v89h90v-89zM237 514h-89v89h89v-89zM643 108h-90v90h90v-90zM440 311h-89v89h89v-89zM541 210h-89v89h89v-89zM136 514h-90v89h90v-89zM237 412h-89v90h89v-90zM643 7h-90v89h90v-89zM136 412h-90v90h90v-90zM237 311h-89v89h89v-89zM541 7h-89v89h89v-89z
M136 311h-90v89h90v-89zM237 210h-89v89h89v-89zM440 7h-89v89h89v-89zM237 108h-89v90h89v-90zM136 210h-90v89h90v-89zM136 108h-90v90h90v-90zM237 7h-89v89h89v-89zM136 7h-90v89h90v-89z" />
    <glyph glyph-name="registered" unicode="&#xae;" horiz-adv-x="809" 
d="M541 615h-89v90h89v-90zM643 514h-90v89h90v-89zM744 412h-89v90h89v-90zM440 615h-89v90h89v-90zM744 311h-89v89h89v-89zM339 615h-90v90h90v-90zM541 412h-89v90h89v-90zM744 210h-89v89h89v-89zM440 412h-89v90h89v-90zM237 514h-89v89h89v-89zM339 412h-90v90h90
v-90zM643 108h-90v90h90v-90zM440 311h-89v89h89v-89zM541 210h-89v89h89v-89zM339 311h-90v89h90v-89zM136 412h-90v90h90v-90zM339 210h-90v89h90v-89zM541 7h-89v89h89v-89zM136 311h-90v89h90v-89zM440 7h-89v89h89v-89zM237 108h-89v90h89v-90zM339 7h-90v89h90v-89z
M136 210h-90v89h90v-89z" />
    <glyph glyph-name="copyright" unicode="&#xa9;" horiz-adv-x="806" 
d="M639 514h-89v89h89v-89zM741 412h-90v90h90v-90zM541 615h-89v90h89v-90zM741 311h-90v89h90v-89zM440 615h-89v90h89v-90zM741 210h-90v89h90v-89zM339 615h-90v90h90v-90zM541 412h-89v90h89v-90zM639 108h-89v90h89v-90zM440 412h-89v90h89v-90zM237 514h-89v89h89
v-89zM339 412h-90v90h90v-90zM541 210h-89v89h89v-89zM339 311h-90v89h90v-89zM440 210h-89v89h89v-89zM136 412h-90v90h90v-90zM339 210h-90v89h90v-89zM541 7h-89v89h89v-89zM136 311h-90v89h90v-89zM440 7h-89v89h89v-89zM237 108h-89v90h89v-90zM339 7h-90v89h90v-89z
M136 210h-90v89h90v-89z" />
    <glyph glyph-name="trademark" unicode="&#x2122;" horiz-adv-x="996" 
d="M846 514h-90v89h90v-89zM541 615h-89v90h89v-90zM643 514h-90v89h90v-89zM744 412h-89v90h89v-90zM541 514h-89v89h89v-89zM339 615h-90v90h90v-90zM541 412h-89v90h89v-90zM237 615h-89v90h89v-90zM136 615h-90v90h90v-90zM237 514h-89v89h89v-89zM237 412h-89v90h89
v-90zM949 615h-90v90h90v-90zM949 514h-90v89h90v-89zM949 412h-90v90h90v-90z" />
    <glyph glyph-name="acute" unicode="&#xb4;" horiz-adv-x="590" 
d="M237 614h-89v90h89v-90zM338 719h-89v90h89v-90zM439 719h-89v90h89v-90z" />
    <glyph glyph-name="dieresis" unicode="&#xa8;" horiz-adv-x="590" 
d="M237 718h-89v90h89v-90zM439 719h-89v90h89v-90z" />
    <glyph glyph-name="notequal" unicode="&#x2260;" horiz-adv-x="602" 
d="M550 412h-89v90h89v-90zM449 412h-89v90h89v-90zM348 412h-90v90h90v-90zM550 210h-89v89h89v-89zM246 412h-89v90h89v-90zM449 210h-89v89h89v-89zM145 412h-90v90h90v-90zM348 210h-90v89h90v-89zM246 210h-89v89h89v-89zM145 210h-90v89h90v-89zM449 513h-89v90h89
v-90zM348 311h-90v90h90v-90zM246 110h-89v89h89v-89z" />
    <glyph glyph-name="AE" unicode="&#xc6;" horiz-adv-x="903" 
d="M347 615h-89v90h89v-90zM246 615h-89v90h89v-90zM145 514h-90v89h90v-89zM347 209h-89v89h89v-89zM145 412h-90v90h90v-90zM246 209h-89v89h89v-89zM145 311h-90v89h90v-89zM145 210h-90v89h90v-89zM145 108h-90v90h90v-90zM145 7h-90v89h90v-89zM347 515h-89v89h89v-89z
M246 515h-89v89h89v-89zM855 615h-90v90h90v-90zM753 615h-89v90h89v-90zM652 615h-89v90h89v-90zM551 615h-90v90h90v-90zM753 412h-89v90h89v-90zM449 615h-89v90h89v-90zM551 514h-90v89h90v-89zM652 412h-89v90h89v-90zM449 514h-89v89h89v-89zM551 412h-90v90h90v-90z
M449 412h-89v90h89v-90zM551 311h-90v89h90v-89zM855 7h-90v89h90v-89zM449 311h-89v89h89v-89zM551 210h-90v89h90v-89zM753 7h-89v89h89v-89zM551 108h-90v90h90v-90zM449 210h-89v89h89v-89zM652 7h-89v89h89v-89zM449 108h-89v90h89v-90zM551 7h-90v89h90v-89zM449 7
h-89v89h89v-89z" />
    <glyph glyph-name="Oslash" unicode="&#xd8;" horiz-adv-x="915" 
d="M652 615h-90v90h90v-90zM753 514h-89v89h89v-89zM855 412h-90v90h90v-90zM550 615h-89v90h89v-90zM652 514h-90v89h90v-89zM753 412h-89v90h89v-90zM855 311h-90v89h90v-89zM449 615h-89v90h89v-90zM753 311h-89v89h89v-89zM855 210h-90v89h90v-89zM348 615h-90v90h90
v-90zM753 210h-89v89h89v-89zM348 514h-90v89h90v-89zM753 108h-89v90h89v-90zM246 514h-89v89h89v-89zM652 108h-90v90h90v-90zM246 412h-89v90h89v-90zM652 7h-90v89h90v-89zM145 412h-90v90h90v-90zM246 311h-89v89h89v-89zM550 7h-89v89h89v-89zM348 108h-90v90h90v-90z
M145 311h-90v89h90v-89zM246 210h-89v89h89v-89zM449 7h-89v89h89v-89zM348 7h-90v89h90v-89zM145 210h-90v89h90v-89zM652 514h-90v89h90v-89zM550 412h-89v90h89v-90zM449 311h-89v89h89v-89zM348 210h-90v89h90v-89z" />
    <glyph glyph-name="infinity" unicode="&#x221e;" horiz-adv-x="392" 
d="M339 312h-90v89h90v-89zM237 312h-89v89h89v-89zM136 312h-90v89h90v-89zM339 413h-90v89h90v-89zM237 413h-89v89h89v-89zM136 413h-90v89h90v-89z" />
    <glyph glyph-name="plusminus" unicode="&#xb1;" horiz-adv-x="597" 
d="M339 412h-90v90h90v-90zM541 210h-89v89h89v-89zM339 311h-90v89h90v-89zM440 210h-89v89h89v-89zM339 210h-90v89h90v-89zM237 210h-89v89h89v-89zM136 210h-90v89h90v-89zM339 716h-90v90h90v-90zM541 514h-89v89h89v-89zM339 615h-90v89h90v-89zM440 514h-89v89h89
v-89zM339 514h-90v89h90v-89zM237 514h-89v89h89v-89zM136 514h-90v89h90v-89z" />
    <glyph glyph-name="lessequal" unicode="&#x2264;" horiz-adv-x="889" 
d="M846 311h-90v89h90v-89zM744 311h-89v89h89v-89zM846 210h-90v89h90v-89zM744 210h-89v89h89v-89zM339 514h-90v89h90v-89zM541 311h-89v89h89v-89zM339 412h-90v90h90v-90zM440 311h-89v89h89v-89zM541 210h-89v89h89v-89zM237 412h-89v90h89v-90zM339 311h-90v89h90
v-89zM440 210h-89v89h89v-89zM237 311h-89v89h89v-89zM339 210h-90v89h90v-89zM339 108h-90v90h90v-90zM136 311h-90v89h90v-89zM237 210h-89v89h89v-89zM237 108h-89v90h89v-90zM339 7h-90v89h90v-89zM136 210h-90v89h90v-89z" />
    <glyph glyph-name="greaterequal" unicode="&#x2265;" horiz-adv-x="889" 
d="M643 514h-90v89h90v-89zM744 412h-89v90h89v-90zM846 311h-90v89h90v-89zM643 412h-90v90h90v-90zM744 311h-89v89h89v-89zM846 210h-90v89h90v-89zM643 311h-90v89h90v-89zM744 210h-89v89h89v-89zM744 108h-89v90h89v-90zM541 311h-89v89h89v-89zM643 210h-90v89h90
v-89zM643 108h-90v90h90v-90zM440 311h-89v89h89v-89zM541 210h-89v89h89v-89zM541 198zM643 7h-90v89h90v-89zM440 210h-89v89h89v-89zM237 311h-89v89h89v-89zM440 198zM136 311h-90v89h90v-89zM237 210h-89v89h89v-89zM237 198zM136 210h-90v89h90v-89zM136 198z" />
    <glyph glyph-name="yen" unicode="&#xa5;" horiz-adv-x="698" 
d="M643 210h-90v89h90v-89zM541 210h-89v89h89v-89zM643 7h-90v89h90v-89zM541 7h-89v89h89v-89zM237 210h-89v89h89v-89zM136 210h-90v89h90v-89zM237 7h-89v89h89v-89zM136 7h-90v89h90v-89zM644 615h-90v90h90v-90zM542 615h-89v90h89v-90zM644 514h-90v89h90v-89z
M542 514h-89v89h89v-89zM644 412h-90v90h90v-90zM542 412h-89v90h89v-90zM238 615h-89v90h89v-90zM542 311h-89v89h89v-89zM137 615h-90v90h90v-90zM238 514h-89v89h89v-89zM441 311h-89v89h89v-89zM137 514h-90v89h90v-89zM238 412h-89v90h89v-90zM340 311h-90v89h90v-89z
M441 210h-89v89h89v-89zM137 412h-90v90h90v-90zM238 311h-89v89h89v-89zM340 210h-90v89h90v-89zM441 108h-89v90h89v-90zM340 108h-90v90h90v-90zM441 7h-89v89h89v-89zM340 7h-90v89h90v-89z" />
    <glyph glyph-name="mu" unicode="&#xb5;" horiz-adv-x="809" 
d="M744 412h-89v90h89v-90zM643 412h-90v90h90v-90zM744 311h-89v89h89v-89zM541 412h-89v90h89v-90zM643 311h-90v89h90v-89zM744 210h-89v89h89v-89zM744 108h-89v90h89v-90zM440 412h-89v90h89v-90zM339 412h-90v90h90v-90zM744 7h-89v89h89v-89zM541 210h-89v89h89v-89z
M237 412h-89v90h89v-90zM643 7h-90v89h90v-89zM136 412h-90v90h90v-90zM237 311h-89v89h89v-89zM339 210h-90v89h90v-89zM440 108h-89v90h89v-90zM541 7h-89v89h89v-89zM136 311h-90v89h90v-89zM440 7h-89v89h89v-89zM339 7h-90v89h90v-89zM136 210h-90v89h90v-89zM136 108
h-90v90h90v-90zM237 7h-89v89h89v-89zM136 7h-90v89h90v-89z" />
    <glyph glyph-name="mu" unicode="&#x3bc;" horiz-adv-x="809" 
d="M744 412h-89v90h89v-90zM643 412h-90v90h90v-90zM744 311h-89v89h89v-89zM541 412h-89v90h89v-90zM643 311h-90v89h90v-89zM744 210h-89v89h89v-89zM744 108h-89v90h89v-90zM440 412h-89v90h89v-90zM339 412h-90v90h90v-90zM744 7h-89v89h89v-89zM541 210h-89v89h89v-89z
M237 412h-89v90h89v-90zM643 7h-90v89h90v-89zM136 412h-90v90h90v-90zM237 311h-89v89h89v-89zM339 210h-90v89h90v-89zM440 108h-89v90h89v-90zM541 7h-89v89h89v-89zM136 311h-90v89h90v-89zM440 7h-89v89h89v-89zM339 7h-90v89h90v-89zM136 210h-90v89h90v-89zM136 108
h-90v90h90v-90zM237 7h-89v89h89v-89zM136 7h-90v89h90v-89z" />
    <glyph glyph-name="partialdiff" unicode="&#x2202;" horiz-adv-x="496" 
d="M237 615h-89v90h89v-90zM339 514h-90v89h90v-89zM440 412h-89v90h89v-90zM136 615h-90v90h90v-90zM237 514h-89v89h89v-89zM440 311h-89v89h89v-89zM339 311h-90v89h90v-89zM440 210h-89v89h89v-89zM237 311h-89v89h89v-89zM440 108h-89v90h89v-90zM339 7h-90v89h90v-89z
M136 210h-90v89h90v-89zM136 108h-90v90h90v-90zM237 7h-89v89h89v-89z" />
    <glyph glyph-name="summation" unicode="&#x2211;" horiz-adv-x="593" 
d="M541 615h-89v90h89v-90zM440 615h-89v90h89v-90zM339 615h-90v90h90v-90zM237 615h-89v90h89v-90zM136 615h-90v90h90v-90zM237 514h-89v89h89v-89zM339 412h-90v90h90v-90zM440 311h-89v89h89v-89zM136 514h-90v89h90v-89zM237 412h-89v90h89v-90zM339 311h-90v89h90
v-89zM339 210h-90v89h90v-89zM541 7h-89v89h89v-89zM237 210h-89v89h89v-89zM440 7h-89v89h89v-89zM237 108h-89v90h89v-90zM339 7h-90v89h90v-89zM136 108h-90v90h90v-90zM237 7h-89v89h89v-89zM136 7h-90v89h90v-89z" />
    <glyph glyph-name="product" unicode="&#x220f;" horiz-adv-x="806" 
d="M744 514h-89v89h89v-89zM440 615h-89v90h89v-90zM643 412h-90v90h90v-90zM440 514h-89v89h89v-89zM440 412h-89v90h89v-90zM541 210h-89v89h89v-89zM136 514h-90v89h90v-89zM237 412h-89v90h89v-90zM643 7h-90v89h90v-89zM744 -95h-89v90h89v-90zM440 210h-89v89h89v-89z
M339 210h-90v89h90v-89zM440 108h-89v90h89v-90zM440 7h-89v89h89v-89zM440 -95h-89v90h89v-90zM237 7h-89v89h89v-89zM136 -95h-90v90h90v-90zM440 -198h-89v90h89v-90z" />
    <glyph glyph-name="pi" unicode="&#x3c0;" horiz-adv-x="812" 
d="M440 514h-89v89h89v-89zM541 412h-89v90h89v-90zM643 311h-90v89h90v-89zM440 412h-89v90h89v-90zM541 311h-89v89h89v-89zM643 210h-90v89h90v-89zM339 412h-90v90h90v-90zM643 108h-90v90h90v-90zM339 311h-90v89h90v-89zM643 7h-90v89h90v-89zM744 -95h-89v90h89v-90z
M643 -95h-90v90h90v-90zM237 210h-89v89h89v-89zM541 -95h-89v90h89v-90zM237 108h-89v90h89v-90zM440 -95h-89v90h89v-90zM237 7h-89v89h89v-89zM339 -95h-90v90h90v-90zM237 -95h-89v90h89v-90zM136 -95h-90v90h90v-90zM440 -198h-89v90h89v-90zM239 311h-90v89h90v-89z
" />
    <glyph glyph-name="integral" unicode="&#x222b;" horiz-adv-x="504" 
d="M248 806h89v-90h-89v90zM146 704h90v-89h-90v89zM349 806h90v-90h-90v90zM248 704h89v-89h-89v89zM146 603h90v-90h-90v90zM248 603h89v-90h-89v90zM146 501h90v-89h-90v89zM339 311h-89v89h89v-89zM248 501h89v-89h-89v89zM238 311h-90v89h90v-89zM339 209h-90v90h90
v-90zM237 209h-89v90h89v-90zM339 108h-90v89h90v-89zM237 108h-89v89h89v-89zM339 6h-90v90h90v-90zM237 6h-89v90h89v-90zM237 -97h-89v90h89v-90zM136 -97h-90v90h90v-90z" />
    <glyph glyph-name="ordfeminine" unicode="&#xaa;" horiz-adv-x="602" 
d="M339 817h-90v90h90v-90zM440 716h-89v89h89v-89zM339 615h-90v89h90v-89zM237 716h-89v89h89v-89zM443 312h-90v89h90v-89zM341 312h-89v89h89v-89zM240 312h-90v89h90v-89zM440 615h-89v89h89v-89z" />
    <glyph glyph-name="ordmasculine" unicode="&#xba;" horiz-adv-x="596" 
d="M339 817h-90v90h90v-90zM440 716h-89v89h89v-89zM339 615h-90v89h90v-89zM237 716h-89v89h89v-89zM446 312h-90v89h90v-89zM344 312h-89v89h89v-89zM243 312h-90v89h90v-89z" />
    <glyph glyph-name="Omega" unicode="&#x3a9;" horiz-adv-x="915" 
d="M652 615h-90v90h90v-90zM753 514h-89v89h89v-89zM855 412h-90v90h90v-90zM550 615h-89v90h89v-90zM652 514h-90v89h90v-89zM753 412h-89v90h89v-90zM855 311h-90v89h90v-89zM449 615h-89v90h89v-90zM753 311h-89v89h89v-89zM855 210h-90v89h90v-89zM348 615h-90v90h90
v-90zM753 210h-89v89h89v-89zM348 514h-90v89h90v-89zM753 108h-89v90h89v-90zM246 514h-89v89h89v-89zM652 108h-90v90h90v-90zM246 412h-89v90h89v-90zM652 7h-90v89h90v-89zM145 412h-90v90h90v-90zM246 311h-89v89h89v-89zM550 7h-89v89h89v-89zM348 108h-90v90h90v-90z
M145 311h-90v89h90v-89zM246 210h-89v89h89v-89zM449 7h-89v89h89v-89zM246 108h-89v90h89v-90zM348 7h-90v89h90v-89zM145 210h-90v89h90v-89zM856 7h-90v89h90v-89zM754 7h-89v89h89v-89zM249 7h-89v89h89v-89zM148 7h-90v89h90v-89z" />
    <glyph glyph-name="Omega" unicode="&#x2126;" horiz-adv-x="915" 
d="M652 615h-90v90h90v-90zM753 514h-89v89h89v-89zM855 412h-90v90h90v-90zM550 615h-89v90h89v-90zM652 514h-90v89h90v-89zM753 412h-89v90h89v-90zM855 311h-90v89h90v-89zM449 615h-89v90h89v-90zM753 311h-89v89h89v-89zM855 210h-90v89h90v-89zM348 615h-90v90h90
v-90zM753 210h-89v89h89v-89zM348 514h-90v89h90v-89zM753 108h-89v90h89v-90zM246 514h-89v89h89v-89zM652 108h-90v90h90v-90zM246 412h-89v90h89v-90zM652 7h-90v89h90v-89zM145 412h-90v90h90v-90zM246 311h-89v89h89v-89zM550 7h-89v89h89v-89zM348 108h-90v90h90v-90z
M145 311h-90v89h90v-89zM246 210h-89v89h89v-89zM449 7h-89v89h89v-89zM246 108h-89v90h89v-90zM348 7h-90v89h90v-89zM145 210h-90v89h90v-89zM856 7h-90v89h90v-89zM754 7h-89v89h89v-89zM249 7h-89v89h89v-89zM148 7h-90v89h90v-89z" />
    <glyph glyph-name="ae" unicode="&#xe6;" horiz-adv-x="814" 
d="M651 412h-89v90h89v-90zM752 311h-89v89h89v-89zM550 412h-90v90h90v-90zM651 311h-89v89h89v-89zM752 210h-89v89h89v-89zM651 210h-89v89h89v-89zM550 210h-90v89h90v-89zM752 7h-89v89h89v-89zM651 7h-89v89h89v-89zM550 7h-90v89h90v-89zM450 412h-89v90h89v-90z
M349 412h-90v90h90v-90zM450 311h-89v89h89v-89zM247 412h-89v90h89v-90zM450 210h-89v89h89v-89zM348 210h-89v89h89v-89zM450 108h-89v90h89v-90zM247 210h-89v89h89v-89zM450 7h-89v89h89v-89zM247 108h-89v90h89v-90zM349 7h-90v89h90v-89zM146 210h-90v89h90v-89z
M146 108h-90v90h90v-90zM247 7h-89v89h89v-89z" />
    <glyph glyph-name="oslash" unicode="&#xf8;" horiz-adv-x="584" 
d="M440 412h-89v90h89v-90zM541 311h-89v89h89v-89zM339 412h-90v90h90v-90zM440 311h-89v89h89v-89zM541 210h-89v89h89v-89zM237 412h-89v90h89v-90zM541 108h-89v90h89v-90zM440 210h-89v89h89v-89zM237 311h-89v89h89v-89zM440 108h-89v90h89v-90zM136 311h-90v89h90
v-89zM237 210h-89v89h89v-89zM440 7h-89v89h89v-89zM237 108h-89v90h89v-90zM339 7h-90v89h90v-89zM136 210h-90v89h90v-89zM136 108h-90v90h90v-90zM237 7h-89v89h89v-89zM337 210h-89v89h89v-89z" />
    <glyph glyph-name="questiondown" unicode="&#xbf;" horiz-adv-x="605" 
d="M156 97h89v-90h-89v90zM55 198h89v-89h-89v89zM257 97h90v-90h-90v90zM156 198h89v-89h-89v89zM359 97h89v-90h-89v90zM156 300h89v-90h-89v90zM460 97h90v-90h-90v90zM257 300h90v-90h-90v90zM257 401h90v-89h-90v89zM359 401h89v-89h-89v89zM257 502h90v-89h-90v89z
M359 502h89v-89h-89v89zM257 705h90v-89h-90v89zM359 705h89v-89h-89v89z" />
    <glyph glyph-name="exclamdown" unicode="&#xa1;" horiz-adv-x="289" 
d="M237 7h-89v90h89v-90zM136 7h-90v90h90v-90zM237 109h-89v89h89v-89zM136 109h-90v89h90v-89zM237 210h-89v90h89v-90zM136 210h-90v90h90v-90zM237 312h-89v89h89v-89zM136 312h-90v89h90v-89zM237 413h-89v89h89v-89zM136 413h-90v89h90v-89zM237 616h-89v89h89v-89z
M136 616h-90v89h90v-89z" />
    <glyph glyph-name="logicalnot" unicode="&#xac;" horiz-adv-x="397" 
d="M339 210h-90v89h90v-89zM339 108h-90v90h90v-90zM237 210h-89v89h89v-89zM136 210h-90v89h90v-89z" />
    <glyph glyph-name="radical" unicode="&#x221a;" horiz-adv-x="899" 
d="M837 615h-89v90h89v-90zM736 615h-89v90h89v-90zM736 514h-89v89h89v-89zM635 412h-89v90h89v-90zM534 311h-90v89h90v-89zM534 210h-90v89h90v-89zM127 210h-89v89h89v-89zM432 108h-89v90h89v-90zM229 108h-90v90h90v-90zM331 7h-90v89h90v-89z" />
    <glyph glyph-name="florin" unicode="&#x192;" horiz-adv-x="504" 
d="M249 806h89v-90h-89v90zM147 704h90v-89h-90v89zM350 806h90v-90h-90v90zM249 704h89v-89h-89v89zM147 603h90v-90h-90v90zM249 603h89v-90h-89v90zM147 501h90v-89h-90v89zM339 311h-89v89h89v-89zM249 501h89v-89h-89v89zM238 311h-90v89h90v-89zM339 209h-90v90h90
v-90zM237 209h-89v90h89v-90zM339 108h-90v89h90v-89zM237 108h-89v89h89v-89zM339 6h-90v90h90v-90zM237 6h-89v90h89v-90zM237 -97h-89v90h89v-90zM136 -97h-90v90h90v-90zM351 502h89v-89h-89v89z" />
    <glyph glyph-name="approxequal" unicode="&#x2248;" horiz-adv-x="812" 
d="M440 514h-89v89h89v-89zM541 412h-89v90h89v-90zM643 311h-90v89h90v-89zM440 412h-89v90h89v-90zM541 311h-89v89h89v-89zM643 210h-90v89h90v-89zM339 412h-90v90h90v-90zM643 108h-90v90h90v-90zM339 311h-90v89h90v-89zM643 7h-90v89h90v-89zM744 -95h-89v90h89v-90z
M643 -95h-90v90h90v-90zM237 210h-89v89h89v-89zM541 -95h-89v90h89v-90zM237 108h-89v90h89v-90zM440 -95h-89v90h89v-90zM237 7h-89v89h89v-89zM339 -95h-90v90h90v-90zM237 -95h-89v90h89v-90zM136 -95h-90v90h90v-90zM440 -198h-89v90h89v-90zM239 311h-90v89h90v-89z
M744 412h-89v90h89v-90zM541 210h-89v89h89v-89zM440 108h-89v90h89v-90zM339 7h-90v89h90v-89zM136 -198h-90v90h90v-90z" />
    <glyph glyph-name="approxequal" unicode="&#x22f2;" horiz-adv-x="812" 
d="M440 514h-89v89h89v-89zM541 412h-89v90h89v-90zM643 311h-90v89h90v-89zM440 412h-89v90h89v-90zM541 311h-89v89h89v-89zM643 210h-90v89h90v-89zM339 412h-90v90h90v-90zM643 108h-90v90h90v-90zM339 311h-90v89h90v-89zM643 7h-90v89h90v-89zM744 -95h-89v90h89v-90z
M643 -95h-90v90h90v-90zM237 210h-89v89h89v-89zM541 -95h-89v90h89v-90zM237 108h-89v90h89v-90zM440 -95h-89v90h89v-90zM237 7h-89v89h89v-89zM339 -95h-90v90h90v-90zM237 -95h-89v90h89v-90zM136 -95h-90v90h90v-90zM440 -198h-89v90h89v-90zM239 311h-90v89h90v-89z
M744 412h-89v90h89v-90zM541 210h-89v89h89v-89zM440 108h-89v90h89v-90zM339 7h-90v89h90v-89zM136 -198h-90v90h90v-90z" />
    <glyph glyph-name="Delta" unicode="&#x394;" horiz-adv-x="993" 
d="M745 615h-90v90h90v-90zM643 615h-89v90h89v-90zM745 514h-90v89h90v-89zM643 514h-89v89h89v-89zM745 412h-90v90h90v-90zM542 514h-90v89h90v-89zM745 311h-90v89h90v-89zM542 412h-90v90h90v-90zM745 210h-90v89h90v-89zM745 108h-90v90h90v-90zM440 412h-89v90h89
v-90zM745 7h-90v89h90v-89zM339 412h-89v90h89v-90zM440 311h-89v89h89v-89zM238 412h-90v90h90v-90zM745 -95h-90v90h90v-90zM440 210h-89v89h89v-89zM136 412h-89v90h89v-90zM440 108h-89v90h89v-90zM542 7h-90v89h90v-89zM643 -95h-89v90h89v-90zM136 311h-89v89h89v-89z
M440 7h-89v89h89v-89zM542 -95h-90v90h90v-90zM136 210h-89v89h89v-89zM136 108h-89v90h89v-90zM238 7h-90v89h90v-89zM136 7h-89v89h89v-89zM745 -198h-90v90h90v-90zM643 -198h-89v90h89v-90zM846 514h-90v89h90v-89zM643 311h-90v89h90v-89zM541 210h-89v89h89v-89z
M339 7h-90v89h90v-89zM237 -95h-89v90h89v-90zM136 -198h-90v90h90v-90zM944 615h-90v90h90v-90z" />
    <glyph glyph-name="Delta" unicode="&#x2206;" horiz-adv-x="993" 
d="M745 615h-90v90h90v-90zM643 615h-89v90h89v-90zM745 514h-90v89h90v-89zM643 514h-89v89h89v-89zM745 412h-90v90h90v-90zM542 514h-90v89h90v-89zM745 311h-90v89h90v-89zM542 412h-90v90h90v-90zM745 210h-90v89h90v-89zM745 108h-90v90h90v-90zM440 412h-89v90h89
v-90zM745 7h-90v89h90v-89zM339 412h-89v90h89v-90zM440 311h-89v89h89v-89zM238 412h-90v90h90v-90zM745 -95h-90v90h90v-90zM440 210h-89v89h89v-89zM136 412h-89v90h89v-90zM440 108h-89v90h89v-90zM542 7h-90v89h90v-89zM643 -95h-89v90h89v-90zM136 311h-89v89h89v-89z
M440 7h-89v89h89v-89zM542 -95h-90v90h90v-90zM136 210h-89v89h89v-89zM136 108h-89v90h89v-90zM238 7h-90v89h90v-89zM136 7h-89v89h89v-89zM745 -198h-90v90h90v-90zM643 -198h-89v90h89v-90zM846 514h-90v89h90v-89zM643 311h-90v89h90v-89zM541 210h-89v89h89v-89z
M339 7h-90v89h90v-89zM237 -95h-89v90h89v-90zM136 -198h-90v90h90v-90zM944 615h-90v90h90v-90z" />
    <glyph glyph-name="guillemotleft" unicode="&#xab;" horiz-adv-x="613" 
d="M161 311h90v89h-90v-89zM60 210h89v89h-89v-89zM161 108h90v90h-90v-90zM463 311h90v89h-90v-89zM362 210h89v89h-89v-89zM463 108h90v90h-90v-90z" />
    <glyph glyph-name="guillemotright" unicode="&#xbb;" horiz-adv-x="613" 
d="M452 311h-90v89h90v-89zM553 210h-89v89h89v-89zM452 108h-90v90h90v-90zM150 311h-90v89h90v-89zM251 210h-89v89h89v-89zM150 108h-90v90h90v-90z" />
    <glyph glyph-name="ellipsis" unicode="&#x2026;" horiz-adv-x="896" 
d="M237 7h-89v89h89v-89zM136 7h-90v89h90v-89zM538 7h-89v89h89v-89zM437 7h-90v89h90v-89zM841 7h-89v89h89v-89zM740 7h-90v89h90v-89z" />
    <glyph glyph-name="nonbreakingspace" unicode="&#xa0;" horiz-adv-x="300" 
 />
    <glyph glyph-name="Agrave" unicode="&#xc0;" horiz-adv-x="604" 
d="M345 816h-89v90h89v-90zM447 715h-90v89h90v-89zM244 816h-90v90h90v-90zM449 615h-90v90h90v-90zM550 514h-89v89h89v-89zM347 615h-89v90h89v-90zM449 514h-90v89h90v-89zM550 412h-89v90h89v-90zM246 615h-89v90h89v-90zM449 412h-90v90h90v-90zM550 311h-89v89h89
v-89zM449 311h-90v89h90v-89zM550 210h-89v89h89v-89zM145 514h-90v89h90v-89zM550 108h-89v90h89v-90zM347 209h-89v89h89v-89zM449 210h-90v89h90v-89zM145 412h-90v90h90v-90zM449 108h-90v90h90v-90zM550 7h-89v89h89v-89zM246 209h-89v89h89v-89zM145 311h-90v89h90
v-89zM449 7h-90v89h90v-89zM145 210h-90v89h90v-89zM145 108h-90v90h90v-90zM145 7h-90v89h90v-89zM347 515h-89v89h89v-89zM246 515h-89v89h89v-89z" />
    <glyph glyph-name="Atilde" unicode="&#xc3;" horiz-adv-x="702" 
d="M648 922h-90v89h90v-89zM648 820h-90v90h90v-90zM344 922h-90v89h90v-89zM445 820h-89v90h89v-90zM546 719h-89v89h89v-89zM242 922h-89v89h89v-89zM344 820h-90v90h90v-90zM445 719h-89v89h89v-89zM141 820h-90v90h90v-90zM141 719h-90v89h90v-89zM449 615h-90v90h90
v-90zM550 514h-89v89h89v-89zM347 615h-89v90h89v-90zM449 514h-90v89h90v-89zM550 412h-89v90h89v-90zM246 615h-89v90h89v-90zM449 412h-90v90h90v-90zM550 311h-89v89h89v-89zM449 311h-90v89h90v-89zM550 210h-89v89h89v-89zM145 514h-90v89h90v-89zM550 108h-89v90h89
v-90zM347 209h-89v89h89v-89zM449 210h-90v89h90v-89zM145 412h-90v90h90v-90zM449 108h-90v90h90v-90zM550 7h-89v89h89v-89zM246 209h-89v89h89v-89zM145 311h-90v89h90v-89zM449 7h-90v89h90v-89zM145 210h-90v89h90v-89zM145 108h-90v90h90v-90zM145 7h-90v89h90v-89z
M347 515h-89v89h89v-89zM246 515h-89v89h89v-89zM652 7h-89v89h89v-89z" />
    <glyph glyph-name="Otilde" unicode="&#xd5;" horiz-adv-x="917" 
d="M752 920h-90v89h90v-89zM752 818h-90v90h90v-90zM448 920h-90v89h90v-89zM549 818h-89v90h89v-90zM650 717h-89v89h89v-89zM346 920h-89v89h89v-89zM448 818h-90v90h90v-90zM549 717h-89v89h89v-89zM245 818h-90v90h90v-90zM245 717h-90v89h90v-89zM652 615h-90v90h90
v-90zM753 514h-89v89h89v-89zM855 412h-90v90h90v-90zM550 615h-89v90h89v-90zM652 514h-90v89h90v-89zM753 412h-89v90h89v-90zM855 311h-90v89h90v-89zM449 615h-89v90h89v-90zM753 311h-89v89h89v-89zM855 210h-90v89h90v-89zM348 615h-90v90h90v-90zM753 210h-89v89h89
v-89zM348 514h-90v89h90v-89zM753 108h-89v90h89v-90zM246 514h-89v89h89v-89zM652 108h-90v90h90v-90zM246 412h-89v90h89v-90zM652 7h-90v89h90v-89zM145 412h-90v90h90v-90zM246 311h-89v89h89v-89zM550 7h-89v89h89v-89zM348 108h-90v90h90v-90zM145 311h-90v89h90v-89z
M246 210h-89v89h89v-89zM449 7h-89v89h89v-89zM246 108h-89v90h89v-90zM348 7h-90v89h90v-89zM145 210h-90v89h90v-89z" />
    <glyph glyph-name="OE" unicode="&#x152;" horiz-adv-x="1118" 
d="M550 615h-89v90h89v-90zM449 615h-89v90h89v-90zM348 615h-90v90h90v-90zM348 514h-90v89h90v-89zM246 514h-89v89h89v-89zM246 412h-89v90h89v-90zM145 412h-90v90h90v-90zM246 311h-89v89h89v-89zM550 7h-89v89h89v-89zM348 108h-90v90h90v-90zM145 311h-90v89h90v-89z
M246 210h-89v89h89v-89zM449 7h-89v89h89v-89zM246 108h-89v90h89v-90zM348 7h-90v89h90v-89zM145 210h-90v89h90v-89zM1055 615h-90v90h90v-90zM953 615h-89v90h89v-90zM852 615h-89v90h89v-90zM751 615h-90v90h90v-90zM953 412h-89v90h89v-90zM649 615h-89v90h89v-90z
M751 514h-90v89h90v-89zM852 412h-89v90h89v-90zM649 514h-89v89h89v-89zM751 412h-90v90h90v-90zM649 412h-89v90h89v-90zM751 311h-90v89h90v-89zM1055 7h-90v89h90v-89zM649 311h-89v89h89v-89zM751 210h-90v89h90v-89zM953 7h-89v89h89v-89zM751 108h-90v90h90v-90z
M649 210h-89v89h89v-89zM852 7h-89v89h89v-89zM649 108h-89v90h89v-90zM751 7h-90v89h90v-89zM649 7h-89v89h89v-89z" />
    <glyph glyph-name="oe" unicode="&#x153;" horiz-adv-x="814" 
d="M651 412h-89v90h89v-90zM752 311h-89v89h89v-89zM550 412h-90v90h90v-90zM651 311h-89v89h89v-89zM752 210h-89v89h89v-89zM651 210h-89v89h89v-89zM550 210h-90v89h90v-89zM752 7h-89v89h89v-89zM651 7h-89v89h89v-89zM550 7h-90v89h90v-89zM450 412h-89v90h89v-90z
M349 412h-90v90h90v-90zM450 311h-89v89h89v-89zM247 412h-89v90h89v-90zM450 210h-89v89h89v-89zM247 311h-89v89h89v-89zM450 108h-89v90h89v-90zM146 311h-90v89h90v-89zM247 210h-89v89h89v-89zM450 7h-89v89h89v-89zM247 108h-89v90h89v-90zM349 7h-90v89h90v-89z
M146 210h-90v89h90v-89zM146 108h-90v90h90v-90zM247 7h-89v89h89v-89z" />
    <glyph glyph-name="endash" unicode="&#x2013;" horiz-adv-x="392" 
d="M339 312h-90v89h90v-89zM237 312h-89v89h89v-89zM136 312h-90v89h90v-89z" />
    <glyph glyph-name="emdash" unicode="&#x2014;" horiz-adv-x="501" 
d="M339 312h-90v89h90v-89zM237 312h-89v89h89v-89zM136 312h-90v89h90v-89zM443 312h-90v89h90v-89z" />
    <glyph glyph-name="quotedblleft" unicode="&#x201c;" horiz-adv-x="502" 
d="M254 710h89v-89h-89v89zM254 812h89v-90h-89v90zM355 915h90v-90h-90v90zM46 710h89v-89h-89v89zM46 812h89v-90h-89v90zM147 915h90v-90h-90v90z" />
    <glyph glyph-name="quotedblright" unicode="&#x201d;" horiz-adv-x="502" 
d="M237 826h-89v89h89v-89zM237 724h-89v90h89v-90zM136 621h-90v90h90v-90zM445 826h-89v89h89v-89zM445 724h-89v90h89v-90zM344 621h-90v90h90v-90z" />
    <glyph glyph-name="quoteleft" unicode="&#x2018;" horiz-adv-x="302" 
d="M46 710h89v-89h-89v89zM46 812h89v-90h-89v90zM147 915h90v-90h-90v90z" />
    <glyph glyph-name="quoteright" unicode="&#x2019;" horiz-adv-x="302" 
d="M237 826h-89v89h89v-89zM237 724h-89v90h89v-90zM136 621h-90v90h90v-90z" />
    <glyph glyph-name="divide" unicode="&#xf7;" horiz-adv-x="597" 
d="M339 412h-90v90h90v-90zM541 210h-89v89h89v-89zM440 210h-89v89h89v-89zM339 210h-90v89h90v-89zM237 210h-89v89h89v-89zM339 7h-90v89h90v-89zM136 210h-90v89h90v-89z" />
    <glyph glyph-name="lozenge" unicode="&#x25ca;" horiz-adv-x="818" 
d="M745 615h-90v90h90v-90zM643 615h-89v90h89v-90zM745 514h-90v89h90v-89zM643 514h-89v89h89v-89zM745 412h-90v90h90v-90zM542 514h-90v89h90v-89zM745 311h-90v89h90v-89zM542 412h-90v90h90v-90zM745 210h-90v89h90v-89zM745 108h-90v90h90v-90zM440 412h-89v90h89
v-90zM745 7h-90v89h90v-89zM339 412h-89v90h89v-90zM440 311h-89v89h89v-89zM238 412h-90v90h90v-90zM745 -95h-90v90h90v-90zM440 210h-89v89h89v-89zM136 412h-89v90h89v-90zM440 108h-89v90h89v-90zM542 7h-90v89h90v-89zM643 -95h-89v90h89v-90zM136 311h-89v89h89v-89z
M440 7h-89v89h89v-89zM542 -95h-90v90h90v-90zM136 210h-89v89h89v-89zM339 7h-89v89h89v-89zM136 108h-89v90h89v-90zM238 7h-90v89h90v-89zM136 7h-89v89h89v-89zM745 -198h-90v90h90v-90zM643 -198h-89v90h89v-90z" />
    <glyph glyph-name="ydieresis" unicode="&#xff;" horiz-adv-x="593" 
d="M541 412h-89v90h89v-90zM440 412h-89v90h89v-90zM541 311h-89v89h89v-89zM440 311h-89v89h89v-89zM541 210h-89v89h89v-89zM237 412h-89v90h89v-90zM440 210h-89v89h89v-89zM136 412h-90v90h90v-90zM237 311h-89v89h89v-89zM440 108h-89v90h89v-90zM339 108h-90v90h90
v-90zM136 311h-90v89h90v-89zM237 210h-89v89h89v-89zM440 7h-89v89h89v-89zM237 108h-89v90h89v-90zM339 7h-90v89h90v-89zM136 210h-90v89h90v-89zM339 -95h-90v90h90v-90zM237 -95h-89v90h89v-90zM237 -198h-89v90h89v-90zM136 -198h-90v90h90v-90zM237 718h-89v90h89
v-90zM439 719h-89v90h89v-90z" />
    <glyph glyph-name="Ydieresis" unicode="&#x178;" 
d="M550 712h-90v89h90v-89zM248 712h-90v89h90v-89zM652 615h-90v90h90v-90zM550 615h-89v90h89v-90zM652 514h-90v89h90v-89zM550 514h-89v89h89v-89zM652 412h-90v90h90v-90zM550 412h-89v90h89v-90zM246 615h-89v90h89v-90zM550 311h-89v89h89v-89zM145 615h-90v90h90
v-90zM246 514h-89v89h89v-89zM449 311h-89v89h89v-89zM145 514h-90v89h90v-89zM246 412h-89v90h89v-90zM348 311h-90v89h90v-89zM449 210h-89v89h89v-89zM145 412h-90v90h90v-90zM246 311h-89v89h89v-89zM348 210h-90v89h90v-89zM449 108h-89v90h89v-90zM348 108h-90v90h90
v-90zM449 7h-89v89h89v-89zM348 7h-90v89h90v-89z" />
    <glyph glyph-name="fraction" unicode="&#x2215;" horiz-adv-x="597" 
d="M541 615h-89v90h89v-90zM440 615h-89v90h89v-90zM541 514h-89v89h89v-89zM440 514h-89v89h89v-89zM440 412h-89v90h89v-90zM339 412h-90v90h90v-90zM339 311h-90v89h90v-89zM237 311h-89v89h89v-89zM339 210h-90v89h90v-89zM237 210h-89v89h89v-89zM237 108h-89v90h89
v-90zM136 108h-90v90h90v-90zM237 7h-89v89h89v-89zM136 7h-90v89h90v-89z" />
    <glyph glyph-name="currency" unicode="&#xa4;" horiz-adv-x="392" 
d="M339 312h-90v89h90v-89zM237 214h-89v89h89v-89zM136 312h-90v89h90v-89zM237 410h-89v89h89v-89z" />
    <glyph glyph-name="guilsinglleft" unicode="&#x2039;" horiz-adv-x="322" 
d="M161 311h90v89h-90v-89zM60 210h89v89h-89v-89zM161 108h90v90h-90v-90z" />
    <glyph glyph-name="guilsinglright" unicode="&#x203a;" horiz-adv-x="322" 
d="M150 311h-90v89h90v-89zM251 210h-89v89h89v-89zM150 108h-90v90h90v-90z" />
    <glyph glyph-name="fi" unicode="&#xfb01;" horiz-adv-x="889" 
d="M640 615h-89v90h89v-90zM539 615h-90v90h90v-90zM744 514h-89v89h89v-89zM744 412h-89v90h89v-90zM744 311h-89v89h89v-89zM339 615h-90v90h90v-90zM440 514h-89v89h89v-89zM744 210h-89v89h89v-89zM237 615h-89v90h89v-90zM744 108h-89v90h89v-90zM440 412h-89v90h89
v-90zM744 7h-89v89h89v-89zM440 311h-89v89h89v-89zM136 514h-90v89h90v-89zM744 -95h-89v90h89v-90zM440 210h-89v89h89v-89zM136 412h-90v90h90v-90zM440 108h-89v90h89v-90zM643 -95h-90v90h90v-90zM136 311h-90v89h90v-89zM440 7h-89v89h89v-89zM541 -95h-89v90h89v-90z
M136 210h-90v89h90v-89zM440 -95h-89v90h89v-90zM136 108h-90v90h90v-90zM339 -95h-90v90h90v-90zM136 7h-90v89h90v-89zM237 -95h-89v90h89v-90zM136 -95h-90v90h90v-90zM744 -198h-89v90h89v-90zM440 -198h-89v90h89v-90zM136 -198h-90v90h90v-90z" />
    <glyph glyph-name="fl" unicode="&#xfb02;" horiz-adv-x="388" 
d="M339 615h-90v90h90v-90zM237 615h-89v90h89v-90zM339 514h-90v89h90v-89zM136 615h-90v90h90v-90zM237 514h-89v89h89v-89zM339 412h-90v90h90v-90zM136 514h-90v89h90v-89zM237 412h-89v90h89v-90zM136 412h-90v90h90v-90zM237 311h-89v89h89v-89zM136 311h-90v89h90
v-89zM237 210h-89v89h89v-89zM237 108h-89v90h89v-90zM339 7h-90v89h90v-89zM136 210h-90v89h90v-89zM136 108h-90v90h90v-90zM237 7h-89v89h89v-89zM339 -95h-90v90h90v-90zM136 7h-90v89h90v-89zM237 -95h-89v90h89v-90zM136 -95h-90v90h90v-90zM339 -198h-90v90h90v-90z
M237 -198h-89v90h89v-90zM136 -198h-90v90h90v-90z" />
    <glyph glyph-name="daggerdbl" unicode="&#x2021;" horiz-adv-x="1516" 
d="M745 615h-90v90h90v-90zM643 615h-89v90h89v-90zM238 615h-90v90h90v-90zM136 514h-89v89h89v-89zM745 -95h-90v90h90v-90zM136 412h-89v90h89v-90zM643 -95h-89v90h89v-90zM136 311h-89v89h89v-89zM542 -95h-90v90h90v-90zM136 210h-89v89h89v-89zM440 -95h-89v90h89
v-90zM136 108h-89v90h89v-90zM339 -95h-89v90h89v-90zM136 7h-89v89h89v-89zM238 -95h-90v90h90v-90zM1356 615h-90v90h90v-90zM1457 514h-89v89h89v-89zM1254 615h-89v90h89v-90zM1457 412h-89v90h89v-90zM1153 615h-89v90h89v-90zM1457 311h-89v89h89v-89zM1052 615h-90
v90h90v-90zM1457 210h-89v89h89v-89zM950 615h-89v90h89v-90zM1457 108h-89v90h89v-90zM849 615h-90v90h90v-90zM1457 7h-89v89h89v-89zM1356 -95h-90v90h90v-90zM1254 -95h-89v90h89v-90zM1153 -95h-89v90h89v-90zM1052 -95h-90v90h90v-90zM950 -95h-89v90h89v-90zM849 -95
h-90v90h90v-90zM542 718h-90v89h90v-89zM440 718h-89v89h89v-89zM339 718h-89v89h89v-89z" />
    <glyph glyph-name="periodcentered" unicode="&#xb7;" horiz-adv-x="392" 
d="M237 312h-89v89h89v-89z" />
    <glyph glyph-name="periodcentered" unicode="&#x2219;" horiz-adv-x="392" 
d="M237 312h-89v89h89v-89z" />
    <glyph glyph-name="quotesinglbase" unicode="&#x201a;" horiz-adv-x="291" 
d="M237 7h-89v89h89v-89zM237 -95h-89v90h89v-90zM136 -198h-90v90h90v-90z" />
    <glyph glyph-name="quotedblbase" unicode="&#x201e;" horiz-adv-x="502" 
d="M237 7h-89v89h89v-89zM237 -95h-89v90h89v-90zM136 -198h-90v90h90v-90zM445 7h-89v89h89v-89zM445 -95h-89v90h89v-90zM344 -198h-90v90h90v-90z" />
    <glyph glyph-name="perthousand" unicode="&#x2030;" horiz-adv-x="1924" 
d="M963 615h-90v90h90v-90zM963 514h-90v89h90v-89zM758 412h-89v90h89v-90zM1052 311h-90v89h90v-89zM440 615h-89v90h89v-90zM541 514h-89v89h89v-89zM339 615h-90v90h90v-90zM440 514h-89v89h89v-89zM541 412h-89v90h89v-90zM742 311h-90v89h90v-89zM847 210h-89v89h89
v-89zM237 615h-89v90h89v-90zM847 108h-89v90h89v-90zM1052 7h-90v89h90v-89zM440 412h-89v90h89v-90zM237 514h-89v89h89v-89zM642 311h-89v89h89v-89zM644 210h-89v89h89v-89zM136 514h-90v89h90v-89zM237 412h-89v90h89v-90zM339 311h-90v89h90v-89zM543 210h-89v89h89
v-89zM136 412h-90v90h90v-90zM237 311h-89v89h89v-89zM543 108h-89v90h89v-90zM442 108h-90v90h90v-90zM442 7h-90v89h90v-89zM340 7h-89v89h89v-89zM1071 615h-90v90h90v-90zM1160 210h-90v89h90v-89zM1160 108h-90v90h90v-90zM863 514h-90v89h90v-89zM863 412h-90v90h90
v-90zM952 311h-90v89h90v-89zM952 210h-90v89h90v-89zM952 108h-90v90h90v-90zM952 400v-89h-90zM952 7h-90v89h90v-89zM1265 210h-90v89h90v-89zM1265 108h-90v90h90v-90zM1160 7h-90v89h90v-89zM1160 311h-90v89h90v-89zM440 311h-89v89h89v-89zM1667 311h-90v89h90v-89z
M1462 210h-89v89h89v-89zM1462 108h-89v90h89v-90zM1667 7h-90v89h90v-89zM1775 210h-90v89h90v-89zM1775 108h-90v90h90v-90zM1567 311h-90v89h90v-89zM1567 210h-90v89h90v-89zM1567 108h-90v90h90v-90zM1567 400v-89h-90zM1567 7h-90v89h90v-89zM1880 210h-90v89h90v-89z
M1880 108h-90v90h90v-90zM1775 7h-90v89h90v-89zM1775 311h-90v89h90v-89z" />
    <glyph glyph-name="Acircumflex" unicode="&#xc2;" horiz-adv-x="609" 
d="M449 615h-90v90h90v-90zM550 514h-89v89h89v-89zM347 615h-89v90h89v-90zM449 514h-90v89h90v-89zM550 412h-89v90h89v-90zM246 615h-89v90h89v-90zM449 412h-90v90h90v-90zM550 311h-89v89h89v-89zM449 311h-90v89h90v-89zM550 210h-89v89h89v-89zM145 514h-90v89h90
v-89zM550 108h-89v90h89v-90zM347 209h-89v89h89v-89zM449 210h-90v89h90v-89zM145 412h-90v90h90v-90zM449 108h-90v90h90v-90zM550 7h-89v89h89v-89zM246 209h-89v89h89v-89zM145 311h-90v89h90v-89zM449 7h-90v89h90v-89zM145 210h-90v89h90v-89zM145 108h-90v90h90v-90z
M145 7h-90v89h90v-89zM347 515h-89v89h89v-89zM246 515h-89v89h89v-89zM347 813h-89v90h89v-90zM449 712h-90v89h90v-89zM246 712h-90v89h90v-89z" />
    <glyph glyph-name="Ecircumflex" unicode="&#xca;" horiz-adv-x="617" 
d="M349 813h-89v90h89v-90zM451 712h-90v89h90v-89zM248 712h-90v89h90v-89zM552 615h-90v90h90v-90zM450 615h-89v90h89v-90zM349 615h-89v90h89v-90zM248 615h-90v90h90v-90zM450 412h-89v90h89v-90zM146 615h-89v90h89v-90zM248 514h-90v89h90v-89zM349 412h-89v90h89
v-90zM146 514h-89v89h89v-89zM248 412h-90v90h90v-90zM146 412h-89v90h89v-90zM248 311h-90v89h90v-89zM552 7h-90v89h90v-89zM146 311h-89v89h89v-89zM248 210h-90v89h90v-89zM450 7h-89v89h89v-89zM248 108h-90v90h90v-90zM146 210h-89v89h89v-89zM349 7h-89v89h89v-89z
M146 108h-89v90h89v-90zM248 7h-90v89h90v-89zM146 7h-89v89h89v-89z" />
    <glyph glyph-name="Aacute" unicode="&#xc1;" horiz-adv-x="609" 
d="M449 615h-90v90h90v-90zM550 514h-89v89h89v-89zM347 615h-89v90h89v-90zM449 514h-90v89h90v-89zM550 412h-89v90h89v-90zM246 615h-89v90h89v-90zM449 412h-90v90h90v-90zM550 311h-89v89h89v-89zM449 311h-90v89h90v-89zM550 210h-89v89h89v-89zM145 514h-90v89h90
v-89zM550 108h-89v90h89v-90zM347 209h-89v89h89v-89zM449 210h-90v89h90v-89zM145 412h-90v90h90v-90zM449 108h-90v90h90v-90zM550 7h-89v89h89v-89zM246 209h-89v89h89v-89zM145 311h-90v89h90v-89zM449 7h-90v89h90v-89zM145 210h-90v89h90v-89zM145 108h-90v90h90v-90z
M145 7h-90v89h90v-89zM347 515h-89v89h89v-89zM246 515h-89v89h89v-89zM347 813h-89v90h89v-90zM449 815h-90v89h90v-89zM246 712h-90v89h90v-89z" />
    <glyph glyph-name="Edieresis" unicode="&#xcb;" horiz-adv-x="617" 
d="M451 712h-90v89h90v-89zM248 712h-90v89h90v-89zM552 615h-90v90h90v-90zM450 615h-89v90h89v-90zM349 615h-89v90h89v-90zM248 615h-90v90h90v-90zM450 412h-89v90h89v-90zM146 615h-89v90h89v-90zM248 514h-90v89h90v-89zM349 412h-89v90h89v-90zM146 514h-89v89h89
v-89zM248 412h-90v90h90v-90zM146 412h-89v90h89v-90zM248 311h-90v89h90v-89zM552 7h-90v89h90v-89zM146 311h-89v89h89v-89zM248 210h-90v89h90v-89zM450 7h-89v89h89v-89zM248 108h-90v90h90v-90zM146 210h-89v89h89v-89zM349 7h-89v89h89v-89zM146 108h-89v90h89v-90z
M248 7h-90v89h90v-89zM146 7h-89v89h89v-89z" />
    <glyph glyph-name="Egrave" unicode="&#xc8;" horiz-adv-x="617" 
d="M349 813h-89v90h89v-90zM451 712h-90v89h90v-89zM552 615h-90v90h90v-90zM450 615h-89v90h89v-90zM349 615h-89v90h89v-90zM248 615h-90v90h90v-90zM450 412h-89v90h89v-90zM146 615h-89v90h89v-90zM248 514h-90v89h90v-89zM349 412h-89v90h89v-90zM146 514h-89v89h89
v-89zM248 412h-90v90h90v-90zM146 412h-89v90h89v-90zM248 311h-90v89h90v-89zM552 7h-90v89h90v-89zM146 311h-89v89h89v-89zM248 210h-90v89h90v-89zM450 7h-89v89h89v-89zM248 108h-90v90h90v-90zM146 210h-89v89h89v-89zM349 7h-89v89h89v-89zM146 108h-89v90h89v-90z
M248 7h-90v89h90v-89zM146 7h-89v89h89v-89z" />
    <glyph glyph-name="Iacute" unicode="&#xcd;" horiz-adv-x="327" 
d="M167 906h89v-90h-89v90zM65 804h90v-89h-90v89zM268 906h90v-90h-90v90zM256 615h-89v90h89v-90zM155 615h-90v90h90v-90zM256 514h-89v89h89v-89zM155 514h-90v89h90v-89zM256 412h-89v90h89v-90zM155 412h-90v90h90v-90zM256 311h-89v89h89v-89zM155 311h-90v89h90v-89
zM256 210h-89v89h89v-89zM256 108h-89v90h89v-90zM155 210h-90v89h90v-89zM155 108h-90v90h90v-90zM256 7h-89v89h89v-89zM155 7h-90v89h90v-89z" />
    <glyph glyph-name="Icircumflex" unicode="&#xce;" horiz-adv-x="422" 
d="M249 813h-89v90h89v-90zM351 712h-90v89h90v-89zM154 715h-90v89h90v-89zM360 8h-90v90h90v-90zM256 615h-89v90h89v-90zM155 615h-90v90h90v-90zM256 514h-89v89h89v-89zM155 514h-90v89h90v-89zM256 412h-89v90h89v-90zM155 412h-90v90h90v-90zM256 311h-89v89h89v-89z
M155 311h-90v89h90v-89zM256 210h-89v89h89v-89zM256 108h-89v90h89v-90zM155 210h-90v89h90v-89zM155 108h-90v90h90v-90zM256 7h-89v89h89v-89zM155 7h-90v89h90v-89z" />
    <glyph glyph-name="Idieresis" unicode="&#xcf;" horiz-adv-x="411" 
d="M351 712h-90v89h90v-89zM154 715h-90v89h90v-89zM360 8h-90v90h90v-90zM256 615h-89v90h89v-90zM155 615h-90v90h90v-90zM256 514h-89v89h89v-89zM155 514h-90v89h90v-89zM256 412h-89v90h89v-90zM155 412h-90v90h90v-90zM256 311h-89v89h89v-89zM155 311h-90v89h90v-89z
M256 210h-89v89h89v-89zM256 108h-89v90h89v-90zM155 210h-90v89h90v-89zM155 108h-90v90h90v-90zM256 7h-89v89h89v-89zM155 7h-90v89h90v-89z" />
    <glyph glyph-name="Igrave" unicode="&#xcc;" horiz-adv-x="327" 
d="M152 816h-89v90h89v-90zM254 715h-90v89h90v-89zM51 816h-90v90h90v-90zM256 615h-89v90h89v-90zM155 615h-90v90h90v-90zM256 514h-89v89h89v-89zM155 514h-90v89h90v-89zM256 412h-89v90h89v-90zM155 412h-90v90h90v-90zM256 311h-89v89h89v-89zM155 311h-90v89h90v-89
zM256 210h-89v89h89v-89zM256 108h-89v90h89v-90zM155 210h-90v89h90v-89zM155 108h-90v90h90v-90zM256 7h-89v89h89v-89zM155 7h-90v89h90v-89z" />
    <glyph glyph-name="Oacute" unicode="&#xd3;" horiz-adv-x="914" 
d="M459 906h89v-90h-89v90zM357 804h90v-89h-90v89zM560 906h90v-90h-90v90zM652 615h-90v90h90v-90zM753 514h-89v89h89v-89zM855 412h-90v90h90v-90zM550 615h-89v90h89v-90zM652 514h-90v89h90v-89zM753 412h-89v90h89v-90zM855 311h-90v89h90v-89zM449 615h-89v90h89
v-90zM753 311h-89v89h89v-89zM855 210h-90v89h90v-89zM348 615h-90v90h90v-90zM753 210h-89v89h89v-89zM348 514h-90v89h90v-89zM753 108h-89v90h89v-90zM246 514h-89v89h89v-89zM652 108h-90v90h90v-90zM246 412h-89v90h89v-90zM652 7h-90v89h90v-89zM145 412h-90v90h90
v-90zM246 311h-89v89h89v-89zM550 7h-89v89h89v-89zM348 108h-90v90h90v-90zM145 311h-90v89h90v-89zM246 210h-89v89h89v-89zM449 7h-89v89h89v-89zM246 108h-89v90h89v-90zM348 7h-90v89h90v-89zM145 210h-90v89h90v-89z" />
    <glyph glyph-name="Ocircumflex" unicode="&#xd4;" horiz-adv-x="1017" 
d="M550 813h-89v90h89v-90zM652 712h-90v89h90v-89zM449 712h-90v89h90v-89zM652 615h-90v90h90v-90zM753 514h-89v89h89v-89zM855 412h-90v90h90v-90zM550 615h-89v90h89v-90zM652 514h-90v89h90v-89zM753 412h-89v90h89v-90zM855 311h-90v89h90v-89zM449 615h-89v90h89
v-90zM753 311h-89v89h89v-89zM855 210h-90v89h90v-89zM348 615h-90v90h90v-90zM753 210h-89v89h89v-89zM348 514h-90v89h90v-89zM753 108h-89v90h89v-90zM246 514h-89v89h89v-89zM652 108h-90v90h90v-90zM246 412h-89v90h89v-90zM652 7h-90v89h90v-89zM145 412h-90v90h90
v-90zM246 311h-89v89h89v-89zM550 7h-89v89h89v-89zM348 108h-90v90h90v-90zM145 311h-90v89h90v-89zM246 210h-89v89h89v-89zM449 7h-89v89h89v-89zM246 108h-89v90h89v-90zM348 7h-90v89h90v-89zM145 210h-90v89h90v-89zM855 615h-90v90h90v-90zM753 615h-89v90h89v-90z
M955 615h-89v90h89v-90z" />
    <glyph glyph-name="apple" horiz-adv-x="889" 
d="M846 311h-90v89h90v-89zM744 311h-89v89h89v-89zM846 210h-90v89h90v-89zM744 210h-89v89h89v-89zM339 514h-90v89h90v-89zM541 311h-89v89h89v-89zM339 412h-90v90h90v-90zM440 311h-89v89h89v-89zM541 210h-89v89h89v-89zM237 412h-89v90h89v-90zM339 311h-90v89h90
v-89zM440 210h-89v89h89v-89zM237 311h-89v89h89v-89zM339 210h-90v89h90v-89zM339 108h-90v90h90v-90zM136 311h-90v89h90v-89zM237 210h-89v89h89v-89zM237 108h-89v90h89v-90zM339 7h-90v89h90v-89zM136 210h-90v89h90v-89zM846 514h-90v89h90v-89zM744 514h-89v89h89
v-89zM846 413h-90v89h90v-89zM744 413h-89v89h89v-89z" />
    <glyph glyph-name="Ograve" unicode="&#xd2;" horiz-adv-x="914" 
d="M446 816h-89v90h89v-90zM548 715h-90v89h90v-89zM345 816h-90v90h90v-90zM652 615h-90v90h90v-90zM753 514h-89v89h89v-89zM855 412h-90v90h90v-90zM550 615h-89v90h89v-90zM652 514h-90v89h90v-89zM753 412h-89v90h89v-90zM855 311h-90v89h90v-89zM449 615h-89v90h89
v-90zM753 311h-89v89h89v-89zM855 210h-90v89h90v-89zM348 615h-90v90h90v-90zM753 210h-89v89h89v-89zM348 514h-90v89h90v-89zM753 108h-89v90h89v-90zM246 514h-89v89h89v-89zM652 108h-90v90h90v-90zM246 412h-89v90h89v-90zM652 7h-90v89h90v-89zM145 412h-90v90h90
v-90zM246 311h-89v89h89v-89zM550 7h-89v89h89v-89zM348 108h-90v90h90v-90zM145 311h-90v89h90v-89zM246 210h-89v89h89v-89zM449 7h-89v89h89v-89zM246 108h-89v90h89v-90zM348 7h-90v89h90v-89zM145 210h-90v89h90v-89z" />
    <glyph glyph-name="Uacute" unicode="&#xda;" 
d="M652 615h-90v90h90v-90zM652 514h-90v89h90v-89zM652 412h-90v90h90v-90zM652 311h-90v89h90v-89zM246 615h-89v90h89v-90zM652 210h-90v89h90v-89zM145 615h-90v90h90v-90zM246 514h-89v89h89v-89zM652 108h-90v90h90v-90zM145 514h-90v89h90v-89zM246 412h-89v90h89
v-90zM550 108h-89v90h89v-90zM145 412h-90v90h90v-90zM246 311h-89v89h89v-89zM550 7h-89v89h89v-89zM348 108h-90v90h90v-90zM145 311h-90v89h90v-89zM246 210h-89v89h89v-89zM449 7h-89v89h89v-89zM246 108h-89v90h89v-90zM348 7h-90v89h90v-89zM145 210h-90v89h90v-89z
M145 108h-90v90h90v-90zM246 7h-89v89h89v-89zM349 720h-89v90h89v-90zM450 825h-89v90h89v-90zM551 825h-89v90h89v-90z" />
    <glyph glyph-name="Ucircumflex" unicode="&#xdb;" 
d="M652 615h-90v90h90v-90zM652 514h-90v89h90v-89zM652 412h-90v90h90v-90zM652 311h-90v89h90v-89zM246 615h-89v90h89v-90zM652 210h-90v89h90v-89zM145 615h-90v90h90v-90zM246 514h-89v89h89v-89zM652 108h-90v90h90v-90zM145 514h-90v89h90v-89zM246 412h-89v90h89
v-90zM550 108h-89v90h89v-90zM145 412h-90v90h90v-90zM246 311h-89v89h89v-89zM550 7h-89v89h89v-89zM348 108h-90v90h90v-90zM145 311h-90v89h90v-89zM246 210h-89v89h89v-89zM449 7h-89v89h89v-89zM246 108h-89v90h89v-90zM348 7h-90v89h90v-89zM145 210h-90v89h90v-89z
M145 108h-90v90h90v-90zM246 7h-89v89h89v-89zM450 813h-89v90h89v-90zM552 712h-90v89h90v-89zM349 712h-90v89h90v-89z" />
    <glyph glyph-name="Ugrave" unicode="&#xd9;" 
d="M652 615h-90v90h90v-90zM652 514h-90v89h90v-89zM652 412h-90v90h90v-90zM652 311h-90v89h90v-89zM246 615h-89v90h89v-90zM652 210h-90v89h90v-89zM145 615h-90v90h90v-90zM246 514h-89v89h89v-89zM652 108h-90v90h90v-90zM145 514h-90v89h90v-89zM246 412h-89v90h89
v-90zM550 108h-89v90h89v-90zM145 412h-90v90h90v-90zM246 311h-89v89h89v-89zM550 7h-89v89h89v-89zM348 108h-90v90h90v-90zM145 311h-90v89h90v-89zM246 210h-89v89h89v-89zM449 7h-89v89h89v-89zM246 108h-89v90h89v-90zM348 7h-90v89h90v-89zM145 210h-90v89h90v-89z
M145 108h-90v90h90v-90zM246 7h-89v89h89v-89zM445 816h-89v90h89v-90zM547 715h-90v89h90v-89zM344 816h-90v90h90v-90z" />
    <glyph glyph-name="dotlessi" unicode="&#x131;" horiz-adv-x="187" 
d="M136 7h-90v89h90v-89zM135 -95h-89v90h89v-90zM136 -198h-90v90h90v-90z" />
    <glyph glyph-name="circumflex" unicode="&#x2c6;" horiz-adv-x="399" 
d="M247 813h-89v90h89v-90zM349 712h-90v89h90v-89zM146 712h-90v89h90v-89z" />
    <glyph glyph-name="tilde" unicode="&#x2dc;" horiz-adv-x="414" 
d="M254 710h89v-89h-89v89zM254 812h89v-90h-89v90zM46 710h89v-89h-89v89zM46 812h89v-90h-89v90z" />
    <glyph glyph-name="macron" unicode="&#xaf;" horiz-adv-x="296" 
d="M237 312h-89v89h89v-89zM136 312h-90v89h90v-89z" />
    <glyph glyph-name="macron" unicode="&#x2c9;" horiz-adv-x="296" 
d="M237 312h-89v89h89v-89zM136 312h-90v89h90v-89z" />
    <glyph glyph-name="breve" unicode="&#x2d8;" horiz-adv-x="889" 
d="M440 705v-90h-89v90h89zM440 603v-89h-89v89h89zM541 705v-90h-89v90h89zM541 603v-89h-89v89h89zM237 198v-90h-89v90h89zM440 400v-89h-89v89h89zM339 198v-90h-90v90h90zM440 299v-89h-89v89h89zM541 400v-89h-89v89h89zM339 96v-89h-90v89h90zM440 198v-90h-89v90h89
zM541 299v-89h-89v89h89zM440 96v-89h-89v89h89zM541 198v-90h-89v90h89zM643 198v-90h-90v90h90zM440 -5v-90h-89v90h89zM541 96v-89h-89v89h89zM643 96v-89h-90v89h90zM744 198v-90h-89v90h89zM541 -5v-90h-89v90h89z" />
    <glyph glyph-name="dotaccent" unicode="&#x2d9;" horiz-adv-x="889" 
d="M846 615h-90v90h90v-90zM744 615h-89v90h89v-90zM846 514h-90v89h90v-89zM643 615h-90v90h90v-90zM744 514h-89v89h89v-89zM846 412h-90v90h90v-90zM541 615h-89v90h89v-90zM643 514h-90v89h90v-89zM744 412h-89v90h89v-90zM846 311h-90v89h90v-89zM440 615h-89v90h89
v-90zM541 514h-89v89h89v-89zM643 412h-90v90h90v-90zM744 311h-89v89h89v-89zM846 210h-90v89h90v-89zM339 615h-90v90h90v-90zM846 108h-90v90h90v-90zM440 514h-89v89h89v-89zM541 412h-89v90h89v-90zM643 311h-90v89h90v-89zM744 210h-89v89h89v-89zM237 615h-89v90h89
v-90zM339 514h-90v89h90v-89zM744 108h-89v90h89v-90zM846 7h-90v89h90v-89zM440 412h-89v90h89v-90zM541 311h-89v89h89v-89zM643 210h-90v89h90v-89zM136 615h-90v90h90v-90zM237 514h-89v89h89v-89zM339 412h-90v90h90v-90zM643 108h-90v90h90v-90zM744 7h-89v89h89v-89z
M846 -95h-90v90h90v-90zM440 311h-89v89h89v-89zM541 210h-89v89h89v-89zM136 514h-90v89h90v-89zM237 412h-89v90h89v-90zM339 311h-90v89h90v-89zM541 108h-89v90h89v-90zM643 7h-90v89h90v-89zM744 -95h-89v90h89v-90zM440 210h-89v89h89v-89zM136 412h-90v90h90v-90z
M237 311h-89v89h89v-89zM339 210h-90v89h90v-89zM440 108h-89v90h89v-90zM541 7h-89v89h89v-89zM643 -95h-90v90h90v-90zM339 108h-90v90h90v-90zM136 311h-90v89h90v-89zM237 210h-89v89h89v-89zM440 7h-89v89h89v-89zM541 -95h-89v90h89v-90zM237 108h-89v90h89v-90z
M339 7h-90v89h90v-89zM136 210h-90v89h90v-89zM440 -95h-89v90h89v-90zM136 108h-90v90h90v-90zM237 7h-89v89h89v-89zM339 -95h-90v90h90v-90zM136 7h-90v89h90v-89zM237 -95h-89v90h89v-90zM136 -95h-90v90h90v-90zM846 -198h-90v90h90v-90zM744 -198h-89v90h89v-90z
M643 -198h-90v90h90v-90zM541 -198h-89v90h89v-90zM440 -198h-89v90h89v-90zM339 -198h-90v90h90v-90zM237 -198h-89v90h89v-90zM136 -198h-90v90h90v-90z" />
    <glyph glyph-name="ring" unicode="&#x2da;" horiz-adv-x="889" 
d="M452 -95v90h89v-90h-89zM452 7v89h89v-89h-89zM351 -95v90h89v-90h-89zM351 7v89h89v-89h-89zM655 412v90h89v-90h-89zM452 210v89h89v-89h-89zM553 412v90h90v-90h-90zM452 311v89h89v-89h-89zM351 210v89h89v-89h-89zM553 514v89h90v-89h-90zM452 412v90h89v-90h-89z
M351 311v89h89v-89h-89zM452 514v89h89v-89h-89zM351 412v90h89v-90h-89zM249 412v90h90v-90h-90zM452 615v90h89v-90h-89zM351 514v89h89v-89h-89zM249 514v89h90v-89h-90zM148 412v90h89v-90h-89zM351 615v90h89v-90h-89z" />
    <glyph glyph-name="cedilla" unicode="&#xb8;" horiz-adv-x="302" 
d="M247 -99h-89v90h89v-90zM146 -200h-90v89h90v-89z" />
    <glyph glyph-name="hungarumlaut" unicode="&#x2dd;" horiz-adv-x="484" 
d="M237 826h-89v89h89v-89zM237 724h-89v90h89v-90zM136 621h-90v90h90v-90zM435 826h-89v89h89v-89zM435 724h-89v90h89v-90zM334 621h-90v90h90v-90z" />
    <glyph glyph-name="ogonek" unicode="&#x2db;" horiz-adv-x="399" 
d="M158 -110h89v-90h-89v90zM56 -9h90v-89h-90v89zM259 -9h90v-89h-90v89z" />
    <glyph glyph-name="caron" unicode="&#x2c7;" horiz-adv-x="399" 
d="M158 802h89v-90h-89v90zM56 903h90v-89h-90v89zM259 903h90v-89h-90v89z" />
    <glyph glyph-name="Lslash" unicode="&#x141;" horiz-adv-x="691" 
d="M334 615h-89v90h89v-90zM233 615h-90v90h90v-90zM334 514h-89v89h89v-89zM233 514h-90v89h90v-89zM334 412h-89v90h89v-90zM233 412h-90v90h90v-90zM334 311h-89v89h89v-89zM638 7h-89v89h89v-89zM233 311h-90v89h90v-89zM334 210h-89v89h89v-89zM537 7h-89v89h89v-89z
M334 108h-89v90h89v-90zM436 7h-90v89h90v-89zM233 210h-90v89h90v-89zM233 108h-90v90h90v-90zM334 7h-89v89h89v-89zM233 7h-90v89h90v-89zM435 412h-89v90h89v-90zM133 311h-90v89h90v-89z" />
    <glyph glyph-name="lslash" unicode="&#x142;" horiz-adv-x="486" 
d="M339 615h-89v90h89v-90zM238 615h-90v90h90v-90zM339 514h-89v89h89v-89zM238 514h-90v89h90v-89zM339 412h-89v90h89v-90zM238 412h-90v90h90v-90zM339 311h-89v89h89v-89zM238 311h-90v89h90v-89zM339 210h-89v89h89v-89zM339 108h-89v90h89v-90zM238 210h-90v89h90
v-89zM238 108h-90v90h90v-90zM339 7h-89v89h89v-89zM238 7h-90v89h90v-89zM441 412h-89v90h89v-90zM136 311h-90v89h90v-89z" />
    <glyph glyph-name="Scaron" unicode="&#x160;" horiz-adv-x="605" 
d="M550 615h-89v90h89v-90zM449 615h-89v90h89v-90zM348 615h-90v90h90v-90zM246 615h-89v90h89v-90zM246 514h-89v89h89v-89zM348 412h-90v90h90v-90zM449 311h-89v89h89v-89zM550 210h-89v89h89v-89zM145 514h-90v89h90v-89zM246 412h-89v90h89v-90zM348 311h-90v89h90
v-89zM550 108h-89v90h89v-90zM449 210h-89v89h89v-89zM145 412h-90v90h90v-90zM246 311h-89v89h89v-89zM449 108h-89v90h89v-90zM449 7h-89v89h89v-89zM348 7h-90v89h90v-89zM246 7h-89v89h89v-89zM145 7h-90v89h90v-89zM347 210h-89v89h89v-89zM449 814h-89v90h89v-90z
M348 716h-90v90h90v-90zM246 814h-89v90h89v-90z" />
    <glyph glyph-name="scaron" unicode="&#x161;" horiz-adv-x="500" 
d="M440 412h-89v90h89v-90zM339 412h-90v90h90v-90zM237 412h-89v90h89v-90zM440 210h-89v89h89v-89zM237 311h-89v89h89v-89zM339 210h-90v89h90v-89zM440 108h-89v90h89v-90zM339 108h-90v90h90v-90zM136 311h-90v89h90v-89zM237 210h-89v89h89v-89zM339 7h-90v89h90v-89z
M136 210h-90v89h90v-89zM237 7h-89v89h89v-89zM136 7h-90v89h90v-89zM440 614h-89v90h89v-90zM339 513h-90v90h90v-90zM237 614h-89v90h89v-90z" />
    <glyph glyph-name="Zcaron" unicode="&#x17d;" horiz-adv-x="602" 
d="M257 802h89v-90h-89v90zM155 903h90v-89h-90v89zM358 903h90v-89h-90v89zM652 615h-90v90h90v-90zM550 615h-89v90h89v-90zM652 514h-90v89h90v-89zM449 615h-89v90h89v-90zM550 514h-89v89h89v-89zM348 615h-90v90h90v-90zM449 514h-89v89h89v-89zM550 412h-89v90h89
v-90zM246 615h-89v90h89v-90zM449 412h-89v90h89v-90zM145 615h-90v90h90v-90zM348 412h-90v90h90v-90zM449 311h-89v89h89v-89zM348 311h-90v89h90v-89zM652 7h-90v89h90v-89zM246 311h-89v89h89v-89zM348 210h-90v89h90v-89zM550 7h-89v89h89v-89zM246 210h-89v89h89v-89z
M449 7h-89v89h89v-89zM246 108h-89v90h89v-90zM348 7h-90v89h90v-89zM145 210h-90v89h90v-89zM145 108h-90v90h90v-90zM246 7h-89v89h89v-89zM145 7h-90v89h90v-89z" />
    <glyph glyph-name="zcaron" unicode="&#x17e;" horiz-adv-x="602" 
d="M440 412h-89v90h89v-90zM339 412h-90v90h90v-90zM440 311h-89v89h89v-89zM237 412h-89v90h89v-90zM339 311h-90v89h90v-89zM136 412h-90v90h90v-90zM339 210h-90v89h90v-89zM237 210h-89v89h89v-89zM440 7h-89v89h89v-89zM237 108h-89v90h89v-90zM339 7h-90v89h90v-89z
M136 108h-90v90h90v-90zM237 7h-89v89h89v-89zM136 7h-90v89h90v-89zM251 802h89v-90h-89v90zM149 903h90v-89h-90v89zM352 903h90v-89h-90v89zM542 7h-89v89h89v-89z" />
    <glyph glyph-name="brokenbar" unicode="&#xa6;" horiz-adv-x="293" 
d="M237 615h-89v90h89v-90zM136 615h-90v90h90v-90zM237 514h-89v89h89v-89zM136 514h-90v89h90v-89zM237 412h-89v90h89v-90zM136 412h-90v90h90v-90zM237 311h-89v89h89v-89zM136 311h-90v89h90v-89zM237 108h-89v90h89v-90zM136 108h-90v90h90v-90zM237 7h-89v89h89v-89z
M136 7h-90v89h90v-89zM237 -95h-89v90h89v-90zM136 -95h-90v90h90v-90zM237 -198h-89v90h89v-90zM136 -198h-90v90h90v-90z" />
    <glyph glyph-name="Eth" unicode="&#xd0;" horiz-adv-x="809" 
d="M547 615h-90v90h90v-90zM648 514h-89v89h89v-89zM750 412h-90v90h90v-90zM445 615h-89v90h89v-90zM547 514h-90v89h90v-89zM648 412h-89v90h89v-90zM750 311h-90v89h90v-89zM344 615h-89v90h89v-90zM648 311h-89v89h89v-89zM750 210h-90v89h90v-89zM243 615h-90v90h90
v-90zM648 210h-89v89h89v-89zM141 615h-89v90h89v-90zM243 514h-90v89h90v-89zM648 108h-89v90h89v-90zM141 514h-89v89h89v-89zM243 412h-90v90h90v-90zM547 108h-90v90h90v-90zM141 412h-89v90h89v-90zM243 311h-90v89h90v-89zM547 7h-90v89h90v-89zM141 311h-89v89h89
v-89zM243 210h-90v89h90v-89zM445 7h-89v89h89v-89zM243 108h-90v90h90v-90zM141 210h-89v89h89v-89zM344 7h-89v89h89v-89zM141 108h-89v90h89v-90zM243 7h-90v89h90v-89zM141 7h-89v89h89v-89zM345 311h-90v89h90v-89z" />
    <glyph glyph-name="eth" unicode="&#xf0;" horiz-adv-x="496" 
d="M237 615h-89v90h89v-90zM339 514h-90v89h90v-89zM440 412h-89v90h89v-90zM136 615h-90v90h90v-90zM237 514h-89v89h89v-89zM440 311h-89v89h89v-89zM339 311h-90v89h90v-89zM440 210h-89v89h89v-89zM237 311h-89v89h89v-89zM440 108h-89v90h89v-90zM339 7h-90v89h90v-89z
M136 210h-90v89h90v-89zM136 108h-90v90h90v-90zM237 7h-89v89h89v-89zM136 422h-90v90h90v-90zM339 612h-90v89h90v-89zM440 707h-89v90h89v-90z" />
    <glyph glyph-name="Yacute" unicode="&#xdd;" 
d="M652 615h-90v90h90v-90zM550 615h-89v90h89v-90zM652 514h-90v89h90v-89zM550 514h-89v89h89v-89zM652 412h-90v90h90v-90zM550 412h-89v90h89v-90zM246 615h-89v90h89v-90zM550 311h-89v89h89v-89zM145 615h-90v90h90v-90zM246 514h-89v89h89v-89zM449 311h-89v89h89
v-89zM145 514h-90v89h90v-89zM246 412h-89v90h89v-90zM348 311h-90v89h90v-89zM449 210h-89v89h89v-89zM145 412h-90v90h90v-90zM246 311h-89v89h89v-89zM348 210h-90v89h90v-89zM449 108h-89v90h89v-90zM348 108h-90v90h90v-90zM449 7h-89v89h89v-89zM348 7h-90v89h90v-89z
M245 717h-89v90h89v-90zM346 822h-89v90h89v-90zM447 822h-89v90h89v-90z" />
    <glyph glyph-name="Thorn" unicode="&#xde;" horiz-adv-x="712" 
d="M550 514h-89v90h89v-90zM652 413h-90v89h90v-89zM449 514h-89v90h89v-90zM550 413h-89v89h89v-89zM652 311h-90v90h90v-90zM348 514h-90v90h90v-90zM550 311h-89v90h89v-90zM246 514h-89v90h89v-90zM550 210h-89v89h89v-89zM145 514h-90v90h90v-90zM246 413h-89v89h89
v-89zM449 210h-89v89h89v-89zM145 413h-90v89h90v-89zM246 311h-89v90h89v-90zM348 210h-90v89h90v-89zM145 311h-90v90h90v-90zM246 210h-89v89h89v-89zM145 210h-90v89h90v-89zM246 109h-89v89h89v-89zM246 7h-89v90h89v-90zM145 109h-90v89h90v-89zM145 7h-90v90h90v-90z
M246 718h-89v89h89v-89zM246 616h-89v90h89v-90zM145 718h-90v89h90v-89zM145 616h-90v90h90v-90z" />
    <glyph glyph-name="thorn" unicode="&#xfe;" horiz-adv-x="889" 
d="M440 412h-89v90h89v-90zM541 311h-89v89h89v-89zM339 412h-90v90h90v-90zM440 311h-89v89h89v-89zM541 210h-89v89h89v-89zM237 412h-89v90h89v-90zM541 108h-89v90h89v-90zM440 210h-89v89h89v-89zM136 412h-90v90h90v-90zM237 311h-89v89h89v-89zM440 108h-89v90h89
v-90zM136 311h-90v89h90v-89zM237 210h-89v89h89v-89zM440 7h-89v89h89v-89zM237 108h-89v90h89v-90zM339 7h-90v89h90v-89zM136 210h-90v89h90v-89zM136 108h-90v90h90v-90zM237 7h-89v89h89v-89zM136 7h-90v89h90v-89zM237 -95h-89v90h89v-90zM136 -95h-90v90h90v-90z
M237 -198h-89v90h89v-90zM136 -198h-90v90h90v-90zM237 617h-89v90h89v-90zM136 617h-90v90h90v-90zM237 514h-89v90h89v-90zM136 514h-90v90h90v-90z" />
    <glyph glyph-name="minus" unicode="&#x2212;" horiz-adv-x="392" 
d="M339 312h-90v89h90v-89zM237 312h-89v89h89v-89zM136 312h-90v89h90v-89z" />
    <glyph glyph-name="onesuperior" unicode="&#xb9;" horiz-adv-x="299" 
d="M237 615h-89v90h89v-90zM237 514h-89v89h89v-89zM136 514h-90v89h90v-89zM237 412h-89v90h89v-90zM237 311h-89v89h89v-89z" />
    <glyph glyph-name="onehalf" unicode="&#xbd;" horiz-adv-x="397" 
d="M237 615h-89v90h89v-90zM237 514h-89v89h89v-89zM136 514h-90v89h90v-89zM237 412h-89v90h89v-90zM237 311h-89v89h89v-89zM339 210h-90v89h90v-89zM237 210h-89v89h89v-89zM237 108h-89v90h89v-90zM339 7h-90v89h90v-89zM136 210h-90v89h90v-89zM136 108h-90v90h90v-90z
M237 -95h-89v90h89v-90zM339 -198h-90v90h90v-90zM237 -198h-89v90h89v-90zM136 -198h-90v90h90v-90z" />
    <glyph glyph-name="onequarter" unicode="&#xbc;" horiz-adv-x="394" 
d="M237 615h-89v90h89v-90zM237 514h-89v89h89v-89zM136 514h-90v89h90v-89zM237 412h-89v90h89v-90zM237 311h-89v89h89v-89zM339 205h-90v90h90v-90zM237 210h-89v89h89v-89zM339 7h-90v89h90v-89zM136 210h-90v89h90v-89zM136 108h-90v90h90v-90zM339 -95h-90v90h90v-90z
M136 7h-90v89h90v-89zM237 -95h-89v90h89v-90zM136 -95h-90v90h90v-90zM339 -198h-90v90h90v-90z" />
    <glyph glyph-name="LF" horiz-adv-x="322" 
d="M150 311h-90v89h90v-89zM251 210h-89v89h89v-89zM150 108h-90v90h90v-90z" />
    <glyph glyph-name="DEL" horiz-adv-x="593" 
d="M249 603h90v-89h-90v89zM148 502h89v-90h-89v90zM46 400h90v-89h-90v89zM249 502h90v-90h-90v90zM148 400h89v-89h-89v89zM46 299h90v-89h-90v89zM249 400h90v-89h-90v89zM148 299h89v-89h-89v89zM148 198h89v-90h-89v90zM351 400h89v-89h-89v89zM249 299h90v-89h-90v89z
M249 198h90v-90h-90v90zM452 400h89v-89h-89v89zM351 299h89v-89h-89v89zM249 96h90v-89h-90v89zM452 299h89v-89h-89v89z" />
    <glyph glyph-name="Euro" unicode="&#x20ac;" horiz-adv-x="708" 
d="M652 615h-90v90h90v-90zM550 615h-89v90h89v-90zM449 615h-89v90h89v-90zM348 615h-90v90h90v-90zM348 514h-90v89h90v-89zM246 514h-89v89h89v-89zM246 311h-89v89h89v-89zM652 3h-90v90h90v-90zM348 108h-90v90h90v-90zM145 311h-90v89h90v-89zM550 3h-89v90h89v-90z
M246 108h-89v90h89v-90zM348 7h-90v89h90v-89zM449 3h-89v90h89v-90zM550 412h-89v90h89v-90zM449 412h-89v90h89v-90zM348 412h-90v90h90v-90zM550 210h-89v89h89v-89zM246 412h-89v90h89v-90zM449 210h-89v89h89v-89zM145 412h-90v90h90v-90zM348 210h-90v89h90v-89z
M246 210h-89v89h89v-89zM145 210h-90v89h90v-89z" />
    <glyph glyph-name="glyph245" horiz-adv-x="202" 
 />
    <glyph glyph-name="glyph246" horiz-adv-x="202" 
 />
    <glyph glyph-name="glyph247" unicode="-" horiz-adv-x="392" 
d="M339 312h-90v89h90v-89zM237 312h-89v89h89v-89zM136 312h-90v89h90v-89z" />
  </font>
</defs>
</svg>
