<svg xmlns="http://www.w3.org/2000/svg" xmlns:xlink="http://www.w3.org/1999/xlink" viewBox="0 0 132.96 133.33"><defs><style>.cls-1{fill:#a4c2f7;}.cls-2{fill:url(#linear-gradient);}.cls-3{fill:#fff;}.cls-4{fill:#428dff;}.cls-5{fill:#1e0478;}.cls-6{fill:#9b8ccc;}.cls-7{fill:#6f7ccd;}.cls-8{fill:#94e7ef;}</style><linearGradient id="linear-gradient" x1="-138.44" y1="369.74" x2="-137.71" y2="369.06" gradientTransform="matrix(112.35, 0, 0, -119.23, 15575.02, 44111.16)" gradientUnits="userSpaceOnUse"><stop offset="0" stop-color="#d4e1f4"/><stop offset="0.17" stop-color="#d4e1f4"/><stop offset="0.2" stop-color="#d4e1f4"/><stop offset="0.2" stop-color="#dae4f4"/><stop offset="0.2" stop-color="#ebebf4"/><stop offset="0.2" stop-color="#f6f1f4"/><stop offset="0.2" stop-color="#fdf4f4"/><stop offset="0.2" stop-color="#fff5f4"/><stop offset="0.25" stop-color="#fff5f4"/><stop offset="0.26" stop-color="#fff5f4"/><stop offset="0.26" stop-color="#d4e1f4"/><stop offset="0.4" stop-color="#d4e1f4"/><stop offset="0.42" stop-color="#d4e1f4"/><stop offset="0.42" stop-color="#dae4f4"/><stop offset="0.42" stop-color="#ebebf4"/><stop offset="0.42" stop-color="#f6f1f4"/><stop offset="0.42" stop-color="#fdf4f4"/><stop offset="0.42" stop-color="#fff5f4"/><stop offset="0.49" stop-color="#fff5f4"/><stop offset="0.5" stop-color="#fff5f4"/><stop offset="0.5" stop-color="#f9f2f4"/><stop offset="0.5" stop-color="#e8ebf4"/><stop offset="0.5" stop-color="#dde5f4"/><stop offset="0.5" stop-color="#d6e2f4"/><stop offset="0.5" stop-color="#d4e1f4"/><stop offset="0.71" stop-color="#d4e1f4"/><stop offset="0.74" stop-color="#d4e1f4"/><stop offset="0.74" stop-color="#fff5f4"/><stop offset="0.83" stop-color="#fff5f4"/><stop offset="0.85" stop-color="#fff5f4"/><stop offset="0.85" stop-color="#d4e1f4"/></linearGradient></defs><title>logo_1</title><g id="Layer_2" data-name="Layer 2"><g id="Layer_1-2" data-name="Layer 1"><g id="svg_8" data-name="svg 8"><path id="svg_9" data-name="svg 9" class="cls-1" d="M125.9,7.07a16.33,16.33,0,0,1,0,23.09L102.81,7.07a16.31,16.31,0,0,1,23.09,0Z"/><path id="svg_10" data-name="svg 10" class="cls-1" d="M7.07,7.07a16.31,16.31,0,0,0,0,23.09L30.16,7.07a16.31,16.31,0,0,0-23.09,0Z"/><circle id="svg_11" data-name="svg 11" class="cls-1" cx="66.48" cy="69.13" r="59.61"/></g><ellipse id="svg_12" data-name="svg 12" class="cls-2" cx="63.04" cy="69.13" rx="56.17" ry="59.61"/><path id="svg_14" data-name="svg 14" class="cls-3" d="M66.48,128.75c.6,0,1.18,0,1.77-.05-30.25-.94-54.5-27.24-54.5-59.57S38,10.51,68.25,9.57c-.59,0-1.17-.05-1.77-.05a59.62,59.62,0,0,0,0,119.23Z"/><path id="svg_18" data-name="svg 18" class="cls-4" d="M29.8,133.33a2.29,2.29,0,0,1-1.62-3.91l9-9a2.3,2.3,0,0,1,3.84,1,2.33,2.33,0,0,1-.59,2.22l-9,9a2.29,2.29,0,0,1-1.62.67Z"/><path id="svg_19" data-name="svg 19" class="cls-4" d="M103.17,133.33a2.29,2.29,0,0,1-1.62-.67l-9.09-9.08a2.29,2.29,0,0,1,3.24-3.25l9.09,9.09a2.29,2.29,0,0,1-1.62,3.91Z"/><path id="svg_20" data-name="svg 20" class="cls-4" d="M125.9,32.45a2.29,2.29,0,0,1-1.62-.67L101.19,8.69a2.28,2.28,0,0,1,0-3.25,18.66,18.66,0,0,1,26.33,0h0a18.65,18.65,0,0,1,0,26.34,2.29,2.29,0,0,1-1.62.67ZM106.18,7.2l19.59,19.58A14,14,0,0,0,106.18,7.2Z"/><path id="svg_21" data-name="svg 21" class="cls-4" d="M108,28.36a2.3,2.3,0,0,1-1.62-3.92l6.87-6.88a2.3,2.3,0,1,1,3.25,3.25l-6.88,6.88a2.3,2.3,0,0,1-1.62.67Z"/><path id="svg_22" data-name="svg 22" class="cls-4" d="M7.07,32.45a2.29,2.29,0,0,1-1.62-.67,18.63,18.63,0,0,1,0-26.34h0a18.66,18.66,0,0,1,26.33,0,2.31,2.31,0,0,1,0,3.25L8.69,31.78A2.3,2.3,0,0,1,7.07,32.45ZM8.69,8.69A14,14,0,0,0,7.2,26.78L26.78,7.2A14,14,0,0,0,8.69,8.69Z"/><path id="svg_23" data-name="svg 23" class="cls-4" d="M25,28.36a2.29,2.29,0,0,1-1.62-.67L16.5,20.81a2.29,2.29,0,0,1,3.24-3.25l6.88,6.88A2.3,2.3,0,0,1,25,28.36Z"/><path id="svg_24" data-name="svg 24" class="cls-4" d="M66.48,131a61.91,61.91,0,1,1,61.91-61.91A61.9,61.9,0,0,1,66.48,131Zm0-119.23A57.32,57.32,0,1,0,123.8,69.13,57.33,57.33,0,0,0,66.48,11.81Z"/><path id="svg_26" data-name="svg 26" class="cls-4" d="M66,23.31a2.51,2.51,0,0,1-1.77-.73,2.55,2.55,0,0,1-.73-1.77V18.26A2.39,2.39,0,0,1,64.9,16a2.51,2.51,0,0,1,3.58,2.27v2.5a2.49,2.49,0,0,1-2.5,2.5Z"/><path id="svg_27" data-name="svg 27" class="cls-4" d="M66,121.9a2.49,2.49,0,0,1-2.5-2.5v-2.55a2.4,2.4,0,0,1,1.42-2.22,2.51,2.51,0,0,1,3.58,2.27v2.5a2.49,2.49,0,0,1-2.5,2.5Z"/><path id="svg_28" data-name="svg 28" class="cls-4" d="M117,71.67h-2.55a2.39,2.39,0,0,1-2.22-1.42,2.51,2.51,0,0,1,2.27-3.58h2.55a2.41,2.41,0,0,1,2.22,1.41A2.52,2.52,0,0,1,117,71.67Z"/><path id="svg_29" data-name="svg 29" class="cls-4" d="M18.44,71.67H15.89a2.39,2.39,0,0,1-2.22-1.42,2.51,2.51,0,0,1,2.27-3.58h2.55a2.41,2.41,0,0,1,2.22,1.41A2.52,2.52,0,0,1,18.44,71.67Z"/><path id="svg_30" data-name="svg 30" class="cls-4" d="M100.53,37.1a2.29,2.29,0,0,1-1.62-3.91l1.62-1.62a2.28,2.28,0,0,1,3.83,1,2.26,2.26,0,0,1-.59,2.21l-1.62,1.62A2.29,2.29,0,0,1,100.53,37.1Z"/><path id="svg_31" data-name="svg 31" class="cls-4" d="M30.81,106.82a2.3,2.3,0,0,1-1.62-3.92l1.62-1.62a2.3,2.3,0,0,1,3.25,3.25l-1.62,1.62A2.31,2.31,0,0,1,30.81,106.82Z"/><path id="svg_32" data-name="svg 32" class="cls-4" d="M102.15,106.82a2.29,2.29,0,0,1-1.62-.67l-1.62-1.62a2.29,2.29,0,0,1,3.24-3.25l1.62,1.62a2.3,2.3,0,0,1-1.62,3.92Z"/><path id="svg_33" data-name="svg 33" class="cls-4" d="M32.44,37.1a2.31,2.31,0,0,1-1.63-.67l-1.62-1.62a2.29,2.29,0,1,1,3.25-3.24l1.62,1.62a2.29,2.29,0,0,1-1.62,3.91Z"/><g id="svg_76" data-name="svg 76"><path id="svg_56" data-name="svg 56" class="cls-5" d="M102.93,40.14a9.55,9.55,0,1,1-7.5,15.44L77.9,65.7a9.5,9.5,0,0,1,0,7.11L95.43,82.93a9.5,9.5,0,1,1-1.36,2.34L76.54,75.15a9.55,9.55,0,1,1,0-11.79L94.07,53.24a9.54,9.54,0,0,1,8.86-13.1Zm6.84,9.55a6.84,6.84,0,1,0-6.84,6.84A6.85,6.85,0,0,0,109.77,49.69Zm0,39.13a6.84,6.84,0,1,0-6.84,6.85A6.85,6.85,0,0,0,109.77,88.82ZM75.88,69.26A6.85,6.85,0,1,0,69,76.1,6.85,6.85,0,0,0,75.88,69.26Z"/><path id="svg_57" data-name="svg 57" class="cls-6" d="M102.93,42.84a6.85,6.85,0,1,1-6.84,6.85A6.85,6.85,0,0,1,102.93,42.84Z"/><path id="svg_58" data-name="svg 58" class="cls-7" d="M102.93,82a6.85,6.85,0,1,1-6.84,6.84A6.85,6.85,0,0,1,102.93,82Z"/><path id="svg_59" data-name="svg 59" class="cls-8" d="M69,62.41a6.85,6.85,0,1,1-6.85,6.85A6.85,6.85,0,0,1,69,62.41Zm1.35,4.17A1.35,1.35,0,0,0,69,65.23a4,4,0,0,0-4,4,1.36,1.36,0,0,0,2.71,0A1.32,1.32,0,0,1,69,67.94,1.36,1.36,0,0,0,70.39,66.58Z"/><path id="svg_60" data-name="svg 60" class="cls-5" d="M69,65.23a1.36,1.36,0,0,1,0,2.71,1.32,1.32,0,0,0-1.32,1.32,1.36,1.36,0,0,1-2.71,0A4,4,0,0,1,69,65.23Z"/></g></g></g></svg>