<?xml version="1.0" encoding="utf-8"?>
<!-- Generator: Adobe Illustrator 22.0.0, SVG Export Plug-In . SVG Version: 6.00 Build 0)  -->
<svg version="1.1" id="Layer_1" xmlns="http://www.w3.org/2000/svg" xmlns:xlink="http://www.w3.org/1999/xlink" x="0px" y="0px"
	 viewBox="0 0 341.9 53.6" style="enable-background:new 0 0 341.9 53.6;" xml:space="preserve">
<style type="text/css">
	.st0{fill:#9B8CCC;}
	.st1{fill:#428DFF;}
	.st2{fill:#6F7CCD;}
</style>
<title>wordmark</title>
<g id="Layer_2_1_">
	<g id="Layer_2-2">
		<rect x="12" y="22.5" class="st0" width="4.6" height="4.5"/>
		<rect x="12" y="27.7" class="st1" width="4.6" height="4.5"/>
		<rect x="12" y="38.1" class="st2" width="4.6" height="4.5"/>
		<rect x="17.2" y="17.3" class="st0" width="4.5" height="4.6"/>
		<rect x="17.2" y="22.5" class="st0" width="4.5" height="4.5"/>
		<rect x="17.2" y="27.7" class="st1" width="4.5" height="4.5"/>
		<rect x="17.2" y="38.1" class="st2" width="4.5" height="4.5"/>
		<rect x="22.4" y="17.3" class="st0" width="4.6" height="4.6"/>
		<rect x="22.4" y="27.7" class="st1" width="4.6" height="4.5"/>
		<rect x="22.4" y="32.9" class="st2" width="4.6" height="4.6"/>
		<rect x="22.4" y="38.1" class="st2" width="4.6" height="4.5"/>
		<rect x="27.6" y="17.3" class="st0" width="4.5" height="4.6"/>
		<rect x="27.6" y="27.7" class="st1" width="4.5" height="4.5"/>
		<rect x="27.6" y="32.9" class="st2" width="4.5" height="4.6"/>
		<rect x="37.5" y="7" class="st0" width="4.6" height="4.6"/>
		<rect x="37.5" y="12.2" class="st0" width="4.6" height="4.5"/>
		<rect x="37.5" y="17.3" class="st0" width="4.6" height="4.6"/>
		<rect x="37.5" y="22.5" class="st0" width="4.6" height="4.5"/>
		<rect x="37.5" y="27.7" class="st1" width="4.6" height="4.5"/>
		<rect x="37.5" y="32.9" class="st2" width="4.6" height="4.6"/>
		<rect x="37.5" y="38.1" class="st2" width="4.6" height="4.5"/>
		<rect x="42.7" y="7" class="st0" width="4.5" height="4.6"/>
		<rect x="42.7" y="12.2" class="st0" width="4.5" height="4.5"/>
		<rect x="42.7" y="17.3" class="st0" width="4.5" height="4.6"/>
		<rect x="42.7" y="22.5" class="st0" width="4.5" height="4.5"/>
		<rect x="42.7" y="27.7" class="st1" width="4.5" height="4.5"/>
		<rect x="42.7" y="32.9" class="st2" width="4.5" height="4.6"/>
		<rect x="42.7" y="38.1" class="st2" width="4.5" height="4.5"/>
		<rect x="47.8" y="17.3" class="st0" width="4.6" height="4.6"/>
		<rect x="53" y="17.3" class="st0" width="4.5" height="4.6"/>
		<rect x="53" y="22.5" class="st0" width="4.5" height="4.5"/>
		<rect x="53" y="27.7" class="st1" width="4.5" height="4.5"/>
		<rect x="53" y="32.9" class="st2" width="4.5" height="4.6"/>
		<rect x="53" y="38.1" class="st2" width="4.5" height="4.5"/>
		<rect x="58.2" y="22.5" class="st0" width="4.5" height="4.5"/>
		<rect x="58.2" y="27.7" class="st1" width="4.5" height="4.5"/>
		<rect x="58.2" y="32.9" class="st2" width="4.5" height="4.6"/>
		<rect x="58.2" y="38.1" class="st2" width="4.5" height="4.5"/>
		<rect x="67.7" y="32.9" class="st2" width="4.6" height="4.6"/>
		<rect x="72.9" y="17.3" class="st0" width="4.5" height="4.6"/>
		<rect x="72.9" y="27.7" class="st1" width="4.5" height="4.5"/>
		<rect x="72.9" y="32.9" class="st2" width="4.5" height="4.6"/>
		<rect x="72.9" y="38.1" class="st2" width="4.5" height="4.5"/>
		<rect x="78" y="17.3" class="st0" width="4.6" height="4.6"/>
		<rect x="78" y="27.7" class="st1" width="4.6" height="4.5"/>
		<rect x="78" y="38.1" class="st2" width="4.6" height="4.5"/>
		<rect x="83.2" y="17.3" class="st0" width="4.5" height="4.6"/>
		<rect x="83.2" y="22.5" class="st0" width="4.5" height="4.5"/>
		<rect x="83.2" y="27.7" class="st1" width="4.5" height="4.5"/>
		<rect x="83.2" y="32.9" class="st2" width="4.5" height="4.6"/>
		<rect x="83.2" y="38.1" class="st2" width="4.5" height="4.5"/>
		<rect x="88.4" y="22.5" class="st0" width="4.5" height="4.5"/>
		<rect x="88.4" y="27.7" class="st1" width="4.5" height="4.5"/>
		<rect x="88.4" y="32.9" class="st2" width="4.5" height="4.6"/>
		<rect x="88.4" y="38.1" class="st2" width="4.5" height="4.5"/>
		<rect x="97.9" y="17.3" class="st0" width="4.6" height="4.6"/>
		<rect x="97.9" y="22.5" class="st0" width="4.6" height="4.5"/>
		<rect x="97.9" y="27.7" class="st1" width="4.6" height="4.5"/>
		<rect x="97.9" y="32.9" class="st2" width="4.6" height="4.6"/>
		<rect x="97.9" y="38.1" class="st2" width="4.6" height="4.5"/>
		<rect x="103.1" y="17.3" class="st0" width="4.5" height="4.6"/>
		<rect x="103.1" y="22.5" class="st0" width="4.5" height="4.5"/>
		<rect x="103.1" y="27.7" class="st1" width="4.5" height="4.5"/>
		<rect x="103.1" y="32.9" class="st2" width="4.5" height="4.6"/>
		<rect x="103.1" y="38.1" class="st2" width="4.5" height="4.5"/>
		<rect x="108.2" y="22.5" class="st0" width="4.6" height="4.5"/>
		<rect x="113.4" y="17.3" class="st0" width="4.5" height="4.6"/>
		<rect x="113.4" y="22.5" class="st0" width="4.5" height="4.5"/>
		<rect x="123.4" y="22.5" class="st0" width="4.6" height="4.5"/>
		<rect x="123.4" y="27.7" class="st1" width="4.6" height="4.5"/>
		<rect x="123.4" y="32.9" class="st2" width="4.6" height="4.6"/>
		<rect x="128.6" y="17.3" class="st0" width="4.5" height="4.6"/>
		<rect x="128.6" y="22.5" class="st0" width="4.5" height="4.5"/>
		<rect x="128.6" y="27.7" class="st1" width="4.5" height="4.5"/>
		<rect x="128.6" y="32.9" class="st2" width="4.5" height="4.6"/>
		<rect x="128.6" y="38.1" class="st2" width="4.5" height="4.5"/>
		<rect x="133.7" y="17.3" class="st0" width="4.6" height="4.6"/>
		<rect x="133.7" y="27.7" class="st1" width="4.6" height="4.5"/>
		<rect x="133.7" y="38.1" class="st2" width="4.6" height="4.5"/>
		<rect x="138.9" y="17.3" class="st0" width="4.5" height="4.6"/>
		<rect x="138.9" y="22.5" class="st0" width="4.5" height="4.5"/>
		<rect x="138.9" y="27.7" class="st1" width="4.5" height="4.5"/>
		<rect x="138.9" y="38.1" class="st2" width="4.5" height="4.5"/>
		<rect x="144.1" y="22.5" class="st0" width="4.5" height="4.5"/>
		<rect x="144.1" y="27.7" class="st1" width="4.5" height="4.5"/>
		<rect x="144.1" y="38.1" class="st2" width="4.5" height="4.5"/>
		<rect x="153.7" y="17.3" class="st0" width="4.6" height="4.6"/>
		<rect x="158.9" y="12.2" class="st0" width="4.5" height="4.5"/>
		<rect x="158.9" y="17.3" class="st0" width="4.5" height="4.6"/>
		<rect x="158.9" y="22.5" class="st0" width="4.5" height="4.5"/>
		<rect x="158.9" y="27.7" class="st1" width="4.5" height="4.5"/>
		<rect x="158.9" y="32.9" class="st2" width="4.5" height="4.6"/>
		<rect x="164.1" y="12.2" class="st0" width="4.6" height="4.5"/>
		<rect x="164.1" y="17.3" class="st0" width="4.6" height="4.6"/>
		<rect x="164.1" y="22.5" class="st0" width="4.6" height="4.5"/>
		<rect x="164.1" y="27.7" class="st1" width="4.6" height="4.5"/>
		<rect x="164.1" y="32.9" class="st2" width="4.6" height="4.6"/>
		<rect x="164.1" y="38.1" class="st2" width="4.6" height="4.5"/>
		<rect x="169.3" y="17.3" class="st0" width="4.5" height="4.6"/>
		<rect x="169.3" y="38.1" class="st2" width="4.5" height="4.5"/>
		<rect x="174.4" y="17.3" class="st0" width="4.5" height="4.6"/>
		<rect x="174.4" y="38.1" class="st2" width="4.5" height="4.5"/>
		<rect x="184.2" y="7" class="st0" width="4.6" height="4.6"/>
		<rect x="184.2" y="17.3" class="st0" width="4.6" height="4.6"/>
		<rect x="184.2" y="22.5" class="st0" width="4.6" height="4.5"/>
		<rect x="184.2" y="27.7" class="st1" width="4.6" height="4.5"/>
		<rect x="184.2" y="32.9" class="st2" width="4.6" height="4.6"/>
		<rect x="184.2" y="38.1" class="st2" width="4.6" height="4.5"/>
		<rect x="189.4" y="7" class="st0" width="4.5" height="4.6"/>
		<rect x="189.4" y="17.3" class="st0" width="4.5" height="4.6"/>
		<rect x="189.4" y="22.5" class="st0" width="4.5" height="4.5"/>
		<rect x="189.4" y="27.7" class="st1" width="4.5" height="4.5"/>
		<rect x="189.4" y="32.9" class="st2" width="4.5" height="4.6"/>
		<rect x="189.4" y="38.1" class="st2" width="4.5" height="4.5"/>
		<rect x="199.2" y="17.3" class="st0" width="4.6" height="4.6"/>
		<rect x="199.2" y="22.5" class="st0" width="4.6" height="4.5"/>
		<rect x="199.2" y="27.7" class="st1" width="4.6" height="4.5"/>
		<rect x="199.2" y="32.9" class="st2" width="4.6" height="4.6"/>
		<rect x="199.2" y="38.1" class="st2" width="4.6" height="4.5"/>
		<rect x="204.4" y="17.3" class="st0" width="4.5" height="4.6"/>
		<rect x="204.4" y="22.5" class="st0" width="4.5" height="4.5"/>
		<rect x="204.4" y="27.7" class="st1" width="4.5" height="4.5"/>
		<rect x="204.4" y="32.9" class="st2" width="4.5" height="4.6"/>
		<rect x="204.4" y="38.1" class="st2" width="4.5" height="4.5"/>
		<rect x="209.6" y="17.3" class="st0" width="4.6" height="4.6"/>
		<rect x="214.8" y="22.5" class="st0" width="4.5" height="4.5"/>
		<rect x="214.8" y="27.7" class="st1" width="4.5" height="4.5"/>
		<rect x="214.8" y="32.9" class="st2" width="4.5" height="4.6"/>
		<rect x="214.8" y="38.1" class="st2" width="4.5" height="4.5"/>
		<rect x="219.9" y="17.3" class="st0" width="4.5" height="4.6"/>
		<rect x="219.9" y="22.5" class="st0" width="4.5" height="4.5"/>
		<rect x="219.9" y="27.7" class="st1" width="4.5" height="4.5"/>
		<rect x="219.9" y="32.9" class="st2" width="4.5" height="4.6"/>
		<rect x="219.9" y="38.1" class="st2" width="4.5" height="4.5"/>
		<rect x="225.1" y="17.3" class="st0" width="4.6" height="4.6"/>
		<rect x="230.3" y="17.3" class="st0" width="4.5" height="4.6"/>
		<rect x="230.3" y="22.5" class="st0" width="4.5" height="4.5"/>
		<rect x="230.3" y="27.7" class="st1" width="4.5" height="4.5"/>
		<rect x="230.3" y="32.9" class="st2" width="4.5" height="4.6"/>
		<rect x="230.3" y="38.1" class="st2" width="4.5" height="4.5"/>
		<rect x="235.4" y="22.5" class="st0" width="4.6" height="4.5"/>
		<rect x="235.4" y="27.7" class="st1" width="4.6" height="4.5"/>
		<rect x="235.4" y="32.9" class="st2" width="4.6" height="4.6"/>
		<rect x="235.4" y="38.1" class="st2" width="4.6" height="4.5"/>
		<rect x="245.7" y="22.5" class="st0" width="4.6" height="4.5"/>
		<rect x="245.7" y="27.7" class="st1" width="4.6" height="4.5"/>
		<rect x="245.7" y="32.9" class="st2" width="4.6" height="4.6"/>
		<rect x="250.9" y="17.3" class="st0" width="4.5" height="4.6"/>
		<rect x="250.9" y="22.5" class="st0" width="4.5" height="4.5"/>
		<rect x="250.9" y="27.7" class="st1" width="4.5" height="4.5"/>
		<rect x="250.9" y="32.9" class="st2" width="4.5" height="4.6"/>
		<rect x="250.9" y="38.1" class="st2" width="4.5" height="4.5"/>
		<rect x="256.1" y="17.3" class="st0" width="4.6" height="4.6"/>
		<rect x="256.1" y="27.7" class="st1" width="4.6" height="4.5"/>
		<rect x="256.1" y="38.1" class="st2" width="4.6" height="4.5"/>
		<rect x="261.3" y="17.3" class="st0" width="4.5" height="4.6"/>
		<rect x="261.3" y="22.5" class="st0" width="4.5" height="4.5"/>
		<rect x="261.3" y="27.7" class="st1" width="4.5" height="4.5"/>
		<rect x="261.3" y="38.1" class="st2" width="4.5" height="4.5"/>
		<rect x="266.4" y="22.5" class="st0" width="4.5" height="4.5"/>
		<rect x="266.4" y="27.7" class="st1" width="4.5" height="4.5"/>
		<rect x="266.4" y="38.1" class="st2" width="4.5" height="4.5"/>
		<path class="st2" d="M280.6,42.6h-4.5v-4.5h4.5V42.6z M285.8,42.6h-4.5v-4.5h4.5V42.6z"/>
		<rect x="290.6" y="7" class="st0" width="4.6" height="4.6"/>
		<rect x="290.6" y="17.3" class="st0" width="4.6" height="4.6"/>
		<rect x="290.6" y="22.5" class="st0" width="4.6" height="4.5"/>
		<rect x="290.6" y="27.7" class="st1" width="4.6" height="4.5"/>
		<rect x="290.6" y="32.9" class="st2" width="4.6" height="4.6"/>
		<rect x="290.6" y="38.1" class="st2" width="4.6" height="4.5"/>
		<rect x="295.8" y="7" class="st0" width="4.5" height="4.6"/>
		<rect x="295.8" y="17.3" class="st0" width="4.5" height="4.6"/>
		<rect x="295.8" y="22.5" class="st0" width="4.5" height="4.5"/>
		<rect x="295.8" y="27.7" class="st1" width="4.5" height="4.5"/>
		<rect x="295.8" y="32.9" class="st2" width="4.5" height="4.6"/>
		<rect x="295.8" y="38.1" class="st2" width="4.5" height="4.5"/>
		<rect x="305.6" y="17.3" class="st0" width="4.6" height="4.6"/>
		<rect x="305.6" y="22.5" class="st0" width="4.6" height="4.5"/>
		<rect x="305.6" y="27.7" class="st1" width="4.6" height="4.5"/>
		<rect x="305.6" y="32.9" class="st2" width="4.6" height="4.6"/>
		<rect x="305.6" y="38.1" class="st2" width="4.6" height="4.5"/>
		<rect x="310.8" y="17.3" class="st0" width="4.5" height="4.6"/>
		<rect x="310.8" y="22.5" class="st0" width="4.5" height="4.5"/>
		<rect x="310.8" y="27.7" class="st1" width="4.5" height="4.5"/>
		<rect x="310.8" y="32.9" class="st2" width="4.5" height="4.6"/>
		<rect x="310.8" y="38.1" class="st2" width="4.5" height="4.5"/>
		<rect x="316" y="17.3" class="st0" width="4.6" height="4.6"/>
		<rect x="321.2" y="17.3" class="st0" width="4.5" height="4.6"/>
		<rect x="321.2" y="22.5" class="st0" width="4.5" height="4.5"/>
		<rect x="321.2" y="27.7" class="st1" width="4.5" height="4.5"/>
		<rect x="321.2" y="32.9" class="st2" width="4.5" height="4.6"/>
		<rect x="321.2" y="38.1" class="st2" width="4.5" height="4.5"/>
		<rect x="326.3" y="22.5" class="st0" width="4.5" height="4.5"/>
		<rect x="326.3" y="27.7" class="st1" width="4.5" height="4.5"/>
		<rect x="326.3" y="32.9" class="st2" width="4.5" height="4.6"/>
		<rect x="326.3" y="38.1" class="st2" width="4.5" height="4.5"/>
	</g>
</g>
</svg>
